G75*
G70*
%OFA0B0*%
%FSLAX24Y24*%
%IPPOS*%
%LPD*%
%AMOC8*
5,1,8,0,0,1.08239X$1,22.5*
%
%ADD10C,0.0040*%
%ADD11C,0.0070*%
%ADD12R,0.0070X0.0010*%
%ADD13R,0.0110X0.0010*%
%ADD14R,0.0160X0.0010*%
%ADD15R,0.0190X0.0010*%
%ADD16R,0.0220X0.0010*%
%ADD17R,0.0240X0.0010*%
%ADD18R,0.0260X0.0010*%
%ADD19R,0.0290X0.0010*%
%ADD20R,0.0310X0.0010*%
%ADD21R,0.0320X0.0010*%
%ADD22R,0.0340X0.0010*%
%ADD23R,0.0350X0.0010*%
%ADD24R,0.0370X0.0010*%
%ADD25R,0.0380X0.0010*%
%ADD26R,0.0360X0.0010*%
%ADD27R,0.0330X0.0010*%
%ADD28R,0.0300X0.0010*%
%ADD29R,0.0270X0.0010*%
%ADD30R,0.0230X0.0010*%
%ADD31R,0.0200X0.0010*%
%ADD32R,0.0180X0.0010*%
%ADD33R,0.0170X0.0010*%
%ADD34R,0.0150X0.0010*%
%ADD35R,0.0140X0.0010*%
%ADD36R,0.0130X0.0010*%
%ADD37R,0.0120X0.0010*%
%ADD38R,0.0100X0.0010*%
%ADD39R,0.0250X0.0010*%
%ADD40R,0.0390X0.0010*%
%ADD41R,0.0400X0.0010*%
%ADD42R,0.0410X0.0010*%
%ADD43R,0.0420X0.0010*%
%ADD44R,0.0430X0.0010*%
%ADD45R,0.0440X0.0010*%
%ADD46R,0.0450X0.0010*%
%ADD47R,0.0280X0.0010*%
%ADD48R,0.0010X0.0070*%
%ADD49R,0.0010X0.0110*%
%ADD50R,0.0010X0.0160*%
%ADD51R,0.0010X0.0190*%
%ADD52R,0.0010X0.0220*%
%ADD53R,0.0010X0.0240*%
%ADD54R,0.0010X0.0260*%
%ADD55R,0.0010X0.0290*%
%ADD56R,0.0010X0.0310*%
%ADD57R,0.0010X0.0320*%
%ADD58R,0.0010X0.0340*%
%ADD59R,0.0010X0.0350*%
%ADD60R,0.0010X0.0370*%
%ADD61R,0.0010X0.0380*%
%ADD62R,0.0010X0.0360*%
%ADD63R,0.0010X0.0330*%
%ADD64R,0.0010X0.0300*%
%ADD65R,0.0010X0.0270*%
%ADD66R,0.0010X0.0230*%
%ADD67R,0.0010X0.0200*%
%ADD68R,0.0010X0.0180*%
%ADD69R,0.0010X0.0170*%
%ADD70R,0.0010X0.0150*%
%ADD71R,0.0010X0.0140*%
%ADD72R,0.0010X0.0130*%
%ADD73R,0.0010X0.0120*%
%ADD74R,0.0010X0.0100*%
%ADD75R,0.0010X0.0250*%
%ADD76R,0.0010X0.0390*%
%ADD77R,0.0010X0.0400*%
%ADD78R,0.0010X0.0410*%
%ADD79R,0.0010X0.0420*%
%ADD80R,0.0010X0.0430*%
%ADD81R,0.0010X0.0440*%
%ADD82R,0.0010X0.0450*%
%ADD83R,0.0010X0.0280*%
%ADD84C,0.0030*%
%ADD85C,0.0050*%
D10*
X005842Y004930D02*
X005918Y004930D01*
X005918Y005007D01*
X005842Y005007D01*
X005842Y004930D01*
X006072Y004930D02*
X006072Y005160D01*
X006149Y005237D01*
X006379Y005237D01*
X006379Y004930D01*
X006532Y005083D02*
X006839Y005083D01*
X006839Y005007D02*
X006839Y005160D01*
X006763Y005237D01*
X006609Y005237D01*
X006532Y005160D01*
X006532Y005083D01*
X006609Y004930D02*
X006763Y004930D01*
X006839Y005007D01*
X006993Y004930D02*
X007223Y005083D01*
X006993Y005237D01*
X007223Y005390D02*
X007223Y004930D01*
X007376Y005007D02*
X007376Y005160D01*
X007453Y005237D01*
X007607Y005237D01*
X007683Y005160D01*
X007683Y005007D01*
X007607Y004930D01*
X007453Y004930D01*
X007376Y005007D01*
X007837Y005237D02*
X007913Y005237D01*
X008067Y005083D01*
X008067Y004930D02*
X008067Y005237D01*
X008220Y005160D02*
X008297Y005237D01*
X008527Y005237D01*
X008527Y005390D02*
X008527Y004930D01*
X008297Y004930D01*
X008220Y005007D01*
X008220Y005160D01*
X008297Y005680D02*
X008527Y005680D01*
X008604Y005757D01*
X008604Y005910D01*
X008527Y005987D01*
X008297Y005987D01*
X008067Y005987D02*
X007913Y005987D01*
X007837Y005910D01*
X007837Y005680D01*
X008067Y005680D01*
X008144Y005757D01*
X008067Y005833D01*
X007837Y005833D01*
X007683Y005680D02*
X007683Y005987D01*
X007453Y005987D01*
X007376Y005910D01*
X007376Y005680D01*
X006763Y005680D02*
X006763Y006140D01*
X006763Y005987D02*
X006532Y005987D01*
X006456Y005910D01*
X006456Y005757D01*
X006532Y005680D01*
X006763Y005680D01*
X006302Y005757D02*
X006302Y005910D01*
X006225Y005987D01*
X006072Y005987D01*
X005995Y005910D01*
X005995Y005833D01*
X006302Y005833D01*
X006302Y005757D02*
X006225Y005680D01*
X006072Y005680D01*
X005381Y005680D02*
X005381Y006140D01*
X005381Y005987D02*
X005151Y005987D01*
X005074Y005910D01*
X005074Y005757D01*
X005151Y005680D01*
X005381Y005680D01*
X004921Y005757D02*
X004921Y005910D01*
X004844Y005987D01*
X004691Y005987D01*
X004614Y005910D01*
X004614Y005833D01*
X004921Y005833D01*
X004921Y005757D02*
X004844Y005680D01*
X004691Y005680D01*
X004461Y005680D02*
X004461Y005987D01*
X004230Y005987D01*
X004154Y005910D01*
X004154Y005680D01*
X003923Y005757D02*
X003847Y005680D01*
X003923Y005757D02*
X003923Y006064D01*
X004000Y005987D02*
X003847Y005987D01*
X003693Y005757D02*
X003616Y005757D01*
X003616Y005680D01*
X003693Y005680D01*
X003693Y005757D01*
X004324Y008527D02*
X004324Y008987D01*
X004094Y008987D01*
X004017Y008910D01*
X004017Y008757D01*
X004094Y008680D01*
X004324Y008680D01*
X004478Y008680D02*
X004478Y008910D01*
X004555Y008987D01*
X004631Y008910D01*
X004631Y008680D01*
X004785Y008680D02*
X004785Y008987D01*
X004708Y008987D01*
X004631Y008910D01*
X004938Y008910D02*
X005015Y008987D01*
X005168Y008987D01*
X005245Y008910D01*
X005245Y008757D01*
X005168Y008680D01*
X005015Y008680D01*
X004938Y008757D01*
X004938Y008910D01*
X005399Y008987D02*
X005629Y008987D01*
X005706Y008910D01*
X005706Y008757D01*
X005629Y008680D01*
X005399Y008680D01*
X006319Y008680D02*
X006550Y008680D01*
X006626Y008757D01*
X006550Y008833D01*
X006319Y008833D01*
X006319Y008910D02*
X006319Y008680D01*
X006319Y008910D02*
X006396Y008987D01*
X006550Y008987D01*
X006626Y009430D02*
X006550Y009507D01*
X006550Y009660D01*
X006626Y009737D01*
X006780Y009737D01*
X006857Y009660D01*
X006857Y009507D01*
X006780Y009430D01*
X006626Y009430D01*
X007010Y009430D02*
X007010Y009660D01*
X007087Y009737D01*
X007317Y009737D01*
X007317Y009430D01*
X007931Y009583D02*
X007931Y009660D01*
X008008Y009737D01*
X008161Y009737D01*
X008238Y009660D01*
X008238Y009507D01*
X008161Y009430D01*
X008008Y009430D01*
X007931Y009583D02*
X008238Y009583D01*
X008391Y009737D02*
X008468Y009737D01*
X008621Y009583D01*
X008621Y009430D02*
X008621Y009737D01*
X008775Y009660D02*
X008775Y009430D01*
X009005Y009430D01*
X009082Y009507D01*
X009005Y009583D01*
X008775Y009583D01*
X008775Y009660D02*
X008852Y009737D01*
X009005Y009737D01*
X009082Y010180D02*
X009005Y010257D01*
X009082Y010333D01*
X009235Y010333D01*
X009312Y010410D01*
X009235Y010487D01*
X009005Y010487D01*
X008852Y010487D02*
X008698Y010487D01*
X008775Y010564D02*
X008775Y010257D01*
X008698Y010180D01*
X009082Y010180D02*
X009312Y010180D01*
X009465Y010180D02*
X009465Y010487D01*
X009465Y010180D02*
X009696Y010180D01*
X009772Y010257D01*
X009772Y010487D01*
X009926Y010410D02*
X009926Y010180D01*
X010079Y010180D02*
X010079Y010410D01*
X010003Y010487D01*
X009926Y010410D01*
X010079Y010410D02*
X010156Y010487D01*
X010233Y010487D01*
X010233Y010180D01*
X010693Y009890D02*
X010693Y009430D01*
X010770Y009430D02*
X010616Y009430D01*
X010463Y009507D02*
X010463Y009660D01*
X010386Y009737D01*
X010233Y009737D01*
X010156Y009660D01*
X010156Y009583D01*
X010463Y009583D01*
X010463Y009507D02*
X010386Y009430D01*
X010233Y009430D01*
X010003Y009430D02*
X009772Y009430D01*
X009696Y009507D01*
X009772Y009583D01*
X009926Y009583D01*
X010003Y009660D01*
X009926Y009737D01*
X009696Y009737D01*
X009542Y009140D02*
X009465Y009140D01*
X009465Y008680D01*
X009389Y008680D02*
X009542Y008680D01*
X009696Y008680D02*
X009696Y008987D01*
X010003Y008987D02*
X010003Y008757D01*
X009926Y008680D01*
X009696Y008680D01*
X009235Y008757D02*
X009235Y008910D01*
X009159Y008987D01*
X009005Y008987D01*
X008928Y008910D01*
X008928Y008833D01*
X009235Y008833D01*
X009235Y008757D02*
X009159Y008680D01*
X009005Y008680D01*
X008775Y008680D02*
X008545Y008680D01*
X008468Y008757D01*
X008545Y008833D01*
X008698Y008833D01*
X008775Y008910D01*
X008698Y008987D01*
X008468Y008987D01*
X007854Y008910D02*
X007854Y008757D01*
X007777Y008680D01*
X007624Y008680D01*
X007547Y008757D01*
X007547Y008910D01*
X007624Y008987D01*
X007777Y008987D01*
X007854Y008910D01*
X007394Y008910D02*
X007240Y008910D01*
X007317Y009064D02*
X007317Y008680D01*
X007317Y009064D02*
X007240Y009140D01*
X005936Y009507D02*
X005936Y009660D01*
X005859Y009737D01*
X005629Y009737D01*
X005629Y009890D02*
X005629Y009430D01*
X005859Y009430D01*
X005936Y009507D01*
X005475Y009430D02*
X005322Y009430D01*
X005399Y009430D02*
X005399Y009737D01*
X005475Y009737D01*
X005399Y009890D02*
X005399Y009967D01*
X005399Y010180D02*
X005552Y010180D01*
X005475Y010180D02*
X005475Y010487D01*
X005552Y010487D01*
X005475Y010640D02*
X005475Y010717D01*
X005168Y010487D02*
X004938Y010487D01*
X005015Y010333D02*
X005168Y010333D01*
X005245Y010410D01*
X005168Y010487D01*
X005015Y010333D02*
X004938Y010257D01*
X005015Y010180D01*
X005245Y010180D01*
X005015Y009890D02*
X005092Y009814D01*
X005092Y009430D01*
X005168Y009660D02*
X005015Y009660D01*
X004862Y009660D02*
X004708Y009660D01*
X004555Y009660D02*
X004555Y009507D01*
X004478Y009430D01*
X004324Y009430D01*
X004248Y009583D02*
X004555Y009583D01*
X004555Y009660D02*
X004478Y009737D01*
X004324Y009737D01*
X004248Y009660D01*
X004248Y009583D01*
X004094Y009583D02*
X003941Y009737D01*
X003864Y009737D01*
X003711Y009660D02*
X003634Y009737D01*
X003480Y009737D01*
X003404Y009660D01*
X003404Y009583D01*
X003711Y009583D01*
X003711Y009507D02*
X003711Y009660D01*
X003711Y009507D02*
X003634Y009430D01*
X003480Y009430D01*
X003250Y009430D02*
X003250Y009737D01*
X003020Y009737D01*
X002943Y009660D01*
X002943Y009430D01*
X002713Y009507D02*
X002713Y009814D01*
X002790Y009737D02*
X002636Y009737D01*
X002713Y009507D02*
X002636Y009430D01*
X002636Y008987D02*
X002636Y008680D01*
X002636Y008833D02*
X002483Y008987D01*
X002406Y008987D01*
X002790Y008910D02*
X002790Y008833D01*
X003097Y008833D01*
X003097Y008757D02*
X003097Y008910D01*
X003020Y008987D01*
X002866Y008987D01*
X002790Y008910D01*
X002866Y008680D02*
X003020Y008680D01*
X003097Y008757D01*
X003250Y008680D02*
X003327Y008757D01*
X003327Y009064D01*
X003404Y008987D02*
X003250Y008987D01*
X003557Y008987D02*
X003557Y008680D01*
X003787Y008680D01*
X003864Y008757D01*
X003864Y008987D01*
X004094Y009430D02*
X004094Y009737D01*
X004017Y010180D02*
X004017Y010640D01*
X003941Y010487D02*
X003787Y010487D01*
X003711Y010410D01*
X003711Y010180D01*
X003557Y010257D02*
X003480Y010333D01*
X003250Y010333D01*
X003250Y010410D02*
X003250Y010180D01*
X003480Y010180D01*
X003557Y010257D01*
X003480Y010487D02*
X003327Y010487D01*
X003250Y010410D01*
X003097Y010487D02*
X002943Y010487D01*
X003020Y010564D02*
X003020Y010257D01*
X002943Y010180D01*
X003941Y010487D02*
X004017Y010410D01*
X004171Y010487D02*
X004324Y010487D01*
X004248Y010564D02*
X004248Y010257D01*
X004171Y010180D01*
X004708Y009890D02*
X004785Y009814D01*
X004785Y009430D01*
X006166Y010180D02*
X006166Y010410D01*
X006243Y010487D01*
X006473Y010487D01*
X006473Y010180D01*
X006626Y010487D02*
X006703Y010487D01*
X006857Y010333D01*
X006857Y010180D02*
X006857Y010487D01*
X007010Y010410D02*
X007010Y010180D01*
X007240Y010180D01*
X007317Y010257D01*
X007240Y010333D01*
X007010Y010333D01*
X007010Y010410D02*
X007087Y010487D01*
X007240Y010487D01*
X007470Y010410D02*
X007470Y010333D01*
X007777Y010333D01*
X007777Y010257D02*
X007777Y010410D01*
X007701Y010487D01*
X007547Y010487D01*
X007470Y010410D01*
X007547Y010180D02*
X007701Y010180D01*
X007777Y010257D01*
X007931Y010180D02*
X008084Y010180D01*
X008008Y010180D02*
X008008Y010640D01*
X008084Y010640D01*
X009258Y011055D02*
X009334Y011055D01*
X009334Y011132D01*
X009258Y011132D01*
X009258Y011055D01*
X009488Y011055D02*
X009718Y011055D01*
X009795Y011132D01*
X009795Y011362D01*
X009948Y011362D02*
X010102Y011362D01*
X010025Y011439D02*
X010025Y011132D01*
X009948Y011055D01*
X010255Y011055D02*
X010409Y011055D01*
X010332Y011055D02*
X010332Y011362D01*
X010409Y011362D01*
X010562Y011362D02*
X010792Y011362D01*
X010869Y011285D01*
X010869Y011132D01*
X010792Y011055D01*
X010562Y011055D01*
X011022Y011055D02*
X011176Y011055D01*
X011099Y011055D02*
X011099Y011362D01*
X011176Y011362D01*
X011329Y011362D02*
X011406Y011362D01*
X011560Y011208D01*
X011560Y011055D02*
X011560Y011362D01*
X011713Y011362D02*
X011866Y011362D01*
X011790Y011439D02*
X011790Y011132D01*
X011713Y011055D01*
X012020Y011055D02*
X012250Y011055D01*
X012327Y011132D01*
X012327Y011285D01*
X012250Y011362D01*
X012020Y011362D01*
X012480Y011285D02*
X012480Y011208D01*
X012787Y011208D01*
X012787Y011132D02*
X012787Y011285D01*
X012710Y011362D01*
X012557Y011362D01*
X012480Y011285D01*
X012557Y011055D02*
X012710Y011055D01*
X012787Y011132D01*
X012941Y011055D02*
X013094Y011055D01*
X013017Y011055D02*
X013017Y011515D01*
X013094Y011515D01*
X013248Y011285D02*
X013248Y011208D01*
X013555Y011208D01*
X013555Y011132D02*
X013555Y011285D01*
X013478Y011362D01*
X013324Y011362D01*
X013248Y011285D01*
X013324Y011055D02*
X013478Y011055D01*
X013555Y011132D01*
X013762Y010640D02*
X013762Y010180D01*
X013916Y010180D02*
X013916Y010640D01*
X013762Y010410D02*
X013686Y010487D01*
X013532Y010487D01*
X013456Y010410D01*
X013456Y010180D01*
X013302Y010257D02*
X013225Y010333D01*
X012995Y010333D01*
X012995Y010410D02*
X012995Y010180D01*
X013225Y010180D01*
X013302Y010257D01*
X013225Y010487D02*
X013072Y010487D01*
X012995Y010410D01*
X012842Y010487D02*
X012688Y010487D01*
X012765Y010564D02*
X012765Y010257D01*
X012688Y010180D01*
X012688Y009737D02*
X012918Y009737D01*
X012995Y009660D01*
X012918Y009583D01*
X012765Y009583D01*
X012688Y009507D01*
X012765Y009430D01*
X012995Y009430D01*
X013149Y009583D02*
X013149Y009660D01*
X013225Y009737D01*
X013379Y009737D01*
X013456Y009660D01*
X013456Y009507D01*
X013379Y009430D01*
X013225Y009430D01*
X013149Y009583D02*
X013456Y009583D01*
X013609Y009660D02*
X013609Y009430D01*
X013609Y009660D02*
X013686Y009737D01*
X013839Y009737D01*
X013916Y009660D01*
X014069Y009737D02*
X014223Y009737D01*
X014146Y009814D02*
X014146Y009507D01*
X014069Y009430D01*
X013916Y009430D02*
X013916Y009890D01*
X013916Y010180D02*
X014069Y010333D01*
X014223Y010180D01*
X014223Y010640D01*
X014245Y011055D02*
X014399Y011055D01*
X014475Y011132D01*
X014475Y011285D01*
X014399Y011362D01*
X014245Y011362D01*
X014168Y011285D01*
X014168Y011208D01*
X014475Y011208D01*
X014629Y011055D02*
X014859Y011208D01*
X014629Y011362D01*
X014859Y011515D02*
X014859Y011055D01*
X015012Y011055D02*
X015166Y011055D01*
X015089Y011055D02*
X015089Y011362D01*
X015166Y011362D01*
X015089Y011515D02*
X015089Y011592D01*
X015243Y011805D02*
X015166Y011882D01*
X015166Y012035D01*
X015243Y012112D01*
X015396Y012112D01*
X015473Y012035D01*
X015473Y011882D01*
X015396Y011805D01*
X015243Y011805D01*
X014936Y011882D02*
X014859Y011805D01*
X014936Y011882D02*
X014936Y012189D01*
X015012Y012112D02*
X014859Y012112D01*
X014706Y012035D02*
X014629Y012112D01*
X014475Y012112D01*
X014399Y012035D01*
X014399Y011805D01*
X014245Y011882D02*
X014245Y012035D01*
X014168Y012112D01*
X014015Y012112D01*
X013938Y012035D01*
X013938Y011958D01*
X014245Y011958D01*
X014245Y011882D02*
X014168Y011805D01*
X014015Y011805D01*
X013785Y011805D02*
X013785Y012112D01*
X013785Y011958D02*
X013631Y012112D01*
X013555Y012112D01*
X013631Y012555D02*
X013861Y012555D01*
X013938Y012632D01*
X013861Y012708D01*
X013631Y012708D01*
X013631Y012785D02*
X013631Y012555D01*
X013478Y012555D02*
X013248Y012555D01*
X013171Y012632D01*
X013248Y012708D01*
X013401Y012708D01*
X013478Y012785D01*
X013401Y012862D01*
X013171Y012862D01*
X013631Y012785D02*
X013708Y012862D01*
X013861Y012862D01*
X014092Y012785D02*
X014092Y012555D01*
X014092Y012785D02*
X014168Y012862D01*
X014322Y012862D01*
X014399Y012785D01*
X014399Y013015D02*
X014399Y012555D01*
X014706Y012265D02*
X014706Y011805D01*
X015396Y011515D02*
X015396Y011055D01*
X015473Y011055D02*
X015319Y011055D01*
X015396Y011515D02*
X015473Y011515D01*
X015473Y012555D02*
X015319Y012555D01*
X015396Y012555D02*
X015396Y013015D01*
X015473Y013015D02*
X015319Y013015D01*
X015166Y012862D02*
X015012Y012862D01*
X015089Y012939D02*
X015089Y012632D01*
X015012Y012555D01*
X012941Y012035D02*
X012941Y011882D01*
X012864Y011805D01*
X012710Y011805D01*
X012634Y011958D02*
X012941Y011958D01*
X012941Y012035D02*
X012864Y012112D01*
X012710Y012112D01*
X012634Y012035D01*
X012634Y011958D01*
X012480Y011805D02*
X012480Y012112D01*
X012404Y012112D01*
X012327Y012035D01*
X012250Y012112D01*
X012173Y012035D01*
X012173Y011805D01*
X012020Y011805D02*
X011790Y011805D01*
X011713Y011882D01*
X011713Y012035D01*
X011790Y012112D01*
X012020Y012112D01*
X012020Y012265D02*
X012020Y011805D01*
X012327Y011805D02*
X012327Y012035D01*
X012404Y012555D02*
X012480Y012632D01*
X012480Y012939D01*
X012557Y012862D02*
X012404Y012862D01*
X012250Y012785D02*
X012173Y012862D01*
X012020Y012862D01*
X011943Y012785D01*
X011943Y012555D01*
X011790Y012632D02*
X011790Y012785D01*
X011713Y012862D01*
X011560Y012862D01*
X011483Y012785D01*
X011483Y012708D01*
X011790Y012708D01*
X011790Y012632D02*
X011713Y012555D01*
X011560Y012555D01*
X010869Y012555D02*
X010639Y012555D01*
X010562Y012632D01*
X010639Y012708D01*
X010792Y012708D01*
X010869Y012785D01*
X010792Y012862D01*
X010562Y012862D01*
X010332Y012862D02*
X010178Y012862D01*
X010102Y012785D01*
X010102Y012555D01*
X010332Y012555D01*
X010409Y012632D01*
X010332Y012708D01*
X010102Y012708D01*
X009948Y012555D02*
X009948Y012862D01*
X009871Y012862D01*
X009795Y012785D01*
X009718Y012862D01*
X009641Y012785D01*
X009641Y012555D01*
X009795Y012555D02*
X009795Y012785D01*
X009488Y012785D02*
X009411Y012862D01*
X009258Y012862D01*
X009181Y012785D01*
X009181Y012708D01*
X009488Y012708D01*
X009488Y012632D02*
X009488Y012785D01*
X009488Y012632D02*
X009411Y012555D01*
X009258Y012555D01*
X009411Y012265D02*
X009411Y011805D01*
X009641Y011805D01*
X009718Y011882D01*
X009718Y012035D01*
X009641Y012112D01*
X009411Y012112D01*
X009871Y012035D02*
X009871Y011958D01*
X010178Y011958D01*
X010178Y011882D02*
X010178Y012035D01*
X010102Y012112D01*
X009948Y012112D01*
X009871Y012035D01*
X009948Y011805D02*
X010102Y011805D01*
X010178Y011882D01*
X010332Y011805D02*
X010562Y011805D01*
X010639Y011882D01*
X010639Y012035D01*
X010562Y012112D01*
X010332Y012112D01*
X010332Y012265D02*
X010332Y011805D01*
X010332Y011592D02*
X010332Y011515D01*
X010792Y011805D02*
X011022Y011805D01*
X011099Y011882D01*
X011099Y012035D01*
X011022Y012112D01*
X010792Y012112D01*
X010792Y012265D02*
X010792Y011805D01*
X011099Y011592D02*
X011099Y011515D01*
X011329Y011805D02*
X011483Y011805D01*
X011559Y011882D01*
X011559Y012035D01*
X011483Y012112D01*
X011329Y012112D01*
X011253Y012035D01*
X011253Y011958D01*
X011559Y011958D01*
X012250Y012555D02*
X012250Y013015D01*
X009488Y011362D02*
X009488Y010978D01*
X009564Y010902D01*
X009641Y010902D01*
X010847Y010487D02*
X010847Y010180D01*
X011077Y010180D01*
X011154Y010257D01*
X011154Y010487D01*
X011307Y010410D02*
X011307Y010257D01*
X011384Y010180D01*
X011537Y010180D01*
X011614Y010257D01*
X011614Y010410D01*
X011537Y010487D01*
X011384Y010487D01*
X011307Y010410D01*
X011767Y010487D02*
X011767Y010103D01*
X011844Y010027D01*
X011921Y010027D01*
X011998Y010180D02*
X011767Y010180D01*
X011998Y010180D02*
X012074Y010257D01*
X012074Y010487D01*
X012305Y009737D02*
X012228Y009660D01*
X012228Y009583D01*
X012535Y009583D01*
X012535Y009507D02*
X012535Y009660D01*
X012458Y009737D01*
X012305Y009737D01*
X012305Y009430D02*
X012458Y009430D01*
X012535Y009507D01*
X012765Y008987D02*
X012688Y008910D01*
X012688Y008680D01*
X012995Y008680D02*
X012995Y008987D01*
X012765Y008987D01*
X013149Y008910D02*
X013149Y008680D01*
X013379Y008680D01*
X013456Y008757D01*
X013379Y008833D01*
X013149Y008833D01*
X013149Y008910D02*
X013225Y008987D01*
X013379Y008987D01*
X013609Y008910D02*
X013609Y008680D01*
X013609Y008910D02*
X013686Y008987D01*
X013839Y008987D01*
X013916Y008910D01*
X014069Y008987D02*
X014223Y008987D01*
X014146Y009064D02*
X014146Y008757D01*
X014069Y008680D01*
X013916Y008680D02*
X013916Y009140D01*
X012765Y008314D02*
X012765Y008007D01*
X012688Y007930D01*
X012535Y008007D02*
X012535Y008160D01*
X012458Y008237D01*
X012305Y008237D01*
X012228Y008160D01*
X012228Y008083D01*
X012535Y008083D01*
X012535Y008007D02*
X012458Y007930D01*
X012305Y007930D01*
X012074Y007930D02*
X012074Y008237D01*
X011998Y008237D01*
X011921Y008160D01*
X011844Y008237D01*
X011767Y008160D01*
X011767Y007930D01*
X011614Y007930D02*
X011537Y007930D01*
X011537Y008007D01*
X011614Y008007D01*
X011614Y007930D01*
X011384Y007930D02*
X011307Y007930D01*
X011307Y008007D01*
X011384Y008007D01*
X011384Y007930D01*
X011154Y007930D02*
X011077Y007930D01*
X011077Y008007D01*
X011154Y008007D01*
X011154Y007930D01*
X011921Y007930D02*
X011921Y008160D01*
X011921Y008680D02*
X011998Y008757D01*
X011998Y009064D01*
X012074Y008987D02*
X011921Y008987D01*
X011767Y008910D02*
X011691Y008987D01*
X011537Y008987D01*
X011460Y008910D01*
X011460Y008680D01*
X011307Y008757D02*
X011230Y008680D01*
X011077Y008680D01*
X011000Y008833D02*
X011307Y008833D01*
X011307Y008757D02*
X011307Y008910D01*
X011230Y008987D01*
X011077Y008987D01*
X011000Y008910D01*
X011000Y008833D01*
X010386Y008833D02*
X010233Y008987D01*
X010156Y008987D01*
X010386Y008987D02*
X010386Y008680D01*
X010923Y009430D02*
X010923Y009737D01*
X010770Y009890D02*
X010693Y009890D01*
X010923Y009430D02*
X011154Y009430D01*
X011230Y009507D01*
X011230Y009737D01*
X011384Y009737D02*
X011460Y009737D01*
X011614Y009583D01*
X011614Y009430D02*
X011614Y009737D01*
X011767Y009140D02*
X011767Y008680D01*
X012688Y008237D02*
X012842Y008237D01*
X012995Y008237D02*
X013225Y008237D01*
X013302Y008160D01*
X013225Y008083D01*
X013072Y008083D01*
X012995Y008007D01*
X013072Y007930D01*
X013302Y007930D01*
X013456Y007930D02*
X013686Y007930D01*
X013762Y008007D01*
X013762Y008237D01*
X013916Y008237D02*
X014146Y008237D01*
X014223Y008160D01*
X014146Y008083D01*
X013993Y008083D01*
X013916Y008007D01*
X013993Y007930D01*
X014223Y007930D01*
X013609Y007777D02*
X013532Y007777D01*
X013456Y007853D01*
X013456Y008237D01*
X013361Y005987D02*
X013285Y005987D01*
X013208Y005910D01*
X013131Y005987D01*
X013055Y005910D01*
X013055Y005680D01*
X013208Y005680D02*
X013208Y005910D01*
X013361Y005987D02*
X013361Y005680D01*
X013515Y005757D02*
X013515Y005910D01*
X013592Y005987D01*
X013745Y005987D01*
X013822Y005910D01*
X013822Y005757D01*
X013745Y005680D01*
X013592Y005680D01*
X013515Y005757D01*
X013975Y005757D02*
X014052Y005680D01*
X014282Y005680D01*
X014436Y005680D02*
X014512Y005680D01*
X014512Y005757D01*
X014436Y005757D01*
X014436Y005680D01*
X014666Y005680D02*
X014666Y005757D01*
X014743Y005757D01*
X014743Y005680D01*
X014666Y005680D01*
X014896Y005680D02*
X014896Y005757D01*
X014973Y005757D01*
X014973Y005680D01*
X014896Y005680D01*
X014896Y005390D02*
X014743Y005390D01*
X014666Y005314D01*
X014666Y005007D01*
X014743Y004930D01*
X014896Y004930D01*
X014973Y005007D01*
X014973Y005314D01*
X014896Y005390D01*
X014512Y005237D02*
X014359Y005237D01*
X014436Y005314D02*
X014436Y005007D01*
X014359Y004930D01*
X014206Y004930D02*
X014206Y005390D01*
X014129Y005237D02*
X013975Y005237D01*
X013899Y005160D01*
X013899Y004930D01*
X013745Y005007D02*
X013745Y005160D01*
X013668Y005237D01*
X013515Y005237D01*
X013438Y005160D01*
X013438Y005083D01*
X013745Y005083D01*
X013745Y005007D02*
X013668Y004930D01*
X013515Y004930D01*
X013285Y004930D02*
X013285Y005237D01*
X013285Y005083D02*
X013131Y005237D01*
X013055Y005237D01*
X012901Y005160D02*
X012824Y005237D01*
X012594Y005237D01*
X012671Y005083D02*
X012594Y005007D01*
X012671Y004930D01*
X012901Y004930D01*
X012824Y005083D02*
X012901Y005160D01*
X012824Y005083D02*
X012671Y005083D01*
X012441Y005007D02*
X012364Y005007D01*
X012364Y004930D01*
X012441Y004930D01*
X012441Y005007D01*
X012210Y005007D02*
X012134Y005007D01*
X012134Y004930D01*
X012210Y004930D01*
X012210Y005007D01*
X011980Y005007D02*
X011904Y005007D01*
X011904Y004930D01*
X011980Y004930D01*
X011980Y005007D01*
X011750Y005007D02*
X011750Y005160D01*
X011673Y005237D01*
X011443Y005237D01*
X011213Y005237D02*
X011060Y005237D01*
X010983Y005160D01*
X010983Y004930D01*
X011213Y004930D01*
X011290Y005007D01*
X011213Y005083D01*
X010983Y005083D01*
X010829Y004930D02*
X010829Y005237D01*
X010599Y005237D01*
X010522Y005160D01*
X010522Y004930D01*
X009909Y004930D02*
X009909Y005390D01*
X009909Y005237D02*
X009678Y005237D01*
X009602Y005160D01*
X009602Y005007D01*
X009678Y004930D01*
X009909Y004930D01*
X009448Y005007D02*
X009448Y005160D01*
X009371Y005237D01*
X009218Y005237D01*
X009141Y005160D01*
X009141Y005083D01*
X009448Y005083D01*
X009448Y005007D02*
X009371Y004930D01*
X009218Y004930D01*
X009218Y005680D02*
X009218Y005910D01*
X009295Y005987D01*
X009371Y005910D01*
X009371Y005680D01*
X009525Y005680D02*
X009525Y005987D01*
X009448Y005987D01*
X009371Y005910D01*
X009678Y005910D02*
X009755Y005987D01*
X009909Y005987D01*
X009985Y005910D01*
X009985Y005757D01*
X009909Y005680D01*
X009755Y005680D01*
X009678Y005833D02*
X009985Y005833D01*
X010139Y005910D02*
X010139Y005680D01*
X010139Y005910D02*
X010215Y005987D01*
X010369Y005987D01*
X010446Y005910D01*
X010599Y005987D02*
X010753Y005987D01*
X010676Y006064D02*
X010676Y005757D01*
X010599Y005680D01*
X010446Y005680D02*
X010446Y006140D01*
X009678Y005910D02*
X009678Y005833D01*
X011366Y005910D02*
X011520Y005910D01*
X011673Y005910D02*
X011750Y005987D01*
X011904Y005987D01*
X011980Y005910D01*
X011980Y005757D01*
X011904Y005680D01*
X011750Y005680D01*
X011673Y005757D01*
X011673Y005910D01*
X011443Y006064D02*
X011443Y005680D01*
X011443Y006064D02*
X011366Y006140D01*
X012594Y005910D02*
X012594Y005833D01*
X012901Y005833D01*
X012901Y005757D02*
X012901Y005910D01*
X012824Y005987D01*
X012671Y005987D01*
X012594Y005910D01*
X012671Y005680D02*
X012824Y005680D01*
X012901Y005757D01*
X013975Y005757D02*
X014052Y005833D01*
X014206Y005833D01*
X014282Y005910D01*
X014206Y005987D01*
X013975Y005987D01*
X014129Y005237D02*
X014206Y005160D01*
X011750Y005007D02*
X011673Y004930D01*
X011443Y004930D01*
X018019Y006967D02*
X018096Y006967D01*
X018249Y006813D01*
X018249Y006660D02*
X018249Y006967D01*
X018403Y006890D02*
X018480Y006967D01*
X018633Y006967D01*
X018710Y006890D01*
X018710Y006737D01*
X018633Y006660D01*
X018480Y006660D01*
X018403Y006737D01*
X018403Y006890D01*
X018863Y006890D02*
X018863Y006737D01*
X018940Y006660D01*
X019094Y006660D01*
X019170Y006737D01*
X019170Y006890D01*
X019094Y006967D01*
X018940Y006967D01*
X018863Y006890D01*
X019324Y006890D02*
X019324Y006737D01*
X019400Y006660D01*
X019631Y006660D01*
X019631Y006507D02*
X019631Y006967D01*
X019400Y006967D01*
X019324Y006890D01*
X019400Y007410D02*
X019324Y007487D01*
X019324Y007640D01*
X019400Y007717D01*
X019554Y007717D01*
X019631Y007640D01*
X019631Y007487D01*
X019554Y007410D01*
X019400Y007410D01*
X019170Y007487D02*
X019170Y007640D01*
X019094Y007717D01*
X018940Y007717D01*
X018863Y007640D01*
X018863Y007487D01*
X018940Y007410D01*
X019094Y007410D01*
X019170Y007487D01*
X018710Y007563D02*
X018556Y007717D01*
X018480Y007717D01*
X018710Y007717D02*
X018710Y007410D01*
X019784Y007640D02*
X019861Y007563D01*
X020091Y007563D01*
X020091Y007410D02*
X020091Y007870D01*
X019861Y007870D01*
X019784Y007794D01*
X019784Y007640D01*
X020321Y006967D02*
X020245Y006890D01*
X020245Y006813D01*
X020551Y006813D01*
X020551Y006737D02*
X020551Y006890D01*
X020475Y006967D01*
X020321Y006967D01*
X020321Y006660D02*
X020475Y006660D01*
X020551Y006737D01*
X020705Y006660D02*
X020935Y006813D01*
X020705Y006967D01*
X020935Y007120D02*
X020935Y006660D01*
X021089Y006660D02*
X021242Y006660D01*
X021165Y006660D02*
X021165Y006967D01*
X021242Y006967D01*
X021165Y007120D02*
X021165Y007197D01*
X021165Y007410D02*
X021396Y007563D01*
X021165Y007717D01*
X021012Y007640D02*
X020935Y007717D01*
X020782Y007717D01*
X020705Y007640D01*
X020705Y007563D01*
X021012Y007563D01*
X021012Y007487D02*
X021012Y007640D01*
X021012Y007487D02*
X020935Y007410D01*
X020782Y007410D01*
X021396Y007410D02*
X021396Y007870D01*
X021626Y007870D02*
X021626Y007947D01*
X021626Y007717D02*
X021626Y007410D01*
X021702Y007410D02*
X021549Y007410D01*
X021856Y007410D02*
X021856Y007870D01*
X022009Y007717D01*
X022163Y007870D01*
X022163Y007410D01*
X022086Y007120D02*
X021933Y007120D01*
X021856Y007044D01*
X021856Y006890D01*
X021933Y006813D01*
X021933Y006967D01*
X022086Y006967D01*
X022086Y006813D01*
X021933Y006813D01*
X021856Y006737D02*
X021933Y006660D01*
X022086Y006660D01*
X022163Y006737D01*
X022163Y007044D01*
X022086Y007120D01*
X021702Y006967D02*
X021702Y006660D01*
X021549Y006660D02*
X021549Y006890D01*
X021472Y006967D01*
X021396Y006890D01*
X021396Y006660D01*
X021549Y006890D02*
X021626Y006967D01*
X021702Y006967D01*
X021702Y007717D02*
X021626Y007717D01*
X020091Y006583D02*
X019784Y006583D01*
X019791Y005917D02*
X019561Y005917D01*
X019484Y005840D01*
X019484Y005610D01*
X019791Y005610D02*
X019791Y005917D01*
X019945Y005840D02*
X019945Y005687D01*
X020022Y005610D01*
X020175Y005610D01*
X020252Y005687D01*
X020252Y005840D01*
X020175Y005917D01*
X020022Y005917D01*
X019945Y005840D01*
X020405Y005917D02*
X020635Y005917D01*
X020712Y005840D01*
X020635Y005763D01*
X020482Y005763D01*
X020405Y005687D01*
X020482Y005610D01*
X020712Y005610D01*
X020866Y005917D02*
X020942Y005917D01*
X021096Y005763D01*
X021096Y005610D02*
X021096Y005917D01*
X021249Y005840D02*
X021249Y005763D01*
X021556Y005763D01*
X021556Y005687D02*
X021556Y005840D01*
X021480Y005917D01*
X021326Y005917D01*
X021249Y005840D01*
X021326Y005610D02*
X021480Y005610D01*
X021556Y005687D01*
X021710Y005610D02*
X021940Y005610D01*
X022017Y005687D01*
X022017Y005840D01*
X021940Y005917D01*
X021710Y005917D01*
X021710Y006070D02*
X021710Y005610D01*
X021710Y005320D02*
X022017Y005320D01*
X021863Y005320D02*
X021863Y004860D01*
X021556Y004860D02*
X021249Y004860D01*
X021556Y004860D02*
X021556Y005320D01*
X022170Y005167D02*
X022170Y004860D01*
X022170Y005090D02*
X022477Y005090D01*
X022477Y005167D02*
X022324Y005320D01*
X022170Y005167D01*
X022477Y005167D02*
X022477Y004860D01*
X022630Y004860D02*
X022937Y004860D01*
X022937Y004937D01*
X022630Y005244D01*
X022630Y005320D01*
X022937Y005320D01*
X023091Y005167D02*
X023091Y004783D01*
X023168Y004707D01*
X023244Y004707D01*
X023321Y004860D02*
X023091Y004860D01*
X023321Y004860D02*
X023398Y004937D01*
X023398Y005167D01*
X023551Y005090D02*
X023551Y004860D01*
X023705Y004860D02*
X023705Y005090D01*
X023628Y005167D01*
X023551Y005090D01*
X023705Y005090D02*
X023781Y005167D01*
X023858Y005167D01*
X023858Y004860D01*
X024012Y004860D02*
X024012Y005090D01*
X024088Y005167D01*
X024165Y005090D01*
X024165Y004860D01*
X024319Y004860D02*
X024319Y005167D01*
X024242Y005167D01*
X024165Y005090D01*
X024472Y004860D02*
X024626Y004860D01*
X024549Y004860D02*
X024549Y005167D01*
X024626Y005167D01*
X024779Y005167D02*
X024779Y004783D01*
X024856Y004707D01*
X024932Y004707D01*
X025086Y004937D02*
X025163Y004860D01*
X025316Y004860D01*
X025393Y004937D01*
X025393Y005244D01*
X025316Y005320D01*
X025163Y005320D01*
X025086Y005244D01*
X025086Y005090D01*
X025163Y005013D01*
X025163Y005167D01*
X025316Y005167D01*
X025316Y005013D01*
X025163Y005013D01*
X024779Y005320D02*
X024779Y005397D01*
X024779Y005610D02*
X024932Y005610D01*
X024856Y005610D02*
X024856Y005917D01*
X024932Y005917D01*
X024856Y006070D02*
X024856Y006147D01*
X025086Y006070D02*
X025239Y006070D01*
X025163Y006070D02*
X025163Y005687D01*
X025239Y005610D01*
X025316Y005610D01*
X025393Y005687D01*
X024626Y005610D02*
X024626Y005917D01*
X024549Y005917D01*
X024472Y005840D01*
X024395Y005917D01*
X024319Y005840D01*
X024319Y005610D01*
X024472Y005610D02*
X024472Y005840D01*
X024165Y005917D02*
X024165Y005610D01*
X024012Y005610D02*
X024012Y005840D01*
X023935Y005917D01*
X023858Y005840D01*
X023858Y005610D01*
X023705Y005687D02*
X023628Y005610D01*
X023398Y005610D01*
X023398Y005533D02*
X023475Y005457D01*
X023551Y005457D01*
X023398Y005533D02*
X023398Y005917D01*
X023705Y005917D02*
X023705Y005687D01*
X024012Y005840D02*
X024088Y005917D01*
X024165Y005917D01*
X024549Y005397D02*
X024549Y005320D01*
X024591Y004320D02*
X024514Y004244D01*
X024514Y004167D01*
X024591Y004090D01*
X024821Y004090D01*
X024591Y004090D02*
X024514Y004013D01*
X024514Y003937D01*
X024591Y003860D01*
X024821Y003860D01*
X024821Y004320D01*
X024591Y004320D01*
X024361Y004090D02*
X024284Y004167D01*
X024131Y004167D01*
X024054Y004090D01*
X024054Y004013D01*
X024361Y004013D01*
X024361Y003937D02*
X024361Y004090D01*
X024361Y003937D02*
X024284Y003860D01*
X024131Y003860D01*
X023900Y003937D02*
X023824Y004013D01*
X023594Y004013D01*
X023594Y004090D02*
X023594Y003860D01*
X023824Y003860D01*
X023900Y003937D01*
X023824Y004167D02*
X023670Y004167D01*
X023594Y004090D01*
X023440Y003860D02*
X023287Y003860D01*
X023363Y003860D02*
X023363Y004320D01*
X023440Y004320D01*
X023133Y004090D02*
X023056Y004167D01*
X022903Y004167D01*
X022826Y004090D01*
X022826Y004013D01*
X023133Y004013D01*
X023133Y003937D02*
X023133Y004090D01*
X023133Y003937D02*
X023056Y003860D01*
X022903Y003860D01*
X023517Y003570D02*
X023517Y003110D01*
X023594Y003110D02*
X023440Y003110D01*
X023287Y003187D02*
X023287Y003340D01*
X023210Y003417D01*
X023056Y003417D01*
X022980Y003340D01*
X022980Y003263D01*
X023287Y003263D01*
X023287Y003187D02*
X023210Y003110D01*
X023056Y003110D01*
X023517Y003570D02*
X023594Y003570D01*
X023824Y003417D02*
X023747Y003340D01*
X023747Y003110D01*
X023977Y003110D01*
X024054Y003187D01*
X023977Y003263D01*
X023747Y003263D01*
X023824Y003417D02*
X023977Y003417D01*
X024207Y003340D02*
X024207Y003263D01*
X024514Y003263D01*
X024514Y003187D02*
X024514Y003340D01*
X024438Y003417D01*
X024284Y003417D01*
X024207Y003340D01*
X024284Y003110D02*
X024438Y003110D01*
X024514Y003187D01*
X024668Y003187D02*
X024668Y003340D01*
X024745Y003417D01*
X024975Y003417D01*
X025128Y003417D02*
X025128Y003033D01*
X025205Y002957D01*
X025282Y002957D01*
X025358Y003110D02*
X025128Y003110D01*
X024975Y003110D02*
X024745Y003110D01*
X024668Y003187D01*
X024975Y003110D02*
X024975Y003570D01*
X025435Y003417D02*
X025435Y003187D01*
X025358Y003110D01*
X025589Y003110D02*
X025819Y003110D01*
X025896Y003187D01*
X025819Y003263D01*
X025589Y003263D01*
X025589Y003340D02*
X025589Y003110D01*
X025589Y003340D02*
X025665Y003417D01*
X025819Y003417D01*
X026049Y003417D02*
X026049Y003033D01*
X026126Y002957D01*
X026202Y002957D01*
X026356Y003187D02*
X026433Y003110D01*
X026586Y003110D01*
X026663Y003187D01*
X026663Y003494D01*
X026586Y003570D01*
X026433Y003570D01*
X026356Y003494D01*
X026356Y003340D01*
X026433Y003263D01*
X026433Y003417D01*
X026586Y003417D01*
X026586Y003263D01*
X026433Y003263D01*
X026049Y003570D02*
X026049Y003647D01*
X026126Y003860D02*
X025896Y003860D01*
X025896Y004090D01*
X025972Y004167D01*
X026126Y004167D01*
X026126Y004013D02*
X025896Y004013D01*
X025742Y003937D02*
X025665Y003860D01*
X025435Y003860D01*
X025435Y003783D02*
X025512Y003707D01*
X025589Y003707D01*
X025435Y003783D02*
X025435Y004167D01*
X025742Y004167D02*
X025742Y003937D01*
X026126Y004013D02*
X026202Y003937D01*
X026126Y003860D01*
X026433Y003937D02*
X026433Y004320D01*
X026509Y004320D02*
X026356Y004320D01*
X026433Y003937D02*
X026509Y003860D01*
X026586Y003860D01*
X026663Y003937D01*
X022784Y005610D02*
X022784Y005917D01*
X022630Y006070D01*
X022477Y005917D01*
X022477Y005610D01*
X022324Y005610D02*
X022170Y005610D01*
X022247Y005610D02*
X022247Y006070D01*
X022324Y006070D01*
X022477Y005840D02*
X022784Y005840D01*
X025267Y008700D02*
X025267Y008930D01*
X025344Y009007D01*
X025574Y009007D01*
X025574Y008700D01*
X025727Y008777D02*
X025727Y008930D01*
X025804Y009007D01*
X025958Y009007D01*
X026034Y008930D01*
X026034Y008777D01*
X025958Y008700D01*
X025804Y008700D01*
X025727Y008777D01*
X026188Y008700D02*
X026265Y008777D01*
X026265Y009084D01*
X026341Y009007D02*
X026188Y009007D01*
X026495Y009007D02*
X026725Y009007D01*
X026802Y008930D01*
X026725Y008853D01*
X026571Y008853D01*
X026495Y008777D01*
X026571Y008700D01*
X026802Y008700D01*
X026955Y008700D02*
X027109Y008700D01*
X027032Y008700D02*
X027032Y009007D01*
X027109Y009007D01*
X027032Y009160D02*
X027032Y009237D01*
X027109Y009450D02*
X027109Y009680D01*
X027032Y009757D01*
X026955Y009680D01*
X026955Y009450D01*
X027109Y009680D02*
X027185Y009757D01*
X027262Y009757D01*
X027262Y009450D01*
X027416Y009527D02*
X027416Y009680D01*
X027492Y009757D01*
X027646Y009757D01*
X027722Y009680D01*
X027722Y009527D01*
X027646Y009450D01*
X027492Y009450D01*
X027416Y009527D01*
X027416Y009160D02*
X027339Y009160D01*
X027339Y008700D01*
X027416Y008700D02*
X027262Y008700D01*
X027569Y008700D02*
X027646Y008777D01*
X027646Y009084D01*
X027722Y009007D02*
X027569Y009007D01*
X027876Y009084D02*
X027953Y009160D01*
X028106Y009160D01*
X028183Y009084D01*
X028183Y008777D01*
X028106Y008700D01*
X027953Y008700D01*
X027876Y008777D01*
X027953Y008853D02*
X027953Y009007D01*
X028106Y009007D01*
X028106Y008853D01*
X027953Y008853D01*
X027876Y008930D01*
X027876Y009084D01*
X028029Y009450D02*
X028029Y009910D01*
X027876Y009910D02*
X028183Y009910D01*
X026723Y010507D02*
X026723Y010814D01*
X026646Y010890D01*
X026493Y010890D01*
X026416Y010814D01*
X026416Y010660D01*
X026493Y010583D01*
X026493Y010737D01*
X026646Y010737D01*
X026646Y010583D01*
X026493Y010583D01*
X026416Y010507D02*
X026493Y010430D01*
X026646Y010430D01*
X026723Y010507D01*
X026262Y010507D02*
X026262Y010660D01*
X026186Y010737D01*
X025956Y010737D01*
X025802Y010660D02*
X025725Y010737D01*
X025572Y010737D01*
X025495Y010660D01*
X025495Y010430D01*
X025342Y010430D02*
X025342Y010737D01*
X025342Y010583D02*
X025188Y010737D01*
X025111Y010737D01*
X024958Y010737D02*
X024881Y010737D01*
X024881Y010430D01*
X024805Y010430D02*
X024958Y010430D01*
X024651Y010430D02*
X024421Y010430D01*
X024344Y010507D01*
X024421Y010583D01*
X024574Y010583D01*
X024651Y010660D01*
X024574Y010737D01*
X024344Y010737D01*
X024191Y010660D02*
X024114Y010737D01*
X023884Y010737D01*
X023960Y010583D02*
X024114Y010583D01*
X024191Y010660D01*
X024191Y010430D02*
X023960Y010430D01*
X023884Y010507D01*
X023960Y010583D01*
X023730Y010507D02*
X023654Y010583D01*
X023423Y010583D01*
X023423Y010660D02*
X023423Y010430D01*
X023654Y010430D01*
X023730Y010507D01*
X023654Y010737D02*
X023500Y010737D01*
X023423Y010660D01*
X023270Y010737D02*
X023040Y010737D01*
X022963Y010660D01*
X022963Y010430D01*
X022809Y010507D02*
X022809Y010660D01*
X022733Y010737D01*
X022503Y010737D01*
X022503Y010890D02*
X022503Y010430D01*
X022733Y010430D01*
X022809Y010507D01*
X023270Y010430D02*
X023270Y010737D01*
X023270Y011180D02*
X023270Y011487D01*
X023040Y011487D01*
X022963Y011410D01*
X022963Y011180D01*
X022809Y011257D02*
X022809Y011410D01*
X022733Y011487D01*
X022503Y011487D01*
X022503Y011640D02*
X022503Y011180D01*
X022733Y011180D01*
X022809Y011257D01*
X023423Y011333D02*
X023654Y011333D01*
X023730Y011257D01*
X023654Y011180D01*
X023423Y011180D01*
X023423Y011410D01*
X023500Y011487D01*
X023654Y011487D01*
X023884Y011564D02*
X023960Y011640D01*
X024114Y011640D01*
X024191Y011564D01*
X024191Y011487D01*
X024114Y011410D01*
X023960Y011410D01*
X023884Y011333D01*
X023884Y011257D01*
X023960Y011180D01*
X024114Y011180D01*
X024191Y011257D01*
X024805Y011257D02*
X024881Y011180D01*
X025111Y011180D01*
X025265Y011180D02*
X025418Y011180D01*
X025342Y011180D02*
X025342Y011487D01*
X025418Y011487D01*
X025572Y011487D02*
X025649Y011487D01*
X025802Y011333D01*
X025802Y011180D02*
X025802Y011487D01*
X025956Y011410D02*
X026032Y011487D01*
X026186Y011487D01*
X026262Y011410D01*
X026416Y011257D02*
X026493Y011180D01*
X026646Y011180D01*
X026723Y011257D01*
X026723Y011564D01*
X026646Y011640D01*
X026493Y011640D01*
X026416Y011564D01*
X026262Y011640D02*
X026262Y011180D01*
X025956Y011180D02*
X025956Y011410D01*
X025342Y011640D02*
X025342Y011717D01*
X025035Y011487D02*
X025111Y011410D01*
X025035Y011333D01*
X024881Y011333D01*
X024805Y011257D01*
X024805Y011487D02*
X025035Y011487D01*
X024881Y010967D02*
X024881Y010890D01*
X025802Y010890D02*
X025802Y010430D01*
X025956Y010430D02*
X026186Y010430D01*
X026262Y010507D01*
X026341Y009910D02*
X026341Y009450D01*
X026034Y009450D01*
X025881Y009450D02*
X025727Y009450D01*
X025804Y009450D02*
X025804Y009757D01*
X025881Y009757D01*
X025804Y009910D02*
X025804Y009987D01*
X025497Y009757D02*
X025267Y009757D01*
X025114Y009757D02*
X024960Y009757D01*
X025037Y009834D02*
X025037Y009527D01*
X024960Y009450D01*
X024807Y009527D02*
X024730Y009450D01*
X024576Y009450D01*
X024500Y009527D01*
X024500Y009680D01*
X024576Y009757D01*
X024730Y009757D01*
X024807Y009680D01*
X024807Y009527D01*
X025267Y009527D02*
X025344Y009603D01*
X025497Y009603D01*
X025574Y009680D01*
X025497Y009757D01*
X025574Y009450D02*
X025344Y009450D01*
X025267Y009527D01*
X024346Y009450D02*
X024346Y009757D01*
X024116Y009757D01*
X024039Y009680D01*
X024039Y009450D01*
X022349Y010507D02*
X022349Y010660D01*
X022272Y010737D01*
X022119Y010737D01*
X022042Y010660D01*
X022042Y010583D01*
X022349Y010583D01*
X022349Y010507D02*
X022272Y010430D01*
X022119Y010430D01*
X021889Y010430D02*
X021889Y010737D01*
X021889Y010583D02*
X021735Y010737D01*
X021659Y010737D01*
X021505Y010660D02*
X021428Y010737D01*
X021198Y010737D01*
X021045Y010737D02*
X021045Y010814D01*
X020968Y010890D01*
X020814Y010890D01*
X020738Y010814D01*
X020738Y010737D01*
X020814Y010660D01*
X020968Y010660D01*
X021045Y010737D01*
X020968Y010660D02*
X021045Y010583D01*
X021045Y010507D01*
X020968Y010430D01*
X020814Y010430D01*
X020738Y010507D01*
X020738Y010583D01*
X020814Y010660D01*
X020584Y010583D02*
X020584Y010507D01*
X020508Y010430D01*
X020354Y010430D01*
X020277Y010507D01*
X020277Y010583D01*
X020354Y010660D01*
X020508Y010660D01*
X020584Y010737D01*
X020584Y010814D01*
X020508Y010890D01*
X020354Y010890D01*
X020277Y010814D01*
X020277Y010737D01*
X020354Y010660D01*
X020508Y010660D02*
X020584Y010583D01*
X021198Y010507D02*
X021275Y010583D01*
X021428Y010583D01*
X021505Y010660D01*
X021505Y010430D02*
X021275Y010430D01*
X021198Y010507D01*
X021275Y011180D02*
X021198Y011257D01*
X021275Y011333D01*
X021428Y011333D01*
X021505Y011410D01*
X021428Y011487D01*
X021198Y011487D01*
X021659Y011487D02*
X021735Y011487D01*
X021889Y011333D01*
X021889Y011180D02*
X021889Y011487D01*
X022042Y011410D02*
X022042Y011333D01*
X022349Y011333D01*
X022349Y011257D02*
X022349Y011410D01*
X022272Y011487D01*
X022119Y011487D01*
X022042Y011410D01*
X022119Y011180D02*
X022272Y011180D01*
X022349Y011257D01*
X021505Y011180D02*
X021275Y011180D01*
X021079Y012277D02*
X021003Y012277D01*
X020926Y012353D01*
X020926Y012737D01*
X020772Y012660D02*
X020696Y012737D01*
X020542Y012737D01*
X020465Y012660D01*
X020465Y012583D01*
X020772Y012583D01*
X020772Y012507D02*
X020772Y012660D01*
X020772Y012507D02*
X020696Y012430D01*
X020542Y012430D01*
X020312Y012430D02*
X020312Y012737D01*
X020159Y012737D02*
X020312Y012583D01*
X020159Y012737D02*
X020082Y012737D01*
X020619Y013180D02*
X020619Y013487D01*
X020619Y013333D02*
X020465Y013487D01*
X020389Y013487D01*
X020772Y013410D02*
X020772Y013333D01*
X021079Y013333D01*
X021079Y013257D02*
X021079Y013410D01*
X021003Y013487D01*
X020849Y013487D01*
X020772Y013410D01*
X020849Y013180D02*
X021003Y013180D01*
X021079Y013257D01*
X021233Y013180D02*
X021463Y013180D01*
X021540Y013257D01*
X021540Y013487D01*
X021693Y013487D02*
X021693Y013257D01*
X021770Y013180D01*
X021847Y013257D01*
X021923Y013180D01*
X022000Y013257D01*
X022000Y013487D01*
X022154Y013410D02*
X022154Y013180D01*
X022384Y013180D01*
X022460Y013257D01*
X022384Y013333D01*
X022154Y013333D01*
X022154Y013410D02*
X022230Y013487D01*
X022384Y013487D01*
X022614Y013564D02*
X022691Y013640D01*
X022844Y013640D01*
X022921Y013564D01*
X022921Y013487D01*
X022844Y013410D01*
X022691Y013410D01*
X022614Y013333D01*
X022614Y013257D01*
X022691Y013180D01*
X022844Y013180D01*
X022921Y013257D01*
X023074Y012890D02*
X023074Y012430D01*
X023228Y012430D02*
X023228Y012660D01*
X023305Y012737D01*
X023535Y012737D01*
X023535Y012430D01*
X023688Y012430D02*
X023688Y012660D01*
X023765Y012737D01*
X023918Y012737D01*
X023995Y012660D01*
X024149Y012660D02*
X024225Y012737D01*
X024379Y012737D01*
X024456Y012660D01*
X024456Y012507D01*
X024379Y012430D01*
X024225Y012430D01*
X024149Y012507D01*
X024149Y012660D01*
X023995Y012890D02*
X023995Y012430D01*
X024609Y012353D02*
X024609Y012737D01*
X024609Y012890D02*
X024609Y012967D01*
X024686Y013180D02*
X024532Y013180D01*
X024456Y013257D01*
X024456Y013410D01*
X024532Y013487D01*
X024686Y013487D01*
X024762Y013410D01*
X024762Y013257D01*
X024686Y013180D01*
X024993Y013257D02*
X024993Y013640D01*
X025069Y013640D02*
X024916Y013640D01*
X024302Y013640D02*
X024302Y013180D01*
X024302Y013410D02*
X024225Y013487D01*
X024072Y013487D01*
X023995Y013410D01*
X023995Y013180D01*
X023842Y013180D02*
X023842Y013487D01*
X023611Y013487D01*
X023535Y013410D01*
X023535Y013180D01*
X023074Y012660D02*
X022998Y012737D01*
X022844Y012737D01*
X022767Y012660D01*
X022767Y012430D01*
X022614Y012430D02*
X022384Y012430D01*
X022307Y012507D01*
X022384Y012583D01*
X022537Y012583D01*
X022614Y012660D01*
X022537Y012737D01*
X022307Y012737D01*
X022077Y012737D02*
X021923Y012737D01*
X021847Y012660D01*
X021847Y012430D01*
X022077Y012430D01*
X022154Y012507D01*
X022077Y012583D01*
X021847Y012583D01*
X021693Y012507D02*
X021693Y012737D01*
X021693Y012507D02*
X021616Y012430D01*
X021540Y012507D01*
X021463Y012430D01*
X021386Y012507D01*
X021386Y012737D01*
X021233Y012737D02*
X021233Y012507D01*
X021156Y012430D01*
X020926Y012430D01*
X021309Y013027D02*
X021386Y013027D01*
X021309Y013027D02*
X021233Y013103D01*
X021233Y013487D01*
X024609Y012353D02*
X024686Y012277D01*
X024762Y012277D01*
X024916Y012507D02*
X024993Y012430D01*
X025146Y012430D01*
X025223Y012507D01*
X025223Y012814D01*
X025146Y012890D01*
X024993Y012890D01*
X024916Y012814D01*
X024916Y012660D01*
X024993Y012583D01*
X024993Y012737D01*
X025146Y012737D01*
X025146Y012583D01*
X024993Y012583D01*
X025069Y013180D02*
X024993Y013257D01*
X025069Y013180D02*
X025146Y013180D01*
X025223Y013257D01*
X018723Y017055D02*
X018723Y017515D01*
X018493Y017515D01*
X018416Y017439D01*
X018416Y017285D01*
X018493Y017208D01*
X018723Y017208D01*
X018569Y017208D02*
X018416Y017055D01*
X018262Y017132D02*
X018186Y017208D01*
X017956Y017208D01*
X017956Y017285D02*
X017956Y017055D01*
X018186Y017055D01*
X018262Y017132D01*
X018186Y017362D02*
X018032Y017362D01*
X017956Y017285D01*
X017802Y017285D02*
X017725Y017362D01*
X017495Y017362D01*
X017342Y017362D02*
X017111Y017362D01*
X017035Y017285D01*
X017035Y017132D01*
X017111Y017055D01*
X017342Y017055D01*
X017342Y016902D02*
X017342Y017362D01*
X017495Y017132D02*
X017572Y017208D01*
X017725Y017208D01*
X017802Y017285D01*
X017802Y017055D02*
X017572Y017055D01*
X017495Y017132D01*
X016881Y017055D02*
X016881Y017515D01*
X016881Y017362D02*
X016651Y017362D01*
X016574Y017285D01*
X016574Y017132D01*
X016651Y017055D01*
X016881Y017055D01*
X016421Y017132D02*
X016421Y017285D01*
X016344Y017362D01*
X016191Y017362D01*
X016114Y017285D01*
X016114Y017208D01*
X016421Y017208D01*
X016421Y017132D02*
X016344Y017055D01*
X016191Y017055D01*
X015960Y017055D02*
X015960Y017362D01*
X015807Y017362D02*
X015960Y017208D01*
X015807Y017362D02*
X015730Y017362D01*
X015577Y017362D02*
X015577Y017055D01*
X015577Y017208D02*
X015423Y017362D01*
X015347Y017362D01*
X015193Y017362D02*
X015193Y017132D01*
X015116Y017055D01*
X014886Y017055D01*
X014886Y016978D02*
X014963Y016902D01*
X015040Y016902D01*
X014886Y016978D02*
X014886Y017362D01*
X014579Y017652D02*
X014503Y017652D01*
X014426Y017728D01*
X014426Y018112D01*
X014656Y018112D01*
X014733Y018035D01*
X014733Y017882D01*
X014656Y017805D01*
X014426Y017805D01*
X014272Y017805D02*
X014272Y018112D01*
X014042Y018112D01*
X013965Y018035D01*
X013965Y017805D01*
X013812Y017882D02*
X013812Y018035D01*
X013735Y018112D01*
X013582Y018112D01*
X013505Y018035D01*
X013505Y017958D01*
X013812Y017958D01*
X013812Y017882D02*
X013735Y017805D01*
X013582Y017805D01*
X013352Y017882D02*
X013352Y018035D01*
X013275Y018112D01*
X013045Y018112D01*
X013045Y018265D02*
X013045Y017805D01*
X013275Y017805D01*
X013352Y017882D01*
X013735Y017592D02*
X013735Y017515D01*
X013735Y017362D02*
X013735Y017055D01*
X013659Y017055D02*
X013812Y017055D01*
X014042Y017208D02*
X014272Y017208D01*
X014272Y017055D02*
X014272Y017515D01*
X014042Y017515D01*
X013965Y017439D01*
X013965Y017285D01*
X014042Y017208D01*
X013812Y017362D02*
X013735Y017362D01*
X013045Y017132D02*
X012968Y017208D01*
X012738Y017208D01*
X012738Y017285D02*
X012738Y017055D01*
X012968Y017055D01*
X013045Y017132D01*
X012968Y017362D02*
X012814Y017362D01*
X012738Y017285D01*
X012584Y017362D02*
X012584Y017055D01*
X012277Y017055D02*
X012277Y017285D01*
X012354Y017362D01*
X012584Y017362D01*
X012124Y017285D02*
X012124Y017132D01*
X012047Y017055D01*
X011817Y017055D01*
X011817Y017515D01*
X011817Y017362D02*
X012047Y017362D01*
X012124Y017285D01*
X012047Y017805D02*
X011894Y017805D01*
X011817Y017882D01*
X011817Y018035D01*
X011894Y018112D01*
X012047Y018112D01*
X012124Y018035D01*
X012124Y017882D01*
X012047Y017805D01*
X012277Y017805D02*
X012354Y017882D01*
X012354Y018189D01*
X012431Y018112D02*
X012277Y018112D01*
X012201Y018555D02*
X012277Y018632D01*
X012201Y018708D01*
X011970Y018708D01*
X011970Y018785D02*
X011970Y018555D01*
X012201Y018555D01*
X012431Y018555D02*
X012431Y018862D01*
X012201Y018862D02*
X012047Y018862D01*
X011970Y018785D01*
X011817Y018708D02*
X011663Y018862D01*
X011587Y018862D01*
X011433Y018785D02*
X011433Y018632D01*
X011357Y018555D01*
X011126Y018555D01*
X011126Y019015D01*
X011126Y018862D02*
X011357Y018862D01*
X011433Y018785D01*
X011817Y018862D02*
X011817Y018555D01*
X012431Y018555D02*
X012661Y018555D01*
X012738Y018632D01*
X012738Y018862D01*
X012891Y018939D02*
X012968Y019015D01*
X013121Y019015D01*
X013198Y018939D01*
X013198Y018632D01*
X013121Y018555D01*
X012968Y018555D01*
X012891Y018632D01*
X012891Y018785D01*
X013045Y018785D01*
X013352Y018785D02*
X013352Y018555D01*
X013352Y018785D02*
X013428Y018862D01*
X013659Y018862D01*
X013659Y018555D01*
X013812Y018555D02*
X013965Y018555D01*
X013889Y018555D02*
X013889Y019015D01*
X013965Y019015D02*
X013812Y019015D01*
X014579Y018785D02*
X014579Y018555D01*
X014579Y018785D02*
X014656Y018862D01*
X014886Y018862D01*
X014886Y018555D01*
X015040Y018555D02*
X015270Y018555D01*
X015347Y018632D01*
X015270Y018708D01*
X015040Y018708D01*
X015040Y018785D02*
X015040Y018555D01*
X014963Y018342D02*
X014963Y018265D01*
X014963Y018112D02*
X014963Y017805D01*
X015040Y017805D02*
X014886Y017805D01*
X015193Y017882D02*
X015270Y017958D01*
X015423Y017958D01*
X015500Y018035D01*
X015423Y018112D01*
X015193Y018112D01*
X015040Y018112D02*
X014963Y018112D01*
X015193Y017882D02*
X015270Y017805D01*
X015500Y017805D01*
X015654Y017958D02*
X015960Y017958D01*
X015960Y017882D02*
X015960Y018035D01*
X015884Y018112D01*
X015730Y018112D01*
X015654Y018035D01*
X015654Y017958D01*
X015730Y017805D02*
X015884Y017805D01*
X015960Y017882D01*
X016114Y017805D02*
X016344Y017805D01*
X016421Y017882D01*
X016421Y018035D01*
X016344Y018112D01*
X016114Y018112D01*
X016114Y018265D02*
X016114Y017805D01*
X017035Y017882D02*
X017111Y017805D01*
X017342Y017805D01*
X017495Y017805D02*
X017649Y017805D01*
X017572Y017805D02*
X017572Y018112D01*
X017649Y018112D01*
X017572Y018265D02*
X017572Y018342D01*
X017649Y018555D02*
X017802Y018555D01*
X017725Y018555D02*
X017725Y018862D01*
X017802Y018862D01*
X017725Y019015D02*
X017725Y019092D01*
X017418Y018862D02*
X017188Y018862D01*
X017265Y018708D02*
X017418Y018708D01*
X017495Y018785D01*
X017418Y018862D01*
X017265Y018708D02*
X017188Y018632D01*
X017265Y018555D01*
X017495Y018555D01*
X017956Y018555D02*
X017956Y018785D01*
X018032Y018862D01*
X018186Y018862D01*
X018262Y018785D01*
X018262Y019015D02*
X018262Y018555D01*
X018569Y018555D02*
X018569Y019015D01*
X018416Y019015D02*
X018723Y019015D01*
X018723Y018265D02*
X018569Y018265D01*
X018646Y018265D02*
X018646Y017805D01*
X018723Y017805D02*
X018569Y017805D01*
X018339Y017882D02*
X018262Y017805D01*
X018339Y017882D02*
X018339Y018189D01*
X018416Y018112D02*
X018262Y018112D01*
X017342Y018035D02*
X017265Y018112D01*
X017035Y018112D01*
X017111Y017958D02*
X017265Y017958D01*
X017342Y018035D01*
X017111Y017958D02*
X017035Y017882D01*
X016574Y018555D02*
X016421Y018555D01*
X016498Y018555D02*
X016498Y018862D01*
X016574Y018862D01*
X016498Y019015D02*
X016498Y019092D01*
X016191Y018862D02*
X016267Y018785D01*
X016191Y018708D01*
X016037Y018708D01*
X015960Y018632D01*
X016037Y018555D01*
X016267Y018555D01*
X016191Y018862D02*
X015960Y018862D01*
X015270Y018862D02*
X015116Y018862D01*
X015040Y018785D01*
X011203Y018112D02*
X011126Y018112D01*
X011126Y017805D01*
X011050Y017805D02*
X011203Y017805D01*
X010896Y017805D02*
X010896Y018112D01*
X010666Y018112D01*
X010589Y018035D01*
X010589Y017805D01*
X010359Y017882D02*
X010282Y017805D01*
X010359Y017882D02*
X010359Y018189D01*
X010436Y018112D02*
X010282Y018112D01*
X010129Y018035D02*
X010052Y018112D01*
X009899Y018112D01*
X009822Y018035D01*
X009822Y017958D01*
X010129Y017958D01*
X010129Y017882D02*
X010129Y018035D01*
X010129Y017882D02*
X010052Y017805D01*
X009899Y017805D01*
X009668Y017882D02*
X009592Y017805D01*
X009362Y017805D01*
X009362Y017728D02*
X009362Y018112D01*
X009592Y018112D01*
X009668Y018035D01*
X009668Y017882D01*
X009515Y017652D02*
X009438Y017652D01*
X009362Y017728D01*
X009208Y017805D02*
X009208Y018112D01*
X009055Y018112D02*
X008978Y018112D01*
X009055Y018112D02*
X009208Y017958D01*
X008824Y017882D02*
X008748Y017805D01*
X008517Y017805D01*
X008517Y018035D01*
X008594Y018112D01*
X008748Y018112D01*
X008748Y017958D02*
X008517Y017958D01*
X008364Y018112D02*
X008211Y018112D01*
X008287Y018189D02*
X008287Y017882D01*
X008211Y017805D01*
X008057Y017882D02*
X007980Y017805D01*
X007827Y017805D01*
X007750Y017958D02*
X008057Y017958D01*
X008057Y017882D02*
X008057Y018035D01*
X007980Y018112D01*
X007827Y018112D01*
X007750Y018035D01*
X007750Y017958D01*
X007827Y017592D02*
X007827Y017515D01*
X007827Y017362D02*
X007827Y017055D01*
X007904Y017055D02*
X007750Y017055D01*
X007597Y017055D02*
X007597Y017362D01*
X007366Y017362D01*
X007290Y017285D01*
X007290Y017055D01*
X007136Y017132D02*
X007136Y017285D01*
X007060Y017362D01*
X006829Y017362D01*
X006829Y016978D01*
X006906Y016902D01*
X006983Y016902D01*
X007060Y017055D02*
X006829Y017055D01*
X006676Y017055D02*
X006446Y017055D01*
X006369Y017132D01*
X006446Y017208D01*
X006599Y017208D01*
X006676Y017285D01*
X006599Y017362D01*
X006369Y017362D01*
X006216Y017132D02*
X006139Y017132D01*
X006139Y017055D01*
X006216Y017055D01*
X006216Y017132D01*
X007060Y017055D02*
X007136Y017132D01*
X007827Y017362D02*
X007904Y017362D01*
X008057Y017285D02*
X008057Y017055D01*
X008057Y017285D02*
X008134Y017362D01*
X008287Y017362D01*
X008364Y017285D01*
X008517Y017362D02*
X008671Y017362D01*
X008594Y017439D02*
X008594Y017132D01*
X008517Y017055D01*
X008364Y017055D02*
X008364Y017515D01*
X008748Y017958D02*
X008824Y017882D01*
X008364Y018402D02*
X008364Y018862D01*
X008134Y018862D01*
X008057Y018785D01*
X008057Y018632D01*
X008134Y018555D01*
X008364Y018555D01*
X008517Y018632D02*
X008594Y018555D01*
X008748Y018555D01*
X008824Y018632D01*
X008748Y018785D02*
X008594Y018785D01*
X008517Y018708D01*
X008517Y018632D01*
X008748Y018785D02*
X008824Y018862D01*
X008824Y018939D01*
X008748Y019015D01*
X008594Y019015D01*
X008517Y018939D01*
X007904Y018632D02*
X007827Y018708D01*
X007597Y018708D01*
X007597Y018785D02*
X007597Y018555D01*
X007827Y018555D01*
X007904Y018632D01*
X007827Y018862D02*
X007673Y018862D01*
X007597Y018785D01*
X007443Y018708D02*
X007290Y018862D01*
X007213Y018862D01*
X007060Y018862D02*
X007060Y018555D01*
X007060Y018708D02*
X006906Y018862D01*
X006829Y018862D01*
X006676Y018862D02*
X006599Y018862D01*
X006599Y018555D01*
X006676Y018555D02*
X006522Y018555D01*
X006369Y018555D02*
X006369Y018862D01*
X006139Y018862D01*
X006062Y018785D01*
X006062Y018555D01*
X005909Y018632D02*
X005832Y018555D01*
X005602Y018555D01*
X005602Y018478D02*
X005602Y018862D01*
X005832Y018862D01*
X005909Y018785D01*
X005909Y018632D01*
X005755Y018402D02*
X005678Y018402D01*
X005602Y018478D01*
X005832Y018112D02*
X005755Y018035D01*
X005755Y017805D01*
X006062Y017805D02*
X006062Y018265D01*
X005985Y018112D02*
X005832Y018112D01*
X005985Y018112D02*
X006062Y018035D01*
X006216Y018112D02*
X006369Y018112D01*
X006292Y018189D02*
X006292Y017882D01*
X006216Y017805D01*
X006522Y017805D02*
X006676Y017805D01*
X006599Y017805D02*
X006599Y018112D01*
X006676Y018112D01*
X006829Y018112D02*
X006829Y017882D01*
X006906Y017805D01*
X006983Y017882D01*
X007060Y017805D01*
X007136Y017882D01*
X007136Y018112D01*
X006599Y018265D02*
X006599Y018342D01*
X007443Y018555D02*
X007443Y018862D01*
X006599Y019015D02*
X006599Y019092D01*
X004988Y019015D02*
X004988Y018555D01*
X004758Y018555D01*
X004681Y018632D01*
X004681Y018708D01*
X004758Y018785D01*
X004988Y018785D01*
X004988Y019015D02*
X004758Y019015D01*
X004681Y018939D01*
X004681Y018862D01*
X004758Y018785D01*
X004527Y018785D02*
X004527Y018632D01*
X004451Y018555D01*
X004297Y018555D01*
X004220Y018632D01*
X004220Y018785D01*
X004297Y018862D01*
X004451Y018862D01*
X004527Y018785D01*
X004067Y018632D02*
X003990Y018708D01*
X003760Y018708D01*
X003760Y018785D02*
X003760Y018555D01*
X003990Y018555D01*
X004067Y018632D01*
X003990Y018862D02*
X003837Y018862D01*
X003760Y018785D01*
X003607Y018708D02*
X003453Y018862D01*
X003376Y018862D01*
X003223Y018785D02*
X003223Y018632D01*
X003146Y018555D01*
X002916Y018555D01*
X002916Y019015D01*
X002916Y018862D02*
X003146Y018862D01*
X003223Y018785D01*
X003607Y018862D02*
X003607Y018555D01*
X002763Y018555D02*
X002686Y018555D01*
X002686Y018632D01*
X002763Y018632D01*
X002763Y018555D01*
X004834Y018035D02*
X004834Y017805D01*
X005065Y017805D01*
X005141Y017882D01*
X005065Y017958D01*
X004834Y017958D01*
X004834Y018035D02*
X004911Y018112D01*
X005065Y018112D01*
X009285Y017362D02*
X009362Y017362D01*
X009515Y017208D01*
X009515Y017055D02*
X009515Y017362D01*
X009668Y017285D02*
X009668Y017208D01*
X009975Y017208D01*
X009975Y017132D02*
X009975Y017285D01*
X009899Y017362D01*
X009745Y017362D01*
X009668Y017285D01*
X009745Y017055D02*
X009899Y017055D01*
X009975Y017132D01*
X010129Y017055D02*
X010129Y017285D01*
X010206Y017362D01*
X010359Y017362D01*
X010436Y017285D01*
X010589Y017362D02*
X010743Y017362D01*
X010666Y017439D02*
X010666Y017132D01*
X010589Y017055D01*
X010436Y017055D02*
X010436Y017515D01*
X010896Y017285D02*
X010896Y017132D01*
X010973Y017055D01*
X011126Y017055D01*
X011203Y017132D01*
X011203Y017285D01*
X011126Y017362D01*
X010973Y017362D01*
X010896Y017285D01*
X011126Y018265D02*
X011126Y018342D01*
X010973Y018555D02*
X010819Y018555D01*
X010896Y018555D02*
X010896Y018862D01*
X010973Y018862D01*
X010896Y019015D02*
X010896Y019092D01*
X010589Y018862D02*
X010436Y018862D01*
X010359Y018785D01*
X010359Y018555D01*
X010589Y018555D01*
X010666Y018632D01*
X010589Y018708D01*
X010359Y018708D01*
X010206Y018555D02*
X010206Y018862D01*
X009975Y018862D01*
X009899Y018785D01*
X009899Y018555D01*
X009745Y018555D02*
X009515Y018555D01*
X009438Y018632D01*
X009515Y018708D01*
X009668Y018708D01*
X009745Y018785D01*
X009668Y018862D01*
X009438Y018862D01*
X007109Y013092D02*
X007109Y013015D01*
X007109Y012862D02*
X007109Y012555D01*
X007186Y012555D02*
X007032Y012555D01*
X006879Y012632D02*
X006802Y012555D01*
X006572Y012555D01*
X006879Y012632D02*
X006879Y012785D01*
X006802Y012862D01*
X006572Y012862D01*
X007109Y012862D02*
X007186Y012862D01*
X007339Y012862D02*
X007569Y012862D01*
X007646Y012785D01*
X007569Y012708D01*
X007416Y012708D01*
X007339Y012632D01*
X007416Y012555D01*
X007646Y012555D01*
X007800Y012555D02*
X008030Y012555D01*
X008107Y012632D01*
X008030Y012708D01*
X007800Y012708D01*
X007800Y012785D02*
X007800Y012555D01*
X007800Y012785D02*
X007876Y012862D01*
X008030Y012862D01*
X008260Y012785D02*
X008337Y012862D01*
X008567Y012862D01*
X008567Y013015D02*
X008567Y012555D01*
X008337Y012555D01*
X008260Y012632D01*
X008260Y012785D01*
X008490Y012265D02*
X008490Y011805D01*
X008720Y011805D01*
X008797Y011882D01*
X008797Y012035D01*
X008720Y012112D01*
X008490Y012112D01*
X008337Y012035D02*
X008260Y012112D01*
X008107Y012112D01*
X008030Y012035D01*
X008030Y011958D01*
X008337Y011958D01*
X008337Y011882D02*
X008337Y012035D01*
X008337Y011882D02*
X008260Y011805D01*
X008107Y011805D01*
X007876Y012112D02*
X007723Y011805D01*
X007569Y012112D01*
X007416Y012112D02*
X007339Y012112D01*
X007339Y011805D01*
X007263Y011805D02*
X007416Y011805D01*
X007109Y011882D02*
X007109Y012035D01*
X007032Y012112D01*
X006802Y012112D01*
X006649Y012035D02*
X006572Y012112D01*
X006418Y012112D01*
X006342Y012035D01*
X006342Y011958D01*
X006649Y011958D01*
X006649Y011882D02*
X006649Y012035D01*
X006649Y011882D02*
X006572Y011805D01*
X006418Y011805D01*
X006188Y011805D02*
X005958Y011805D01*
X005881Y011882D01*
X005958Y011958D01*
X006112Y011958D01*
X006188Y012035D01*
X006112Y012112D01*
X005881Y012112D01*
X005651Y011882D02*
X005651Y011805D01*
X005574Y011805D01*
X005574Y011882D01*
X005651Y011882D01*
X005574Y011805D02*
X005728Y011652D01*
X004961Y011805D02*
X004961Y012112D01*
X004961Y011958D02*
X004807Y012112D01*
X004730Y012112D01*
X004577Y012112D02*
X004577Y011882D01*
X004500Y011805D01*
X004270Y011805D01*
X004270Y012112D01*
X004116Y012265D02*
X004040Y012265D01*
X004040Y011805D01*
X004116Y011805D02*
X003963Y011805D01*
X003810Y011882D02*
X003810Y012035D01*
X003733Y012112D01*
X003579Y012112D01*
X003503Y012035D01*
X003503Y011958D01*
X003810Y011958D01*
X003810Y011882D02*
X003733Y011805D01*
X003579Y011805D01*
X003349Y011805D02*
X003119Y011805D01*
X003042Y011882D01*
X003119Y011958D01*
X003272Y011958D01*
X003349Y012035D01*
X003272Y012112D01*
X003042Y012112D01*
X002966Y012555D02*
X002735Y012555D01*
X002659Y012632D01*
X002735Y012708D01*
X002889Y012708D01*
X002966Y012785D01*
X002889Y012862D01*
X002659Y012862D01*
X003119Y012785D02*
X003119Y012555D01*
X003349Y012555D01*
X003426Y012632D01*
X003349Y012708D01*
X003119Y012708D01*
X003119Y012785D02*
X003196Y012862D01*
X003349Y012862D01*
X004040Y012862D02*
X004270Y012862D01*
X004347Y012785D01*
X004270Y012708D01*
X004116Y012708D01*
X004040Y012632D01*
X004116Y012555D01*
X004347Y012555D01*
X004500Y012708D02*
X004807Y012708D01*
X004807Y012632D02*
X004807Y012785D01*
X004730Y012862D01*
X004577Y012862D01*
X004500Y012785D01*
X004500Y012708D01*
X004577Y012555D02*
X004730Y012555D01*
X004807Y012632D01*
X004961Y012555D02*
X005114Y012555D01*
X005037Y012555D02*
X005037Y013015D01*
X005114Y013015D01*
X005267Y012862D02*
X005267Y012555D01*
X005498Y012555D01*
X005574Y012632D01*
X005574Y012862D01*
X005728Y012862D02*
X005805Y012862D01*
X005958Y012708D01*
X005958Y012555D02*
X005958Y012862D01*
X007339Y012342D02*
X007339Y012265D01*
X007109Y011882D02*
X007032Y011805D01*
X006802Y011805D01*
X031888Y011785D02*
X032348Y011785D01*
X032348Y011709D02*
X032348Y011862D01*
X032195Y012015D02*
X032195Y012246D01*
X032118Y012322D01*
X031888Y012322D01*
X031965Y012476D02*
X031888Y012553D01*
X031888Y012706D01*
X031965Y012783D01*
X032118Y012783D01*
X032118Y012629D01*
X032271Y012476D02*
X031965Y012476D01*
X032271Y012476D02*
X032348Y012553D01*
X032348Y012706D01*
X032271Y012783D01*
X032195Y012936D02*
X031965Y012936D01*
X031888Y013013D01*
X031888Y013243D01*
X032195Y013243D01*
X032195Y013473D02*
X032195Y013627D01*
X032118Y013704D01*
X031888Y013704D01*
X031888Y013473D01*
X031965Y013397D01*
X032041Y013473D01*
X032041Y013704D01*
X032041Y013857D02*
X032195Y014010D01*
X032195Y014087D01*
X032118Y014241D02*
X032195Y014317D01*
X032195Y014548D01*
X032195Y014701D02*
X032195Y014778D01*
X031888Y014778D01*
X031888Y014701D02*
X031888Y014855D01*
X031965Y015008D02*
X032041Y015085D01*
X032041Y015315D01*
X032118Y015315D02*
X031888Y015315D01*
X031888Y015085D01*
X031965Y015008D01*
X032195Y015085D02*
X032195Y015238D01*
X032118Y015315D01*
X032195Y015468D02*
X032195Y015699D01*
X032118Y015775D01*
X031888Y015775D01*
X031888Y015929D02*
X031888Y016159D01*
X031965Y016236D01*
X032041Y016159D01*
X032041Y016006D01*
X032118Y015929D01*
X032195Y016006D01*
X032195Y016236D01*
X032638Y016312D02*
X032945Y016466D01*
X032945Y016619D02*
X032945Y016696D01*
X032638Y016696D01*
X032638Y016619D02*
X032638Y016773D01*
X032715Y016926D02*
X032868Y016926D01*
X032945Y017003D01*
X032945Y017233D01*
X033098Y017233D02*
X032638Y017233D01*
X032638Y017003D01*
X032715Y016926D01*
X032348Y016850D02*
X032348Y017080D01*
X032271Y017156D01*
X032118Y017156D01*
X032041Y017080D01*
X032041Y016850D01*
X031888Y016850D02*
X032348Y016850D01*
X032195Y017310D02*
X031965Y017310D01*
X031888Y017387D01*
X031965Y017463D01*
X031888Y017540D01*
X031965Y017617D01*
X032195Y017617D01*
X032195Y017770D02*
X032195Y018001D01*
X032118Y018077D01*
X031888Y018077D01*
X031965Y018231D02*
X032118Y018231D01*
X032195Y018307D01*
X032195Y018461D01*
X032118Y018538D01*
X032041Y018538D01*
X032041Y018231D01*
X031965Y018231D02*
X031888Y018307D01*
X031888Y018461D01*
X031965Y018691D02*
X032118Y018691D01*
X032195Y018768D01*
X032195Y018998D01*
X032348Y018998D02*
X031888Y018998D01*
X031888Y018768D01*
X031965Y018691D01*
X031965Y019152D02*
X031888Y019152D01*
X032118Y019152D02*
X032425Y019152D01*
X032638Y018461D02*
X032638Y018384D01*
X032715Y018384D01*
X032715Y018461D01*
X032638Y018461D01*
X032484Y018307D01*
X032638Y018154D02*
X032638Y017924D01*
X032715Y017847D01*
X032868Y017847D01*
X032945Y017924D01*
X032945Y018154D01*
X033098Y018154D02*
X032638Y018154D01*
X032791Y017694D02*
X032791Y017387D01*
X032715Y017387D02*
X032868Y017387D01*
X032945Y017463D01*
X032945Y017617D01*
X032868Y017694D01*
X032791Y017694D01*
X032638Y017617D02*
X032638Y017463D01*
X032715Y017387D01*
X032195Y017770D02*
X031888Y017770D01*
X033098Y016696D02*
X033175Y016696D01*
X032945Y016159D02*
X032638Y016312D01*
X032715Y016006D02*
X032868Y016006D01*
X032945Y015929D01*
X032945Y015775D01*
X032868Y015699D01*
X032715Y015699D01*
X032638Y015775D01*
X032638Y015929D01*
X032715Y016006D01*
X032945Y015545D02*
X032945Y015468D01*
X032791Y015315D01*
X032638Y015315D02*
X032945Y015315D01*
X033021Y015161D02*
X032868Y015161D01*
X032791Y015085D01*
X032791Y014855D01*
X032638Y014855D02*
X033098Y014855D01*
X033098Y015085D01*
X033021Y015161D01*
X032425Y014778D02*
X032348Y014778D01*
X032348Y014548D02*
X031888Y014548D01*
X031888Y014317D01*
X031965Y014241D01*
X032118Y014241D01*
X032195Y013857D02*
X031888Y013857D01*
X032638Y013780D02*
X032638Y013627D01*
X032715Y013550D01*
X032868Y013550D01*
X032945Y013627D01*
X032945Y013780D01*
X032868Y013857D01*
X032715Y013857D01*
X032638Y013780D01*
X032638Y014010D02*
X032945Y014010D01*
X032791Y014010D02*
X032945Y014164D01*
X032945Y014241D01*
X032945Y013397D02*
X032945Y013166D01*
X032868Y013090D01*
X032715Y013090D01*
X032638Y013166D01*
X032638Y013397D01*
X033098Y013397D01*
X032868Y012936D02*
X032638Y012936D01*
X032868Y012936D02*
X032945Y012859D01*
X032945Y012629D01*
X032638Y012629D01*
X032791Y012476D02*
X032791Y012169D01*
X032715Y012169D02*
X032868Y012169D01*
X032945Y012246D01*
X032945Y012399D01*
X032868Y012476D01*
X032791Y012476D01*
X032638Y012399D02*
X032638Y012246D01*
X032715Y012169D01*
X032791Y012015D02*
X033098Y012015D01*
X033098Y011709D02*
X032791Y011709D01*
X032638Y011862D01*
X032791Y012015D01*
X032195Y012015D02*
X031888Y012015D01*
X031888Y011862D02*
X031888Y011709D01*
X031888Y015468D02*
X032195Y015468D01*
D11*
X029958Y020945D02*
X029694Y020945D01*
X029826Y020945D02*
X029826Y021736D01*
X029958Y021736D02*
X029694Y021736D01*
X029430Y021472D02*
X029035Y021472D01*
X028903Y021340D01*
X028903Y020945D01*
X028638Y021077D02*
X028506Y020945D01*
X028243Y020945D01*
X028111Y021077D01*
X028111Y021340D01*
X028374Y021340D01*
X028111Y021604D02*
X028243Y021736D01*
X028506Y021736D01*
X028638Y021604D01*
X028638Y021077D01*
X029430Y020945D02*
X029430Y021472D01*
X027846Y021472D02*
X027846Y021077D01*
X027714Y020945D01*
X027319Y020945D01*
X027319Y021472D01*
X026923Y021472D02*
X026659Y021472D01*
X026527Y021340D01*
X026527Y020945D01*
X026923Y020945D01*
X027054Y021077D01*
X026923Y021209D01*
X026527Y021209D01*
X026262Y021209D02*
X025999Y021472D01*
X025867Y021472D01*
X025603Y021340D02*
X025603Y021077D01*
X025471Y020945D01*
X025075Y020945D01*
X025075Y021736D01*
X025075Y021472D02*
X025471Y021472D01*
X025603Y021340D01*
X026262Y021472D02*
X026262Y020945D01*
X024811Y020945D02*
X024547Y020945D01*
X024679Y020945D02*
X024679Y021472D01*
X024811Y021472D01*
X024679Y021736D02*
X024679Y021867D01*
X024151Y021472D02*
X023887Y021472D01*
X023756Y021340D01*
X023756Y020945D01*
X024151Y020945D01*
X024283Y021077D01*
X024151Y021209D01*
X023756Y021209D01*
X023491Y021472D02*
X023491Y020945D01*
X022964Y020945D02*
X022964Y021340D01*
X023096Y021472D01*
X023491Y021472D01*
X022699Y021340D02*
X022567Y021209D01*
X022304Y021209D01*
X022172Y021077D01*
X022304Y020945D01*
X022699Y020945D01*
X022699Y021340D02*
X022567Y021472D01*
X022172Y021472D01*
X021775Y021077D02*
X021775Y020945D01*
X021644Y020945D01*
X021644Y021077D01*
X021775Y021077D01*
X021644Y020945D02*
X021907Y020681D01*
X020587Y020945D02*
X020324Y020945D01*
X020456Y020945D02*
X020456Y021736D01*
X020587Y021736D02*
X020324Y021736D01*
X020059Y021472D02*
X019664Y021472D01*
X019532Y021340D01*
X019532Y020945D01*
X019268Y021077D02*
X019136Y020945D01*
X018740Y020945D01*
X018476Y020945D02*
X018344Y020945D01*
X018344Y021077D01*
X018476Y021077D01*
X018476Y020945D01*
X018740Y021472D02*
X019136Y021472D01*
X019268Y021340D01*
X019268Y021077D01*
X020059Y020945D02*
X020059Y021472D01*
D12*
X022493Y007740D03*
X027833Y003010D03*
D13*
X027823Y003020D03*
X027203Y003410D03*
X027193Y003420D03*
X027183Y003430D03*
X026923Y003990D03*
X023403Y006760D03*
X023143Y007320D03*
X023133Y007330D03*
X023123Y007340D03*
X022503Y007730D03*
D14*
X022508Y007720D03*
X023028Y007420D03*
X027298Y003330D03*
X027818Y003030D03*
D15*
X027813Y003040D03*
X027383Y003270D03*
X027363Y003280D03*
X026933Y003970D03*
X023393Y006780D03*
X022963Y007470D03*
X022943Y007480D03*
X022513Y007710D03*
D16*
X022528Y007700D03*
X022908Y007500D03*
X023218Y007290D03*
X023388Y006790D03*
X026938Y003960D03*
X027108Y003460D03*
X027418Y003250D03*
X027798Y003050D03*
D17*
X027788Y003060D03*
X027458Y003230D03*
X027078Y003480D03*
X026938Y003950D03*
X023388Y006800D03*
X023248Y007270D03*
X022868Y007520D03*
X022538Y007690D03*
D18*
X022548Y007680D03*
X022838Y007530D03*
X027488Y003220D03*
X027778Y003070D03*
D19*
X027763Y003080D03*
X027533Y003200D03*
X027053Y003510D03*
X026953Y003920D03*
X023373Y006830D03*
X023273Y007240D03*
X022793Y007550D03*
X022563Y007670D03*
D20*
X022573Y007660D03*
X023273Y007230D03*
X023373Y006840D03*
X026953Y003910D03*
X027053Y003520D03*
X027753Y003090D03*
D21*
X027738Y003100D03*
X027058Y003530D03*
X026958Y003900D03*
X023368Y006850D03*
X023268Y007220D03*
X022588Y007650D03*
D22*
X022598Y007640D03*
X027728Y003110D03*
D23*
X027713Y003120D03*
X027613Y003170D03*
X027053Y003550D03*
X026963Y003880D03*
X023363Y006870D03*
X023273Y007200D03*
X022713Y007580D03*
X022613Y007630D03*
D24*
X022623Y007620D03*
X022663Y007600D03*
X023353Y006890D03*
X026973Y003860D03*
X027663Y003150D03*
X027703Y003130D03*
D25*
X027688Y003140D03*
X027048Y003570D03*
X026978Y003840D03*
X026978Y003850D03*
X023348Y006900D03*
X023348Y006910D03*
X023278Y007180D03*
X022638Y007610D03*
D26*
X022688Y007590D03*
X023278Y007190D03*
X023358Y006880D03*
X026968Y003870D03*
X027048Y003560D03*
X027638Y003160D03*
D27*
X027583Y003180D03*
X027053Y003540D03*
X026963Y003890D03*
X023363Y006860D03*
X023273Y007210D03*
X022743Y007570D03*
D28*
X022768Y007560D03*
X027558Y003190D03*
D29*
X027503Y003210D03*
X027063Y003500D03*
X023263Y007250D03*
X022823Y007540D03*
D30*
X022883Y007510D03*
X023233Y007280D03*
X027093Y003470D03*
X027443Y003240D03*
D31*
X027398Y003260D03*
X027128Y003450D03*
X023198Y007300D03*
X022928Y007490D03*
D32*
X022978Y007460D03*
X022988Y007450D03*
X027338Y003300D03*
X027348Y003290D03*
D33*
X027323Y003310D03*
X027313Y003320D03*
X023013Y007430D03*
X023003Y007440D03*
D34*
X023043Y007410D03*
X023053Y007400D03*
X023403Y006770D03*
X026923Y003980D03*
X027273Y003350D03*
X027283Y003340D03*
D35*
X027258Y003360D03*
X027248Y003370D03*
X023078Y007380D03*
X023068Y007390D03*
D36*
X023093Y007370D03*
X023103Y007360D03*
X027223Y003390D03*
X027233Y003380D03*
D37*
X027208Y003400D03*
X023118Y007350D03*
D38*
X023148Y007310D03*
X027178Y003440D03*
D39*
X027073Y003490D03*
X026943Y003940D03*
X023383Y006810D03*
X023253Y007260D03*
D40*
X023283Y007170D03*
X023283Y007160D03*
X023343Y006920D03*
X026983Y003830D03*
X027043Y003590D03*
X027043Y003580D03*
D41*
X027038Y003600D03*
X026988Y003810D03*
X026988Y003820D03*
X023338Y006930D03*
X023338Y006940D03*
X023288Y007150D03*
D42*
X023283Y007140D03*
X023333Y006950D03*
X026993Y003800D03*
X027043Y003610D03*
D43*
X027038Y003620D03*
X027038Y003630D03*
X026998Y003780D03*
X026998Y003790D03*
X023328Y006960D03*
X023328Y006970D03*
X023288Y007120D03*
X023288Y007130D03*
D44*
X023293Y007110D03*
X023293Y007100D03*
X023303Y007090D03*
X023303Y007080D03*
X023303Y007070D03*
X023323Y006990D03*
X023323Y006980D03*
X027003Y003770D03*
X027003Y003760D03*
X027023Y003680D03*
X027023Y003670D03*
X027023Y003660D03*
X027033Y003650D03*
X027033Y003640D03*
D45*
X027018Y003690D03*
X027018Y003700D03*
X027018Y003710D03*
X027008Y003730D03*
X027008Y003740D03*
X027008Y003750D03*
X023318Y007000D03*
X023318Y007010D03*
X023318Y007020D03*
X023308Y007040D03*
X023308Y007050D03*
X023308Y007060D03*
D46*
X023313Y007030D03*
X027013Y003720D03*
D47*
X026948Y003930D03*
X023378Y006820D03*
D48*
X026583Y005910D03*
X029373Y009700D03*
X026603Y013480D03*
D49*
X026593Y013470D03*
X026203Y012850D03*
X026193Y012840D03*
X026183Y012830D03*
X025623Y012570D03*
X029363Y009690D03*
X028973Y009070D03*
X028963Y009060D03*
X028953Y009050D03*
X028393Y008790D03*
X026573Y005900D03*
X026183Y005280D03*
X026173Y005270D03*
X026163Y005260D03*
X025603Y005000D03*
D50*
X026263Y005375D03*
X026563Y005895D03*
X029053Y009165D03*
X029353Y009685D03*
X026283Y012945D03*
X026583Y013465D03*
D51*
X026573Y013460D03*
X026343Y013030D03*
X026333Y013010D03*
X025643Y012580D03*
X029343Y009680D03*
X029113Y009250D03*
X029103Y009230D03*
X028413Y008800D03*
X026553Y005890D03*
X026323Y005460D03*
X026313Y005440D03*
X025623Y005010D03*
D52*
X025633Y005015D03*
X026133Y005185D03*
X026343Y005495D03*
X026543Y005875D03*
X028423Y008805D03*
X028923Y008975D03*
X029133Y009285D03*
X029333Y009665D03*
X025653Y012585D03*
X026153Y012755D03*
X026363Y013065D03*
X026563Y013445D03*
D53*
X026553Y013435D03*
X026383Y013105D03*
X026133Y012725D03*
X025663Y012585D03*
X029323Y009655D03*
X029153Y009325D03*
X028903Y008945D03*
X028433Y008805D03*
X026533Y005865D03*
X026363Y005535D03*
X026113Y005155D03*
X025643Y005015D03*
D54*
X026373Y005565D03*
X026523Y005855D03*
X029163Y009355D03*
X029313Y009645D03*
X026393Y013135D03*
X026543Y013425D03*
D55*
X026533Y013410D03*
X026413Y013180D03*
X026103Y012700D03*
X025693Y012600D03*
X029303Y009630D03*
X029183Y009400D03*
X028873Y008920D03*
X028463Y008820D03*
X026513Y005840D03*
X026393Y005610D03*
X026083Y005130D03*
X025673Y005030D03*
D56*
X025683Y005030D03*
X026073Y005130D03*
X026503Y005830D03*
X028473Y008820D03*
X028863Y008920D03*
X029293Y009620D03*
X026093Y012700D03*
X025703Y012600D03*
X026523Y013400D03*
D57*
X026513Y013385D03*
X026083Y012705D03*
X025713Y012605D03*
X029283Y009605D03*
X028853Y008925D03*
X028483Y008825D03*
X026493Y005815D03*
X026063Y005135D03*
X025693Y005035D03*
D58*
X026483Y005805D03*
X029273Y009595D03*
X026503Y013375D03*
D59*
X026493Y013360D03*
X026443Y013260D03*
X026063Y012700D03*
X025733Y012610D03*
X029263Y009580D03*
X029213Y009480D03*
X028833Y008920D03*
X028503Y008830D03*
X026473Y005790D03*
X026423Y005690D03*
X026043Y005130D03*
X025713Y005040D03*
D60*
X025733Y005050D03*
X026443Y005740D03*
X026463Y005780D03*
X028523Y008840D03*
X029233Y009530D03*
X029253Y009570D03*
X025753Y012620D03*
X026463Y013310D03*
X026483Y013350D03*
D61*
X026473Y013335D03*
X026043Y012695D03*
X025773Y012625D03*
X025763Y012625D03*
X029243Y009555D03*
X028813Y008915D03*
X028543Y008845D03*
X028533Y008845D03*
X026453Y005765D03*
X026023Y005125D03*
X025753Y005055D03*
X025743Y005055D03*
D62*
X025723Y005045D03*
X026033Y005125D03*
X026433Y005715D03*
X028513Y008835D03*
X028823Y008915D03*
X029223Y009505D03*
X026053Y012695D03*
X025743Y012615D03*
X026453Y013285D03*
D63*
X026433Y013230D03*
X026073Y012700D03*
X025723Y012610D03*
X029203Y009450D03*
X028843Y008920D03*
X028493Y008830D03*
X026413Y005660D03*
X026053Y005130D03*
X025703Y005040D03*
D64*
X026403Y005635D03*
X029193Y009425D03*
X026423Y013205D03*
D65*
X026403Y013150D03*
X026113Y012710D03*
X029173Y009370D03*
X028883Y008930D03*
X026383Y005580D03*
X026093Y005140D03*
D66*
X026123Y005170D03*
X026353Y005520D03*
X028913Y008960D03*
X029143Y009310D03*
X026143Y012740D03*
X026373Y013090D03*
D67*
X026353Y013045D03*
X026163Y012775D03*
X029123Y009265D03*
X028933Y008995D03*
X026333Y005475D03*
X026143Y005205D03*
D68*
X026293Y005415D03*
X026303Y005425D03*
X029083Y009205D03*
X029093Y009215D03*
X026313Y012985D03*
X026323Y012995D03*
D69*
X026303Y012970D03*
X026293Y012960D03*
X029073Y009190D03*
X029063Y009180D03*
X026283Y005400D03*
X026273Y005390D03*
D70*
X026253Y005360D03*
X026243Y005350D03*
X025613Y005000D03*
X028403Y008790D03*
X029033Y009140D03*
X029043Y009150D03*
X025633Y012570D03*
X026263Y012920D03*
X026273Y012930D03*
D71*
X026253Y012905D03*
X026243Y012895D03*
X029023Y009125D03*
X029013Y009115D03*
X026233Y005335D03*
X026223Y005325D03*
D72*
X026213Y005310D03*
X026203Y005300D03*
X028993Y009090D03*
X029003Y009100D03*
X026223Y012870D03*
X026233Y012880D03*
D73*
X026213Y012855D03*
X028983Y009075D03*
X026193Y005285D03*
D74*
X026153Y005255D03*
X028943Y009045D03*
X026173Y012825D03*
D75*
X026123Y012720D03*
X025673Y012590D03*
X028893Y008940D03*
X028443Y008810D03*
X026103Y005150D03*
X025653Y005020D03*
D76*
X025763Y005060D03*
X026003Y005120D03*
X026013Y005120D03*
X028553Y008850D03*
X028793Y008910D03*
X028803Y008910D03*
X026033Y012690D03*
X026023Y012690D03*
X025783Y012630D03*
D77*
X025793Y012635D03*
X025803Y012635D03*
X026013Y012685D03*
X028563Y008855D03*
X028573Y008855D03*
X028783Y008905D03*
X025993Y005115D03*
X025783Y005065D03*
X025773Y005065D03*
D78*
X025793Y005070D03*
X025983Y005120D03*
X028583Y008860D03*
X028773Y008910D03*
X026003Y012690D03*
X025813Y012640D03*
D79*
X025823Y012645D03*
X025833Y012645D03*
X025983Y012685D03*
X025993Y012685D03*
X028593Y008865D03*
X028603Y008865D03*
X028753Y008905D03*
X028763Y008905D03*
X025973Y005115D03*
X025963Y005115D03*
X025813Y005075D03*
X025803Y005075D03*
D80*
X025823Y005080D03*
X025833Y005080D03*
X025913Y005100D03*
X025923Y005100D03*
X025933Y005100D03*
X025943Y005110D03*
X025953Y005110D03*
X028613Y008870D03*
X028623Y008870D03*
X028703Y008890D03*
X028713Y008890D03*
X028723Y008890D03*
X028733Y008900D03*
X028743Y008900D03*
X025973Y012680D03*
X025963Y012680D03*
X025953Y012670D03*
X025943Y012670D03*
X025933Y012670D03*
X025853Y012650D03*
X025843Y012650D03*
D81*
X025863Y012655D03*
X025873Y012655D03*
X025883Y012655D03*
X025903Y012665D03*
X025913Y012665D03*
X025923Y012665D03*
X028633Y008875D03*
X028643Y008875D03*
X028653Y008875D03*
X028673Y008885D03*
X028683Y008885D03*
X028693Y008885D03*
X025903Y005095D03*
X025893Y005095D03*
X025883Y005095D03*
X025863Y005085D03*
X025853Y005085D03*
X025843Y005085D03*
D82*
X025873Y005090D03*
X028663Y008880D03*
X025893Y012660D03*
D83*
X025683Y012595D03*
X028453Y008815D03*
X025663Y005025D03*
D84*
X025616Y001040D02*
X025616Y000670D01*
X025431Y000670D01*
X025369Y000732D01*
X025369Y000855D01*
X025431Y000917D01*
X025616Y000917D01*
X025738Y000855D02*
X025738Y000670D01*
X025923Y000670D01*
X025985Y000732D01*
X025923Y000793D01*
X025738Y000793D01*
X025738Y000855D02*
X025799Y000917D01*
X025923Y000917D01*
X026106Y001040D02*
X026353Y001040D01*
X026353Y000670D01*
X026353Y000855D02*
X026229Y000855D01*
X025248Y000793D02*
X025124Y000917D01*
X025063Y000917D01*
X024941Y000917D02*
X024879Y000917D01*
X024879Y000670D01*
X024818Y000670D02*
X024941Y000670D01*
X024695Y000732D02*
X024634Y000670D01*
X024449Y000670D01*
X024327Y000732D02*
X024265Y000670D01*
X024080Y000670D01*
X024080Y000855D01*
X024142Y000917D01*
X024265Y000917D01*
X024265Y000793D02*
X024080Y000793D01*
X023959Y000917D02*
X023835Y000917D01*
X023897Y000979D02*
X023897Y000732D01*
X023835Y000670D01*
X023713Y000732D02*
X023652Y000670D01*
X023528Y000670D01*
X023466Y000793D02*
X023713Y000793D01*
X023713Y000732D02*
X023713Y000855D01*
X023652Y000917D01*
X023528Y000917D01*
X023466Y000855D01*
X023466Y000793D01*
X023345Y000732D02*
X023345Y000855D01*
X023283Y000917D01*
X023098Y000917D01*
X023098Y001040D02*
X023098Y000670D01*
X023283Y000670D01*
X023345Y000732D01*
X022608Y000670D02*
X022485Y000670D01*
X022547Y000670D02*
X022547Y000917D01*
X022608Y000917D01*
X022547Y001040D02*
X022547Y001102D01*
X022363Y000917D02*
X022178Y000917D01*
X022116Y000855D01*
X022116Y000670D01*
X022363Y000670D02*
X022363Y000917D01*
X021626Y001040D02*
X021626Y000732D01*
X021564Y000670D01*
X021441Y000670D01*
X021379Y000732D01*
X021379Y001040D01*
X021258Y000979D02*
X021258Y000917D01*
X021196Y000855D01*
X021073Y000855D01*
X021011Y000793D01*
X021011Y000732D01*
X021073Y000670D01*
X021196Y000670D01*
X021258Y000732D01*
X021258Y000979D02*
X021196Y001040D01*
X021073Y001040D01*
X021011Y000979D01*
X020890Y000917D02*
X020766Y001040D01*
X020643Y000917D01*
X020643Y000670D01*
X020643Y000855D02*
X020890Y000855D01*
X020890Y000917D02*
X020890Y000670D01*
X024265Y000793D02*
X024327Y000732D01*
X024449Y000917D02*
X024634Y000917D01*
X024695Y000855D01*
X024695Y000732D01*
X024879Y001040D02*
X024879Y001102D01*
X025248Y000917D02*
X025248Y000670D01*
D85*
X004991Y002389D02*
X004787Y002592D01*
X004787Y002694D01*
X004889Y002796D01*
X005093Y002796D01*
X005195Y002694D01*
X005395Y002796D02*
X005395Y002185D01*
X005700Y002185D01*
X005802Y002287D01*
X005802Y002490D01*
X005700Y002592D01*
X005395Y002592D01*
X004991Y002287D02*
X004991Y002185D01*
X006003Y002185D02*
X006003Y002490D01*
X006105Y002592D01*
X006410Y002592D01*
X006410Y002185D01*
X006611Y002185D02*
X006611Y002490D01*
X006712Y002592D01*
X006916Y002592D01*
X006916Y002389D02*
X006611Y002389D01*
X006611Y002185D02*
X006916Y002185D01*
X007018Y002287D01*
X006916Y002389D01*
X007219Y002592D02*
X007423Y002592D01*
X007321Y002694D02*
X007321Y002287D01*
X007219Y002185D01*
X007624Y002287D02*
X007725Y002389D01*
X007929Y002389D01*
X008031Y002490D01*
X007929Y002592D01*
X007624Y002592D01*
X008232Y002592D02*
X008333Y002592D01*
X008537Y002389D01*
X008738Y002389D02*
X009145Y002389D01*
X009145Y002490D02*
X009043Y002592D01*
X008839Y002592D01*
X008738Y002490D01*
X008738Y002389D01*
X008839Y002185D02*
X009043Y002185D01*
X009145Y002287D01*
X009145Y002490D01*
X009345Y002592D02*
X009651Y002592D01*
X009752Y002490D01*
X009752Y002287D01*
X009651Y002185D01*
X009345Y002185D01*
X009345Y002796D01*
X009953Y002490D02*
X009953Y002185D01*
X009953Y002490D02*
X010055Y002592D01*
X010360Y002592D01*
X010360Y002185D01*
X010561Y002287D02*
X010561Y002796D01*
X010968Y002796D02*
X010968Y002287D01*
X010866Y002185D01*
X010663Y002185D01*
X010561Y002287D01*
X008537Y002185D02*
X008537Y002592D01*
X008031Y002185D02*
X007725Y002185D01*
X007624Y002287D01*
M02*
