G75*
G70*
%OFA0B0*%
%FSLAX24Y24*%
%IPPOS*%
%LPD*%
%AMOC8*
5,1,8,0,0,1.08239X$1,22.5*
%
%ADD10C,0.0650*%
%ADD11C,0.0531*%
%ADD12C,0.0740*%
%ADD13C,0.0740*%
%ADD14R,0.0376X0.0376*%
%ADD15C,0.0120*%
%ADD16C,0.1660*%
D10*
X001368Y014660D03*
X002368Y014660D03*
X003368Y014660D03*
X004368Y014660D03*
X005368Y014660D03*
X006368Y014660D03*
X007368Y014660D03*
X008368Y014660D03*
X009368Y014660D03*
X010368Y014660D03*
X011368Y014660D03*
X012368Y014660D03*
X013368Y014660D03*
X013368Y015660D03*
X012368Y015660D03*
X011368Y015660D03*
X010368Y015660D03*
X009368Y015660D03*
X008368Y015660D03*
X007368Y015660D03*
X006368Y015660D03*
X005368Y015660D03*
X004368Y015660D03*
X003368Y015660D03*
X002368Y015660D03*
X001368Y015660D03*
X001368Y020410D03*
X002368Y020410D03*
X003368Y020410D03*
X004368Y020410D03*
X005368Y020410D03*
X006368Y020410D03*
X007368Y020410D03*
X008368Y020410D03*
X009368Y020410D03*
X010368Y020410D03*
X011368Y020410D03*
X012368Y020410D03*
X013368Y020410D03*
X013368Y021410D03*
X012368Y021410D03*
X011368Y021410D03*
X010368Y021410D03*
X009368Y021410D03*
X008368Y021410D03*
X007368Y021410D03*
X006368Y021410D03*
X005368Y021410D03*
X004368Y021410D03*
X003368Y021410D03*
X002368Y021410D03*
X001368Y021410D03*
D11*
X002463Y005666D03*
X002463Y003934D03*
D12*
X014993Y008410D03*
X015993Y007160D03*
X016993Y005910D03*
X017993Y004660D03*
X018993Y003410D03*
X019993Y002160D03*
X021493Y002160D03*
X022993Y002160D03*
X024493Y002160D03*
X025993Y002160D03*
X027493Y002160D03*
X028493Y003410D03*
X029493Y004660D03*
X030493Y005910D03*
X031493Y007160D03*
X032493Y008410D03*
X031493Y009660D03*
X030493Y010910D03*
X029493Y012160D03*
X028493Y013410D03*
X027493Y014660D03*
X025993Y014660D03*
X024493Y014660D03*
X022993Y014660D03*
X021493Y014660D03*
X019993Y014660D03*
X020493Y016160D03*
X020493Y017660D03*
X020993Y018910D03*
X022243Y019910D03*
X023868Y020035D03*
X025493Y019910D03*
X026743Y018910D03*
X026993Y017660D03*
X026993Y016160D03*
X018993Y013410D03*
X017993Y012160D03*
X016993Y010910D03*
X015993Y009660D03*
X019743Y008910D03*
X021743Y009410D03*
X023743Y008160D03*
X025743Y007160D03*
X027743Y007660D03*
D13*
X029743Y008040D02*
X029743Y008780D01*
X017743Y008780D02*
X017743Y008040D01*
D14*
X010493Y008160D03*
X009118Y008160D03*
X009243Y006535D03*
X008868Y005285D03*
X008618Y003535D03*
X006743Y003535D03*
X011493Y002660D03*
X010493Y013285D03*
X009493Y013285D03*
X008868Y013285D03*
X006868Y016285D03*
X005868Y016285D03*
X008868Y019535D03*
X009868Y019535D03*
D15*
X006868Y016285D01*
X007216Y016276D02*
X013993Y016276D01*
X013993Y016158D02*
X007216Y016158D01*
X007216Y016122D02*
X007216Y016338D01*
X009846Y019187D01*
X010122Y019187D01*
X010216Y019281D01*
X010216Y019789D01*
X010122Y019883D01*
X009613Y019883D01*
X009520Y019789D01*
X009520Y019482D01*
X006890Y016633D01*
X006613Y016633D01*
X006520Y016539D01*
X006520Y016122D01*
X006464Y016145D01*
X006271Y016145D01*
X006216Y016122D01*
X006216Y016338D01*
X008846Y019187D01*
X009122Y019187D01*
X009216Y019281D01*
X009216Y019789D01*
X009122Y019883D01*
X008613Y019883D01*
X008588Y019857D01*
X008588Y019976D01*
X008643Y019999D01*
X008779Y020135D01*
X008853Y020314D01*
X008853Y020506D01*
X008779Y020685D01*
X008643Y020821D01*
X008464Y020895D01*
X008271Y020895D01*
X008093Y020821D01*
X007957Y020685D01*
X007883Y020506D01*
X007883Y020314D01*
X007957Y020135D01*
X008093Y019999D01*
X008148Y019976D01*
X008148Y019876D01*
X007902Y019630D01*
X007777Y019630D01*
X004777Y016630D01*
X004648Y016501D01*
X004648Y016066D01*
X004643Y016071D01*
X004464Y016145D01*
X004271Y016145D01*
X004093Y016071D01*
X004088Y016066D01*
X004088Y016069D01*
X007459Y019440D01*
X007588Y019569D01*
X007588Y019976D01*
X007643Y019999D01*
X007779Y020135D01*
X007853Y020314D01*
X007853Y020506D01*
X007779Y020685D01*
X007643Y020821D01*
X007464Y020895D01*
X007271Y020895D01*
X007093Y020821D01*
X006957Y020685D01*
X006883Y020506D01*
X006883Y020314D01*
X006957Y020135D01*
X007093Y019999D01*
X007148Y019976D01*
X007148Y019751D01*
X003777Y016380D01*
X003777Y016380D01*
X003648Y016251D01*
X003648Y016066D01*
X003643Y016071D01*
X003464Y016145D01*
X003271Y016145D01*
X003093Y016071D01*
X003088Y016066D01*
X003088Y018319D01*
X003959Y019190D01*
X004088Y019319D01*
X004088Y020004D01*
X004093Y019999D01*
X004271Y019925D01*
X004464Y019925D01*
X004643Y019999D01*
X004779Y020135D01*
X004853Y020314D01*
X004853Y020506D01*
X004779Y020685D01*
X004643Y020821D01*
X004464Y020895D01*
X004271Y020895D01*
X004093Y020821D01*
X004088Y020816D01*
X004088Y020819D01*
X004217Y020948D01*
X004271Y020925D01*
X004464Y020925D01*
X004643Y020999D01*
X004779Y021135D01*
X004853Y021314D01*
X004853Y021506D01*
X004789Y021660D01*
X004807Y021660D01*
X004906Y021561D01*
X004883Y021506D01*
X004883Y021314D01*
X004957Y021135D01*
X005093Y020999D01*
X005271Y020925D01*
X005464Y020925D01*
X005643Y020999D01*
X005779Y021135D01*
X005853Y021314D01*
X005853Y021506D01*
X005789Y021660D01*
X005946Y021660D01*
X005883Y021506D01*
X005883Y021314D01*
X005957Y021135D01*
X006093Y020999D01*
X006271Y020925D01*
X006464Y020925D01*
X006643Y020999D01*
X006779Y021135D01*
X006853Y021314D01*
X006853Y021506D01*
X006789Y021660D01*
X006951Y021660D01*
X006918Y021596D01*
X006895Y021524D01*
X006883Y021450D01*
X007328Y021450D01*
X007328Y021370D01*
X007408Y021370D01*
X007408Y021450D01*
X007853Y021450D01*
X007841Y021524D01*
X007817Y021596D01*
X007785Y021660D01*
X007946Y021660D01*
X007883Y021506D01*
X007883Y021314D01*
X007957Y021135D01*
X008093Y020999D01*
X008271Y020925D01*
X008464Y020925D01*
X008643Y020999D01*
X008779Y021135D01*
X008853Y021314D01*
X008853Y021506D01*
X008789Y021660D01*
X008946Y021660D01*
X008883Y021506D01*
X008883Y021314D01*
X008957Y021135D01*
X009093Y020999D01*
X009271Y020925D01*
X009464Y020925D01*
X009643Y020999D01*
X009779Y021135D01*
X009853Y021314D01*
X009853Y021506D01*
X009789Y021660D01*
X009951Y021660D01*
X009918Y021596D01*
X009895Y021524D01*
X009883Y021450D01*
X010328Y021450D01*
X010328Y021370D01*
X010408Y021370D01*
X010408Y021450D01*
X010853Y021450D01*
X010841Y021524D01*
X010817Y021596D01*
X010785Y021660D01*
X010946Y021660D01*
X010883Y021506D01*
X010883Y021314D01*
X010957Y021135D01*
X011093Y020999D01*
X011271Y020925D01*
X011464Y020925D01*
X011643Y020999D01*
X011779Y021135D01*
X011853Y021314D01*
X011853Y021506D01*
X011789Y021660D01*
X011946Y021660D01*
X011883Y021506D01*
X011883Y021314D01*
X011957Y021135D01*
X012093Y020999D01*
X012271Y020925D01*
X012464Y020925D01*
X012643Y020999D01*
X012779Y021135D01*
X012853Y021314D01*
X012853Y021506D01*
X012789Y021660D01*
X012946Y021660D01*
X012883Y021506D01*
X012883Y021314D01*
X012957Y021135D01*
X013093Y020999D01*
X013271Y020925D01*
X013464Y020925D01*
X013643Y020999D01*
X013779Y021135D01*
X013853Y021314D01*
X013853Y021506D01*
X013789Y021660D01*
X013993Y021660D01*
X013993Y002160D01*
X011304Y002160D01*
X011456Y002312D01*
X011747Y002312D01*
X011841Y002406D01*
X011841Y002914D01*
X011747Y003008D01*
X011238Y003008D01*
X011145Y002914D01*
X011145Y002623D01*
X010902Y002380D01*
X008090Y002380D01*
X007091Y003479D01*
X007091Y003789D01*
X006997Y003883D01*
X006488Y003883D01*
X006395Y003789D01*
X006395Y003281D01*
X006488Y003187D01*
X006762Y003187D01*
X007696Y002160D01*
X002217Y002160D01*
X001940Y002275D01*
X001546Y002275D01*
X001493Y002253D01*
X001493Y013565D01*
X008545Y013565D01*
X008520Y013539D01*
X008520Y013031D01*
X008613Y012937D01*
X008648Y012937D01*
X008648Y012626D01*
X008152Y012130D01*
X008023Y012001D01*
X008023Y006944D01*
X008523Y006444D01*
X008652Y006315D01*
X008895Y006315D01*
X008895Y006281D01*
X008988Y006187D01*
X009459Y006187D01*
X008905Y005633D01*
X008613Y005633D01*
X008520Y005539D01*
X008520Y005031D01*
X008613Y004937D01*
X009122Y004937D01*
X009216Y005031D01*
X009216Y005322D01*
X009834Y005940D01*
X009963Y006069D01*
X009963Y007267D01*
X009975Y007339D01*
X009963Y007356D01*
X009963Y007376D01*
X009911Y007428D01*
X009466Y008051D01*
X009466Y008414D01*
X009372Y008508D01*
X008863Y008508D01*
X008770Y008414D01*
X008770Y007906D01*
X008863Y007812D01*
X009096Y007812D01*
X009523Y007214D01*
X009523Y006857D01*
X009497Y006883D01*
X008988Y006883D01*
X008895Y006789D01*
X008895Y006755D01*
X008834Y006755D01*
X008463Y007126D01*
X008463Y011819D01*
X009088Y012444D01*
X009088Y012937D01*
X009122Y012937D01*
X009216Y013031D01*
X009216Y013539D01*
X009190Y013565D01*
X009334Y013565D01*
X009959Y014190D01*
X010055Y014286D01*
X010093Y014249D01*
X010271Y014175D01*
X010464Y014175D01*
X010643Y014249D01*
X010779Y014385D01*
X010853Y014564D01*
X010853Y014756D01*
X010779Y014935D01*
X010643Y015071D01*
X010464Y015145D01*
X010271Y015145D01*
X010093Y015071D01*
X010088Y015066D01*
X010088Y015069D01*
X010217Y015198D01*
X010271Y015175D01*
X010464Y015175D01*
X010643Y015249D01*
X010779Y015385D01*
X010853Y015564D01*
X010853Y015756D01*
X010779Y015935D01*
X010643Y016071D01*
X010464Y016145D01*
X010271Y016145D01*
X010093Y016071D01*
X009957Y015935D01*
X009883Y015756D01*
X009883Y015564D01*
X009906Y015509D01*
X009648Y015251D01*
X009648Y015066D01*
X009643Y015071D01*
X009464Y015145D01*
X009271Y015145D01*
X009093Y015071D01*
X008957Y014935D01*
X008883Y014756D01*
X008883Y014564D01*
X008957Y014385D01*
X009093Y014249D01*
X009271Y014175D01*
X009322Y014175D01*
X009152Y014005D01*
X006774Y014005D01*
X006838Y014069D01*
X007055Y014286D01*
X007093Y014249D01*
X007271Y014175D01*
X007464Y014175D01*
X007643Y014249D01*
X007779Y014385D01*
X007853Y014564D01*
X007853Y014756D01*
X007779Y014935D01*
X007774Y014940D01*
X007962Y014940D01*
X007957Y014935D01*
X007883Y014756D01*
X007883Y014564D01*
X007957Y014385D01*
X008093Y014249D01*
X008271Y014175D01*
X008464Y014175D01*
X008643Y014249D01*
X008779Y014385D01*
X008853Y014564D01*
X008853Y014756D01*
X008779Y014935D01*
X008774Y014940D01*
X008959Y014940D01*
X009088Y015069D01*
X009217Y015198D01*
X009271Y015175D01*
X009464Y015175D01*
X009643Y015249D01*
X009779Y015385D01*
X009853Y015564D01*
X009853Y015756D01*
X009779Y015935D01*
X009643Y016071D01*
X009464Y016145D01*
X009271Y016145D01*
X009093Y016071D01*
X008957Y015935D01*
X008883Y015756D01*
X008883Y015564D01*
X008906Y015509D01*
X008777Y015380D01*
X008774Y015380D01*
X008779Y015385D01*
X008853Y015564D01*
X008853Y015756D01*
X008779Y015935D01*
X008643Y016071D01*
X008464Y016145D01*
X008271Y016145D01*
X008093Y016071D01*
X007957Y015935D01*
X007883Y015756D01*
X007883Y015564D01*
X007957Y015385D01*
X007962Y015380D01*
X007774Y015380D01*
X007779Y015385D01*
X007853Y015564D01*
X007853Y015756D01*
X007779Y015935D01*
X007643Y016071D01*
X007464Y016145D01*
X007271Y016145D01*
X007216Y016122D01*
X007268Y016395D02*
X013993Y016395D01*
X013993Y016513D02*
X007378Y016513D01*
X007487Y016632D02*
X013993Y016632D01*
X013993Y016750D02*
X007596Y016750D01*
X007706Y016869D02*
X013993Y016869D01*
X013993Y016987D02*
X007815Y016987D01*
X007925Y017106D02*
X013993Y017106D01*
X013993Y017224D02*
X008034Y017224D01*
X008143Y017343D02*
X013993Y017343D01*
X013993Y017461D02*
X008253Y017461D01*
X008362Y017580D02*
X013993Y017580D01*
X013993Y017698D02*
X008472Y017698D01*
X008581Y017817D02*
X013993Y017817D01*
X013993Y017935D02*
X008690Y017935D01*
X008800Y018054D02*
X013993Y018054D01*
X013993Y018172D02*
X008909Y018172D01*
X009018Y018291D02*
X013993Y018291D01*
X013993Y018409D02*
X009128Y018409D01*
X009237Y018528D02*
X013993Y018528D01*
X013993Y018646D02*
X009347Y018646D01*
X009456Y018765D02*
X013993Y018765D01*
X013993Y018883D02*
X009565Y018883D01*
X009675Y019002D02*
X013993Y019002D01*
X013993Y019120D02*
X009784Y019120D01*
X010174Y019239D02*
X013993Y019239D01*
X013993Y019357D02*
X010216Y019357D01*
X010216Y019476D02*
X013993Y019476D01*
X013993Y019594D02*
X010216Y019594D01*
X010216Y019713D02*
X013993Y019713D01*
X013993Y019831D02*
X010174Y019831D01*
X010212Y019950D02*
X009524Y019950D01*
X009464Y019925D02*
X009643Y019999D01*
X009779Y020135D01*
X009853Y020314D01*
X009853Y020506D01*
X009779Y020685D01*
X009643Y020821D01*
X009464Y020895D01*
X009271Y020895D01*
X009093Y020821D01*
X008957Y020685D01*
X008883Y020506D01*
X008883Y020314D01*
X008957Y020135D01*
X009093Y019999D01*
X009271Y019925D01*
X009464Y019925D01*
X009561Y019831D02*
X009174Y019831D01*
X009212Y019950D02*
X008588Y019950D01*
X008712Y020068D02*
X009024Y020068D01*
X008935Y020187D02*
X008800Y020187D01*
X008849Y020305D02*
X008886Y020305D01*
X008883Y020424D02*
X008853Y020424D01*
X008838Y020542D02*
X008898Y020542D01*
X008947Y020661D02*
X008789Y020661D01*
X008685Y020779D02*
X009051Y020779D01*
X009076Y021016D02*
X008660Y021016D01*
X008778Y021135D02*
X008957Y021135D01*
X008908Y021253D02*
X008828Y021253D01*
X008853Y021372D02*
X008883Y021372D01*
X008883Y021490D02*
X008853Y021490D01*
X008811Y021609D02*
X008925Y021609D01*
X009811Y021609D02*
X009925Y021609D01*
X009889Y021490D02*
X009853Y021490D01*
X009853Y021372D02*
X010328Y021372D01*
X010328Y021370D02*
X009883Y021370D01*
X009895Y021296D01*
X009918Y021224D01*
X009953Y021156D01*
X009998Y021094D01*
X010052Y021040D01*
X010114Y020995D01*
X010182Y020961D01*
X010254Y020937D01*
X010328Y020925D01*
X010328Y021370D01*
X010408Y021370D02*
X010408Y020925D01*
X010481Y020937D01*
X010554Y020961D01*
X010622Y020995D01*
X010684Y021040D01*
X010738Y021094D01*
X010783Y021156D01*
X010817Y021224D01*
X010841Y021296D01*
X010853Y021370D01*
X010408Y021370D01*
X010408Y021372D02*
X010883Y021372D01*
X010883Y021490D02*
X010846Y021490D01*
X010811Y021609D02*
X010925Y021609D01*
X010908Y021253D02*
X010827Y021253D01*
X010767Y021135D02*
X010957Y021135D01*
X011076Y021016D02*
X010651Y021016D01*
X010643Y020821D02*
X010464Y020895D01*
X010271Y020895D01*
X010093Y020821D01*
X009957Y020685D01*
X009883Y020506D01*
X009883Y020314D01*
X009957Y020135D01*
X010093Y019999D01*
X010271Y019925D01*
X010464Y019925D01*
X010643Y019999D01*
X010779Y020135D01*
X010853Y020314D01*
X010853Y020506D01*
X010779Y020685D01*
X010643Y020821D01*
X010685Y020779D02*
X011051Y020779D01*
X011093Y020821D02*
X010957Y020685D01*
X010883Y020506D01*
X010883Y020314D01*
X010957Y020135D01*
X011093Y019999D01*
X011271Y019925D01*
X011464Y019925D01*
X011643Y019999D01*
X011779Y020135D01*
X011853Y020314D01*
X011853Y020506D01*
X011779Y020685D01*
X011643Y020821D01*
X011464Y020895D01*
X011271Y020895D01*
X011093Y020821D01*
X010947Y020661D02*
X010789Y020661D01*
X010838Y020542D02*
X010898Y020542D01*
X010883Y020424D02*
X010853Y020424D01*
X010849Y020305D02*
X010886Y020305D01*
X010935Y020187D02*
X010800Y020187D01*
X010712Y020068D02*
X011024Y020068D01*
X011212Y019950D02*
X010524Y019950D01*
X010024Y020068D02*
X009712Y020068D01*
X009800Y020187D02*
X009935Y020187D01*
X009886Y020305D02*
X009849Y020305D01*
X009853Y020424D02*
X009883Y020424D01*
X009898Y020542D02*
X009838Y020542D01*
X009789Y020661D02*
X009947Y020661D01*
X010051Y020779D02*
X009685Y020779D01*
X009660Y021016D02*
X010085Y021016D01*
X009968Y021135D02*
X009778Y021135D01*
X009828Y021253D02*
X009909Y021253D01*
X010328Y021253D02*
X010408Y021253D01*
X010408Y021135D02*
X010328Y021135D01*
X010328Y021016D02*
X010408Y021016D01*
X011660Y021016D02*
X012076Y021016D01*
X011957Y021135D02*
X011778Y021135D01*
X011828Y021253D02*
X011908Y021253D01*
X011883Y021372D02*
X011853Y021372D01*
X011853Y021490D02*
X011883Y021490D01*
X011925Y021609D02*
X011811Y021609D01*
X012093Y020821D02*
X012271Y020895D01*
X012464Y020895D01*
X012643Y020821D01*
X012779Y020685D01*
X012853Y020506D01*
X012853Y020314D01*
X012779Y020135D01*
X012643Y019999D01*
X012464Y019925D01*
X012271Y019925D01*
X012093Y019999D01*
X011957Y020135D01*
X011883Y020314D01*
X011883Y020506D01*
X011957Y020685D01*
X012093Y020821D01*
X012051Y020779D02*
X011685Y020779D01*
X011789Y020661D02*
X011947Y020661D01*
X011898Y020542D02*
X011838Y020542D01*
X011853Y020424D02*
X011883Y020424D01*
X011886Y020305D02*
X011849Y020305D01*
X011800Y020187D02*
X011935Y020187D01*
X012024Y020068D02*
X011712Y020068D01*
X011524Y019950D02*
X012212Y019950D01*
X012524Y019950D02*
X013215Y019950D01*
X013182Y019961D02*
X013254Y019937D01*
X013328Y019925D01*
X013328Y020370D01*
X013408Y020370D01*
X013408Y020450D01*
X013853Y020450D01*
X013841Y020524D01*
X013817Y020596D01*
X013783Y020664D01*
X013738Y020726D01*
X013684Y020780D01*
X013622Y020825D01*
X013554Y020859D01*
X013481Y020883D01*
X013408Y020895D01*
X013408Y020450D01*
X013328Y020450D01*
X013328Y020895D01*
X013254Y020883D01*
X013182Y020859D01*
X013114Y020825D01*
X013052Y020780D01*
X012998Y020726D01*
X012953Y020664D01*
X012918Y020596D01*
X012895Y020524D01*
X012883Y020450D01*
X013328Y020450D01*
X013328Y020370D01*
X012883Y020370D01*
X012895Y020296D01*
X012918Y020224D01*
X012953Y020156D01*
X012998Y020094D01*
X013052Y020040D01*
X013114Y019995D01*
X013182Y019961D01*
X013328Y019950D02*
X013408Y019950D01*
X013408Y019925D02*
X013481Y019937D01*
X013554Y019961D01*
X013622Y019995D01*
X013684Y020040D01*
X013738Y020094D01*
X013783Y020156D01*
X013817Y020224D01*
X013841Y020296D01*
X013853Y020370D01*
X013408Y020370D01*
X013408Y019925D01*
X013520Y019950D02*
X013993Y019950D01*
X013993Y020068D02*
X013712Y020068D01*
X013798Y020187D02*
X013993Y020187D01*
X013993Y020305D02*
X013842Y020305D01*
X013993Y020424D02*
X013408Y020424D01*
X013328Y020424D02*
X012853Y020424D01*
X012838Y020542D02*
X012901Y020542D01*
X012951Y020661D02*
X012789Y020661D01*
X012685Y020779D02*
X013051Y020779D01*
X013076Y021016D02*
X012660Y021016D01*
X012778Y021135D02*
X012957Y021135D01*
X012908Y021253D02*
X012828Y021253D01*
X012853Y021372D02*
X012883Y021372D01*
X012883Y021490D02*
X012853Y021490D01*
X012811Y021609D02*
X012925Y021609D01*
X013811Y021609D02*
X013993Y021609D01*
X013993Y021490D02*
X013853Y021490D01*
X013853Y021372D02*
X013993Y021372D01*
X013993Y021253D02*
X013828Y021253D01*
X013778Y021135D02*
X013993Y021135D01*
X013993Y021016D02*
X013660Y021016D01*
X013685Y020779D02*
X013993Y020779D01*
X013993Y020661D02*
X013785Y020661D01*
X013835Y020542D02*
X013993Y020542D01*
X013408Y020542D02*
X013328Y020542D01*
X013328Y020661D02*
X013408Y020661D01*
X013408Y020779D02*
X013328Y020779D01*
X013328Y020305D02*
X013408Y020305D01*
X013408Y020187D02*
X013328Y020187D01*
X013328Y020068D02*
X013408Y020068D01*
X013024Y020068D02*
X012712Y020068D01*
X012800Y020187D02*
X012937Y020187D01*
X012893Y020305D02*
X012849Y020305D01*
X013993Y020898D02*
X004167Y020898D01*
X003868Y020910D02*
X004368Y021410D01*
X004811Y021609D02*
X004858Y021609D01*
X004853Y021490D02*
X004883Y021490D01*
X004883Y021372D02*
X004853Y021372D01*
X004828Y021253D02*
X004908Y021253D01*
X004957Y021135D02*
X004778Y021135D01*
X004660Y021016D02*
X005076Y021016D01*
X005182Y020859D02*
X005114Y020825D01*
X005052Y020780D01*
X004998Y020726D01*
X004953Y020664D01*
X004918Y020596D01*
X004895Y020524D01*
X004883Y020450D01*
X005328Y020450D01*
X005328Y020895D01*
X005254Y020883D01*
X005182Y020859D01*
X005051Y020779D02*
X004685Y020779D01*
X004789Y020661D02*
X004951Y020661D01*
X004901Y020542D02*
X004838Y020542D01*
X004853Y020424D02*
X005328Y020424D01*
X005328Y020450D02*
X005328Y020370D01*
X005408Y020370D01*
X005408Y020450D01*
X005853Y020450D01*
X005841Y020524D01*
X005817Y020596D01*
X005783Y020664D01*
X005738Y020726D01*
X005684Y020780D01*
X005622Y020825D01*
X005554Y020859D01*
X005481Y020883D01*
X005408Y020895D01*
X005408Y020450D01*
X005328Y020450D01*
X005328Y020370D02*
X004883Y020370D01*
X004895Y020296D01*
X004918Y020224D01*
X004953Y020156D01*
X004998Y020094D01*
X005052Y020040D01*
X005114Y019995D01*
X005182Y019961D01*
X005254Y019937D01*
X005328Y019925D01*
X005328Y020370D01*
X005328Y020305D02*
X005408Y020305D01*
X005408Y020370D02*
X005408Y019925D01*
X005481Y019937D01*
X005554Y019961D01*
X005622Y019995D01*
X005684Y020040D01*
X005738Y020094D01*
X005783Y020156D01*
X005817Y020224D01*
X005841Y020296D01*
X005853Y020370D01*
X005408Y020370D01*
X005408Y020424D02*
X005883Y020424D01*
X005883Y020506D02*
X005883Y020314D01*
X005957Y020135D01*
X006093Y019999D01*
X006271Y019925D01*
X006464Y019925D01*
X006643Y019999D01*
X006779Y020135D01*
X006853Y020314D01*
X006853Y020506D01*
X006779Y020685D01*
X006643Y020821D01*
X006464Y020895D01*
X006271Y020895D01*
X006093Y020821D01*
X005957Y020685D01*
X005883Y020506D01*
X005898Y020542D02*
X005835Y020542D01*
X005785Y020661D02*
X005947Y020661D01*
X006051Y020779D02*
X005685Y020779D01*
X005660Y021016D02*
X006076Y021016D01*
X005957Y021135D02*
X005778Y021135D01*
X005828Y021253D02*
X005908Y021253D01*
X005883Y021372D02*
X005853Y021372D01*
X005853Y021490D02*
X005883Y021490D01*
X005925Y021609D02*
X005811Y021609D01*
X005368Y021410D02*
X004868Y021910D01*
X001118Y021910D01*
X000868Y021660D01*
X000868Y014410D01*
X001243Y013785D01*
X009243Y013785D01*
X009868Y014410D01*
X009868Y015160D01*
X010368Y015660D01*
X010853Y015684D02*
X010883Y015684D01*
X010883Y015756D02*
X010883Y015564D01*
X010957Y015385D01*
X011093Y015249D01*
X011271Y015175D01*
X011464Y015175D01*
X011643Y015249D01*
X011779Y015385D01*
X011853Y015564D01*
X011853Y015756D01*
X011779Y015935D01*
X011643Y016071D01*
X011464Y016145D01*
X011271Y016145D01*
X011093Y016071D01*
X010957Y015935D01*
X010883Y015756D01*
X010902Y015802D02*
X010834Y015802D01*
X010785Y015921D02*
X010951Y015921D01*
X011061Y016039D02*
X010675Y016039D01*
X010061Y016039D02*
X009675Y016039D01*
X009785Y015921D02*
X009951Y015921D01*
X009902Y015802D02*
X009834Y015802D01*
X009853Y015684D02*
X009883Y015684D01*
X009883Y015565D02*
X009853Y015565D01*
X009843Y015447D02*
X009804Y015447D01*
X009725Y015328D02*
X009722Y015328D01*
X009648Y015210D02*
X009548Y015210D01*
X009595Y015091D02*
X009648Y015091D01*
X010110Y015091D02*
X010141Y015091D01*
X010548Y015210D02*
X011188Y015210D01*
X011271Y015145D02*
X011093Y015071D01*
X010957Y014935D01*
X010883Y014756D01*
X010883Y014564D01*
X010957Y014385D01*
X011093Y014249D01*
X011271Y014175D01*
X011464Y014175D01*
X011643Y014249D01*
X011779Y014385D01*
X011853Y014564D01*
X011853Y014756D01*
X011779Y014935D01*
X011643Y015071D01*
X011464Y015145D01*
X011271Y015145D01*
X011141Y015091D02*
X010595Y015091D01*
X010741Y014973D02*
X010994Y014973D01*
X010923Y014854D02*
X010812Y014854D01*
X010853Y014736D02*
X010883Y014736D01*
X010883Y014617D02*
X010853Y014617D01*
X010826Y014499D02*
X010910Y014499D01*
X010962Y014380D02*
X010774Y014380D01*
X010655Y014262D02*
X011080Y014262D01*
X011655Y014262D02*
X012080Y014262D01*
X012093Y014249D02*
X012271Y014175D01*
X012464Y014175D01*
X012643Y014249D01*
X012779Y014385D01*
X012853Y014564D01*
X012853Y014756D01*
X012779Y014935D01*
X012643Y015071D01*
X012464Y015145D01*
X012271Y015145D01*
X012093Y015071D01*
X011957Y014935D01*
X011883Y014756D01*
X011883Y014564D01*
X011957Y014385D01*
X012093Y014249D01*
X011962Y014380D02*
X011774Y014380D01*
X011826Y014499D02*
X011910Y014499D01*
X011883Y014617D02*
X011853Y014617D01*
X011853Y014736D02*
X011883Y014736D01*
X011923Y014854D02*
X011812Y014854D01*
X011741Y014973D02*
X011994Y014973D01*
X012141Y015091D02*
X011595Y015091D01*
X011548Y015210D02*
X012188Y015210D01*
X012271Y015175D02*
X012464Y015175D01*
X012643Y015249D01*
X012779Y015385D01*
X012853Y015564D01*
X012853Y015756D01*
X012779Y015935D01*
X012643Y016071D01*
X012464Y016145D01*
X012271Y016145D01*
X012093Y016071D01*
X011957Y015935D01*
X011883Y015756D01*
X011883Y015564D01*
X011957Y015385D01*
X012093Y015249D01*
X012271Y015175D01*
X012548Y015210D02*
X013185Y015210D01*
X013182Y015211D02*
X013254Y015187D01*
X013328Y015175D01*
X013328Y015620D01*
X013408Y015620D01*
X013408Y015700D01*
X013853Y015700D01*
X013841Y015774D01*
X013817Y015846D01*
X013783Y015914D01*
X013738Y015976D01*
X013684Y016030D01*
X013622Y016075D01*
X013554Y016109D01*
X013481Y016133D01*
X013408Y016145D01*
X013408Y015700D01*
X013328Y015700D01*
X013328Y016145D01*
X013254Y016133D01*
X013182Y016109D01*
X013114Y016075D01*
X013052Y016030D01*
X012998Y015976D01*
X012953Y015914D01*
X012918Y015846D01*
X012895Y015774D01*
X012883Y015700D01*
X013328Y015700D01*
X013328Y015620D01*
X012883Y015620D01*
X012895Y015546D01*
X012918Y015474D01*
X012953Y015406D01*
X012998Y015344D01*
X013052Y015290D01*
X013114Y015245D01*
X013182Y015211D01*
X013182Y015109D02*
X013254Y015133D01*
X013328Y015145D01*
X013328Y014700D01*
X013408Y014700D01*
X013853Y014700D01*
X013841Y014774D01*
X013817Y014846D01*
X013783Y014914D01*
X013738Y014976D01*
X013684Y015030D01*
X013622Y015075D01*
X013554Y015109D01*
X013481Y015133D01*
X013408Y015145D01*
X013408Y014700D01*
X013408Y014620D01*
X013853Y014620D01*
X013841Y014546D01*
X013817Y014474D01*
X013783Y014406D01*
X013738Y014344D01*
X013684Y014290D01*
X013622Y014245D01*
X013554Y014211D01*
X013481Y014187D01*
X013408Y014175D01*
X013408Y014620D01*
X013328Y014620D01*
X013328Y014175D01*
X013254Y014187D01*
X013182Y014211D01*
X013114Y014245D01*
X013052Y014290D01*
X012998Y014344D01*
X012953Y014406D01*
X012918Y014474D01*
X012895Y014546D01*
X012883Y014620D01*
X013328Y014620D01*
X013328Y014700D01*
X012883Y014700D01*
X012895Y014774D01*
X012918Y014846D01*
X012953Y014914D01*
X012998Y014976D01*
X013052Y015030D01*
X013114Y015075D01*
X013182Y015109D01*
X013145Y015091D02*
X012595Y015091D01*
X012741Y014973D02*
X012995Y014973D01*
X012922Y014854D02*
X012812Y014854D01*
X012853Y014736D02*
X012889Y014736D01*
X012884Y014617D02*
X012853Y014617D01*
X012826Y014499D02*
X012910Y014499D01*
X012972Y014380D02*
X012774Y014380D01*
X012655Y014262D02*
X013091Y014262D01*
X013328Y014262D02*
X013408Y014262D01*
X013408Y014380D02*
X013328Y014380D01*
X013328Y014499D02*
X013408Y014499D01*
X013408Y014617D02*
X013328Y014617D01*
X013328Y014736D02*
X013408Y014736D01*
X013408Y014854D02*
X013328Y014854D01*
X013328Y014973D02*
X013408Y014973D01*
X013408Y015091D02*
X013328Y015091D01*
X013408Y015175D02*
X013481Y015187D01*
X013554Y015211D01*
X013622Y015245D01*
X013684Y015290D01*
X013738Y015344D01*
X013783Y015406D01*
X013817Y015474D01*
X013841Y015546D01*
X013853Y015620D01*
X013408Y015620D01*
X013408Y015175D01*
X013408Y015210D02*
X013328Y015210D01*
X013328Y015328D02*
X013408Y015328D01*
X013408Y015447D02*
X013328Y015447D01*
X013328Y015565D02*
X013408Y015565D01*
X013408Y015684D02*
X013993Y015684D01*
X013993Y015802D02*
X013832Y015802D01*
X013778Y015921D02*
X013993Y015921D01*
X013993Y016039D02*
X013671Y016039D01*
X013408Y016039D02*
X013328Y016039D01*
X013328Y015921D02*
X013408Y015921D01*
X013408Y015802D02*
X013328Y015802D01*
X013328Y015684D02*
X012853Y015684D01*
X012853Y015565D02*
X012892Y015565D01*
X012932Y015447D02*
X012804Y015447D01*
X012722Y015328D02*
X013014Y015328D01*
X013551Y015210D02*
X013993Y015210D01*
X013993Y015328D02*
X013722Y015328D01*
X013803Y015447D02*
X013993Y015447D01*
X013993Y015565D02*
X013844Y015565D01*
X013993Y015091D02*
X013590Y015091D01*
X013740Y014973D02*
X013993Y014973D01*
X013993Y014854D02*
X013813Y014854D01*
X013847Y014736D02*
X013993Y014736D01*
X013993Y014617D02*
X013852Y014617D01*
X013825Y014499D02*
X013993Y014499D01*
X013993Y014380D02*
X013764Y014380D01*
X013645Y014262D02*
X013993Y014262D01*
X013993Y014143D02*
X009912Y014143D01*
X009793Y014025D02*
X013993Y014025D01*
X013993Y013906D02*
X009675Y013906D01*
X009556Y013788D02*
X013993Y013788D01*
X013993Y013669D02*
X009438Y013669D01*
X009205Y013551D02*
X010156Y013551D01*
X010145Y013539D02*
X010145Y013031D01*
X010238Y012937D01*
X010273Y012937D01*
X010273Y008508D01*
X010238Y008508D01*
X010145Y008414D01*
X010145Y007906D01*
X010238Y007812D01*
X010747Y007812D01*
X010841Y007906D01*
X010841Y008414D01*
X010747Y008508D01*
X010713Y008508D01*
X010713Y012937D01*
X010747Y012937D01*
X010841Y013031D01*
X010841Y013539D01*
X010747Y013633D01*
X010238Y013633D01*
X010145Y013539D01*
X010145Y013432D02*
X009216Y013432D01*
X009216Y013314D02*
X010145Y013314D01*
X010145Y013195D02*
X009216Y013195D01*
X009216Y013077D02*
X010145Y013077D01*
X010217Y012958D02*
X009143Y012958D01*
X009088Y012840D02*
X010273Y012840D01*
X010273Y012721D02*
X009088Y012721D01*
X009088Y012603D02*
X010273Y012603D01*
X010273Y012484D02*
X009088Y012484D01*
X009009Y012366D02*
X010273Y012366D01*
X010273Y012247D02*
X008891Y012247D01*
X008772Y012129D02*
X010273Y012129D01*
X010273Y012010D02*
X008654Y012010D01*
X008535Y011892D02*
X010273Y011892D01*
X010273Y011773D02*
X008463Y011773D01*
X008463Y011655D02*
X010273Y011655D01*
X010273Y011536D02*
X008463Y011536D01*
X008463Y011418D02*
X010273Y011418D01*
X010273Y011299D02*
X008463Y011299D01*
X008463Y011181D02*
X010273Y011181D01*
X010273Y011062D02*
X008463Y011062D01*
X008463Y010944D02*
X010273Y010944D01*
X010273Y010825D02*
X008463Y010825D01*
X008463Y010707D02*
X010273Y010707D01*
X010273Y010588D02*
X008463Y010588D01*
X008463Y010470D02*
X010273Y010470D01*
X010273Y010351D02*
X008463Y010351D01*
X008463Y010233D02*
X010273Y010233D01*
X010273Y010114D02*
X008463Y010114D01*
X008463Y009996D02*
X010273Y009996D01*
X010273Y009877D02*
X008463Y009877D01*
X008463Y009759D02*
X010273Y009759D01*
X010273Y009640D02*
X008463Y009640D01*
X008463Y009522D02*
X010273Y009522D01*
X010273Y009403D02*
X008463Y009403D01*
X008463Y009285D02*
X010273Y009285D01*
X010273Y009166D02*
X008463Y009166D01*
X008463Y009048D02*
X010273Y009048D01*
X010273Y008929D02*
X008463Y008929D01*
X008463Y008811D02*
X010273Y008811D01*
X010273Y008692D02*
X008463Y008692D01*
X008463Y008574D02*
X010273Y008574D01*
X010185Y008455D02*
X009425Y008455D01*
X009466Y008337D02*
X010145Y008337D01*
X010145Y008218D02*
X009466Y008218D01*
X009466Y008100D02*
X010145Y008100D01*
X010145Y007981D02*
X009516Y007981D01*
X009601Y007863D02*
X010188Y007863D01*
X010493Y008160D02*
X010493Y013285D01*
X010841Y013314D02*
X013993Y013314D01*
X013993Y013432D02*
X010841Y013432D01*
X010830Y013551D02*
X013993Y013551D01*
X013993Y013195D02*
X010841Y013195D01*
X010841Y013077D02*
X013993Y013077D01*
X013993Y012958D02*
X010768Y012958D01*
X010713Y012840D02*
X013993Y012840D01*
X013993Y012721D02*
X010713Y012721D01*
X010713Y012603D02*
X013993Y012603D01*
X013993Y012484D02*
X010713Y012484D01*
X010713Y012366D02*
X013993Y012366D01*
X013993Y012247D02*
X010713Y012247D01*
X010713Y012129D02*
X013993Y012129D01*
X013993Y012010D02*
X010713Y012010D01*
X010713Y011892D02*
X013993Y011892D01*
X013993Y011773D02*
X010713Y011773D01*
X010713Y011655D02*
X013993Y011655D01*
X013993Y011536D02*
X010713Y011536D01*
X010713Y011418D02*
X013993Y011418D01*
X013993Y011299D02*
X010713Y011299D01*
X010713Y011181D02*
X013993Y011181D01*
X013993Y011062D02*
X010713Y011062D01*
X010713Y010944D02*
X013993Y010944D01*
X013993Y010825D02*
X010713Y010825D01*
X010713Y010707D02*
X013993Y010707D01*
X013993Y010588D02*
X010713Y010588D01*
X010713Y010470D02*
X013993Y010470D01*
X013993Y010351D02*
X010713Y010351D01*
X010713Y010233D02*
X013993Y010233D01*
X013993Y010114D02*
X010713Y010114D01*
X010713Y009996D02*
X013993Y009996D01*
X013993Y009877D02*
X010713Y009877D01*
X010713Y009759D02*
X013993Y009759D01*
X013993Y009640D02*
X010713Y009640D01*
X010713Y009522D02*
X013993Y009522D01*
X013993Y009403D02*
X010713Y009403D01*
X010713Y009285D02*
X013993Y009285D01*
X013993Y009166D02*
X010713Y009166D01*
X010713Y009048D02*
X013993Y009048D01*
X013993Y008929D02*
X010713Y008929D01*
X010713Y008811D02*
X013993Y008811D01*
X013993Y008692D02*
X010713Y008692D01*
X010713Y008574D02*
X013993Y008574D01*
X013993Y008455D02*
X010800Y008455D01*
X010841Y008337D02*
X013993Y008337D01*
X013993Y008218D02*
X010841Y008218D01*
X010841Y008100D02*
X013993Y008100D01*
X013993Y007981D02*
X010841Y007981D01*
X010798Y007863D02*
X013993Y007863D01*
X013993Y007744D02*
X009685Y007744D01*
X009770Y007626D02*
X013993Y007626D01*
X013993Y007507D02*
X009855Y007507D01*
X009950Y007389D02*
X013993Y007389D01*
X013993Y007270D02*
X009963Y007270D01*
X009963Y007152D02*
X013993Y007152D01*
X013993Y007033D02*
X009963Y007033D01*
X009963Y006915D02*
X013993Y006915D01*
X013993Y006796D02*
X009963Y006796D01*
X009963Y006678D02*
X013993Y006678D01*
X013993Y006559D02*
X009963Y006559D01*
X009963Y006441D02*
X013993Y006441D01*
X013993Y006322D02*
X009963Y006322D01*
X009963Y006204D02*
X013993Y006204D01*
X013993Y006085D02*
X009963Y006085D01*
X009860Y005967D02*
X013993Y005967D01*
X013993Y005848D02*
X009742Y005848D01*
X009623Y005730D02*
X013993Y005730D01*
X013993Y005611D02*
X009505Y005611D01*
X009386Y005493D02*
X013993Y005493D01*
X013993Y005374D02*
X009268Y005374D01*
X009216Y005256D02*
X013993Y005256D01*
X013993Y005137D02*
X009216Y005137D01*
X009204Y005019D02*
X013993Y005019D01*
X013993Y004900D02*
X001493Y004900D01*
X001493Y004782D02*
X013993Y004782D01*
X013993Y004663D02*
X001493Y004663D01*
X001493Y004545D02*
X013993Y004545D01*
X013993Y004426D02*
X001493Y004426D01*
X001493Y004308D02*
X002252Y004308D01*
X002222Y004295D02*
X002102Y004175D01*
X002037Y004019D01*
X002037Y003849D01*
X002102Y003693D01*
X002222Y003573D01*
X002378Y003508D01*
X002548Y003508D01*
X002704Y003573D01*
X002824Y003693D01*
X002889Y003849D01*
X002889Y004019D01*
X002824Y004175D01*
X002704Y004295D01*
X002548Y004360D01*
X002378Y004360D01*
X002222Y004295D01*
X002116Y004189D02*
X001493Y004189D01*
X001493Y004071D02*
X002059Y004071D01*
X002037Y003952D02*
X001493Y003952D01*
X001493Y003834D02*
X002044Y003834D01*
X002093Y003715D02*
X001493Y003715D01*
X001493Y003597D02*
X002198Y003597D01*
X002728Y003597D02*
X006395Y003597D01*
X006395Y003715D02*
X002833Y003715D01*
X002882Y003834D02*
X006439Y003834D01*
X006395Y003478D02*
X001493Y003478D01*
X001493Y003360D02*
X006395Y003360D01*
X006434Y003241D02*
X001493Y003241D01*
X001493Y003123D02*
X006821Y003123D01*
X006928Y003004D02*
X001493Y003004D01*
X001493Y002886D02*
X007036Y002886D01*
X007144Y002767D02*
X001493Y002767D01*
X001493Y002649D02*
X007251Y002649D01*
X007359Y002530D02*
X001493Y002530D01*
X001493Y002412D02*
X007467Y002412D01*
X007575Y002293D02*
X001493Y002293D01*
X002182Y002175D02*
X007682Y002175D01*
X007993Y002160D02*
X010993Y002160D01*
X011493Y002660D01*
X011841Y002649D02*
X013993Y002649D01*
X013993Y002767D02*
X011841Y002767D01*
X011841Y002886D02*
X013993Y002886D01*
X013993Y003004D02*
X011751Y003004D01*
X011234Y003004D02*
X007523Y003004D01*
X007631Y002886D02*
X011145Y002886D01*
X011145Y002767D02*
X007738Y002767D01*
X007846Y002649D02*
X011145Y002649D01*
X011052Y002530D02*
X007954Y002530D01*
X008062Y002412D02*
X010933Y002412D01*
X011318Y002175D02*
X013993Y002175D01*
X013993Y002293D02*
X011437Y002293D01*
X011841Y002412D02*
X013993Y002412D01*
X013993Y002530D02*
X011841Y002530D01*
X013993Y003123D02*
X007415Y003123D01*
X007307Y003241D02*
X013993Y003241D01*
X013993Y003360D02*
X007200Y003360D01*
X007092Y003478D02*
X013993Y003478D01*
X013993Y003597D02*
X007091Y003597D01*
X007091Y003715D02*
X013993Y003715D01*
X013993Y003834D02*
X007047Y003834D01*
X006743Y003535D02*
X007993Y002160D01*
X008532Y005019D02*
X001493Y005019D01*
X001493Y005137D02*
X008520Y005137D01*
X008520Y005256D02*
X002584Y005256D01*
X002548Y005240D02*
X002704Y005305D01*
X002824Y005425D01*
X002889Y005581D01*
X002889Y005751D01*
X002824Y005907D01*
X002704Y006027D01*
X002548Y006092D01*
X002378Y006092D01*
X002222Y006027D01*
X002102Y005907D01*
X002037Y005751D01*
X002037Y005581D01*
X002102Y005425D01*
X002222Y005305D01*
X002378Y005240D01*
X002548Y005240D01*
X002342Y005256D02*
X001493Y005256D01*
X001493Y005374D02*
X002153Y005374D01*
X002074Y005493D02*
X001493Y005493D01*
X001493Y005611D02*
X002037Y005611D01*
X002037Y005730D02*
X001493Y005730D01*
X001493Y005848D02*
X002077Y005848D01*
X002161Y005967D02*
X001493Y005967D01*
X001493Y006085D02*
X002362Y006085D01*
X002564Y006085D02*
X009357Y006085D01*
X009238Y005967D02*
X002765Y005967D01*
X002848Y005848D02*
X009120Y005848D01*
X009001Y005730D02*
X002889Y005730D01*
X002889Y005611D02*
X008591Y005611D01*
X008520Y005493D02*
X002852Y005493D01*
X002773Y005374D02*
X008520Y005374D01*
X008868Y005285D02*
X009743Y006160D01*
X009743Y007285D01*
X009118Y008160D01*
X008770Y008218D02*
X008463Y008218D01*
X008463Y008100D02*
X008770Y008100D01*
X008770Y007981D02*
X008463Y007981D01*
X008463Y007863D02*
X008813Y007863D01*
X009145Y007744D02*
X008463Y007744D01*
X008463Y007626D02*
X009229Y007626D01*
X009314Y007507D02*
X008463Y007507D01*
X008463Y007389D02*
X009399Y007389D01*
X009483Y007270D02*
X008463Y007270D01*
X008463Y007152D02*
X009523Y007152D01*
X009523Y007033D02*
X008556Y007033D01*
X008674Y006915D02*
X009523Y006915D01*
X009243Y006535D02*
X008743Y006535D01*
X008243Y007035D01*
X008243Y011910D01*
X008868Y012535D01*
X008868Y013285D01*
X008520Y013314D02*
X001493Y013314D01*
X001493Y013432D02*
X008520Y013432D01*
X008531Y013551D02*
X001493Y013551D01*
X001493Y013195D02*
X008520Y013195D01*
X008520Y013077D02*
X001493Y013077D01*
X001493Y012958D02*
X008592Y012958D01*
X008648Y012840D02*
X001493Y012840D01*
X001493Y012721D02*
X008648Y012721D01*
X008624Y012603D02*
X001493Y012603D01*
X001493Y012484D02*
X008506Y012484D01*
X008387Y012366D02*
X001493Y012366D01*
X001493Y012247D02*
X008269Y012247D01*
X008150Y012129D02*
X001493Y012129D01*
X001493Y012010D02*
X008032Y012010D01*
X008023Y011892D02*
X001493Y011892D01*
X001493Y011773D02*
X008023Y011773D01*
X008023Y011655D02*
X001493Y011655D01*
X001493Y011536D02*
X008023Y011536D01*
X008023Y011418D02*
X001493Y011418D01*
X001493Y011299D02*
X008023Y011299D01*
X008023Y011181D02*
X001493Y011181D01*
X001493Y011062D02*
X008023Y011062D01*
X008023Y010944D02*
X001493Y010944D01*
X001493Y010825D02*
X008023Y010825D01*
X008023Y010707D02*
X001493Y010707D01*
X001493Y010588D02*
X008023Y010588D01*
X008023Y010470D02*
X001493Y010470D01*
X001493Y010351D02*
X008023Y010351D01*
X008023Y010233D02*
X001493Y010233D01*
X001493Y010114D02*
X008023Y010114D01*
X008023Y009996D02*
X001493Y009996D01*
X001493Y009877D02*
X008023Y009877D01*
X008023Y009759D02*
X001493Y009759D01*
X001493Y009640D02*
X008023Y009640D01*
X008023Y009522D02*
X001493Y009522D01*
X001493Y009403D02*
X008023Y009403D01*
X008023Y009285D02*
X001493Y009285D01*
X001493Y009166D02*
X008023Y009166D01*
X008023Y009048D02*
X001493Y009048D01*
X001493Y008929D02*
X008023Y008929D01*
X008023Y008811D02*
X001493Y008811D01*
X001493Y008692D02*
X008023Y008692D01*
X008023Y008574D02*
X001493Y008574D01*
X001493Y008455D02*
X008023Y008455D01*
X008023Y008337D02*
X001493Y008337D01*
X001493Y008218D02*
X008023Y008218D01*
X008023Y008100D02*
X001493Y008100D01*
X001493Y007981D02*
X008023Y007981D01*
X008023Y007863D02*
X001493Y007863D01*
X001493Y007744D02*
X008023Y007744D01*
X008023Y007626D02*
X001493Y007626D01*
X001493Y007507D02*
X008023Y007507D01*
X008023Y007389D02*
X001493Y007389D01*
X001493Y007270D02*
X008023Y007270D01*
X008023Y007152D02*
X001493Y007152D01*
X001493Y007033D02*
X008023Y007033D01*
X008052Y006915D02*
X001493Y006915D01*
X001493Y006796D02*
X008171Y006796D01*
X008289Y006678D02*
X001493Y006678D01*
X001493Y006559D02*
X008408Y006559D01*
X008526Y006441D02*
X001493Y006441D01*
X001493Y006322D02*
X008645Y006322D01*
X008972Y006204D02*
X001493Y006204D01*
X002673Y004308D02*
X013993Y004308D01*
X013993Y004189D02*
X002810Y004189D01*
X002867Y004071D02*
X013993Y004071D01*
X013993Y003952D02*
X002889Y003952D01*
X008793Y006796D02*
X008901Y006796D01*
X008770Y008337D02*
X008463Y008337D01*
X008463Y008455D02*
X008810Y008455D01*
X009171Y014025D02*
X006793Y014025D01*
X006912Y014143D02*
X009290Y014143D01*
X009080Y014262D02*
X008655Y014262D01*
X008774Y014380D02*
X008962Y014380D01*
X008910Y014499D02*
X008826Y014499D01*
X008853Y014617D02*
X008883Y014617D01*
X008883Y014736D02*
X008853Y014736D01*
X008812Y014854D02*
X008923Y014854D01*
X008991Y014973D02*
X008994Y014973D01*
X009110Y015091D02*
X009141Y015091D01*
X008868Y015160D02*
X006993Y015160D01*
X006868Y015035D01*
X006868Y014410D01*
X006618Y014160D01*
X003118Y014160D01*
X002868Y014410D01*
X002868Y018410D01*
X003868Y019410D01*
X003868Y020910D01*
X003648Y020898D02*
X001493Y020898D01*
X001493Y020883D02*
X001493Y020937D01*
X001643Y020999D01*
X001779Y021135D01*
X001853Y021314D01*
X001853Y021506D01*
X001789Y021660D01*
X001946Y021660D01*
X001883Y021506D01*
X001883Y021314D01*
X001957Y021135D01*
X002093Y020999D01*
X002271Y020925D01*
X002464Y020925D01*
X002643Y020999D01*
X002779Y021135D01*
X002853Y021314D01*
X002853Y021506D01*
X002789Y021660D01*
X002951Y021660D01*
X002918Y021596D01*
X002895Y021524D01*
X002883Y021450D01*
X003328Y021450D01*
X003328Y021370D01*
X003408Y021370D01*
X003408Y021450D01*
X003853Y021450D01*
X003841Y021524D01*
X003817Y021596D01*
X003785Y021660D01*
X003946Y021660D01*
X003883Y021506D01*
X003883Y021314D01*
X003906Y021259D01*
X003648Y021001D01*
X003648Y020816D01*
X003643Y020821D01*
X003464Y020895D01*
X003271Y020895D01*
X003093Y020821D01*
X002957Y020685D01*
X002883Y020506D01*
X002883Y020314D01*
X002957Y020135D01*
X003093Y019999D01*
X003148Y019976D01*
X003148Y019626D01*
X002148Y018626D01*
X002148Y016094D01*
X002093Y016071D01*
X001957Y015935D01*
X001883Y015756D01*
X001883Y015564D01*
X001957Y015385D01*
X002093Y015249D01*
X002271Y015175D01*
X002464Y015175D01*
X002643Y015249D01*
X002648Y015254D01*
X002648Y015066D01*
X002643Y015071D01*
X002464Y015145D01*
X002271Y015145D01*
X002093Y015071D01*
X001957Y014935D01*
X001883Y014756D01*
X001883Y014564D01*
X001957Y014385D01*
X002093Y014249D01*
X002271Y014175D01*
X002464Y014175D01*
X002643Y014249D01*
X002680Y014286D01*
X002777Y014190D01*
X002962Y014005D01*
X001493Y014005D01*
X001493Y014187D01*
X001643Y014249D01*
X001779Y014385D01*
X001853Y014564D01*
X001853Y014756D01*
X001779Y014935D01*
X001643Y015071D01*
X001493Y015133D01*
X001493Y015187D01*
X001643Y015249D01*
X001779Y015385D01*
X001853Y015564D01*
X001853Y015756D01*
X001779Y015935D01*
X001643Y016071D01*
X001588Y016094D01*
X001588Y018444D01*
X002459Y019315D01*
X002588Y019444D01*
X002588Y019976D01*
X002643Y019999D01*
X002779Y020135D01*
X002853Y020314D01*
X002853Y020506D01*
X002779Y020685D01*
X002643Y020821D01*
X002464Y020895D01*
X002271Y020895D01*
X002093Y020821D01*
X001957Y020685D01*
X001883Y020506D01*
X001883Y020314D01*
X001957Y020135D01*
X002093Y019999D01*
X002148Y019976D01*
X002148Y019626D01*
X001493Y018971D01*
X001493Y019937D01*
X001643Y019999D01*
X001779Y020135D01*
X001853Y020314D01*
X001853Y020506D01*
X001779Y020685D01*
X001643Y020821D01*
X001493Y020883D01*
X001660Y021016D02*
X002076Y021016D01*
X001957Y021135D02*
X001778Y021135D01*
X001828Y021253D02*
X001908Y021253D01*
X001883Y021372D02*
X001853Y021372D01*
X001853Y021490D02*
X001883Y021490D01*
X001925Y021609D02*
X001811Y021609D01*
X002811Y021609D02*
X002925Y021609D01*
X002889Y021490D02*
X002853Y021490D01*
X002853Y021372D02*
X003328Y021372D01*
X003328Y021370D02*
X002883Y021370D01*
X002895Y021296D01*
X002918Y021224D01*
X002953Y021156D01*
X002998Y021094D01*
X003052Y021040D01*
X003114Y020995D01*
X003182Y020961D01*
X003254Y020937D01*
X003328Y020925D01*
X003328Y021370D01*
X003408Y021370D02*
X003408Y020925D01*
X003481Y020937D01*
X003554Y020961D01*
X003622Y020995D01*
X003684Y021040D01*
X003738Y021094D01*
X003783Y021156D01*
X003817Y021224D01*
X003841Y021296D01*
X003853Y021370D01*
X003408Y021370D01*
X003408Y021372D02*
X003883Y021372D01*
X003883Y021490D02*
X003846Y021490D01*
X003811Y021609D02*
X003925Y021609D01*
X003900Y021253D02*
X003827Y021253D01*
X003781Y021135D02*
X003767Y021135D01*
X003663Y021016D02*
X003651Y021016D01*
X003408Y021016D02*
X003328Y021016D01*
X003328Y021135D02*
X003408Y021135D01*
X003408Y021253D02*
X003328Y021253D01*
X003085Y021016D02*
X002660Y021016D01*
X002778Y021135D02*
X002968Y021135D01*
X002909Y021253D02*
X002828Y021253D01*
X002685Y020779D02*
X003051Y020779D01*
X002947Y020661D02*
X002789Y020661D01*
X002838Y020542D02*
X002898Y020542D01*
X002883Y020424D02*
X002853Y020424D01*
X002849Y020305D02*
X002886Y020305D01*
X002935Y020187D02*
X002800Y020187D01*
X002712Y020068D02*
X003024Y020068D01*
X003148Y019950D02*
X002588Y019950D01*
X002588Y019831D02*
X003148Y019831D01*
X003148Y019713D02*
X002588Y019713D01*
X002588Y019594D02*
X003116Y019594D01*
X002997Y019476D02*
X002588Y019476D01*
X002501Y019357D02*
X002879Y019357D01*
X002760Y019239D02*
X002383Y019239D01*
X002264Y019120D02*
X002642Y019120D01*
X002523Y019002D02*
X002146Y019002D01*
X002027Y018883D02*
X002405Y018883D01*
X002286Y018765D02*
X001909Y018765D01*
X001790Y018646D02*
X002168Y018646D01*
X002148Y018528D02*
X001671Y018528D01*
X001588Y018409D02*
X002148Y018409D01*
X002148Y018291D02*
X001588Y018291D01*
X001588Y018172D02*
X002148Y018172D01*
X002148Y018054D02*
X001588Y018054D01*
X001588Y017935D02*
X002148Y017935D01*
X002148Y017817D02*
X001588Y017817D01*
X001588Y017698D02*
X002148Y017698D01*
X002148Y017580D02*
X001588Y017580D01*
X001588Y017461D02*
X002148Y017461D01*
X002148Y017343D02*
X001588Y017343D01*
X001588Y017224D02*
X002148Y017224D01*
X002148Y017106D02*
X001588Y017106D01*
X001588Y016987D02*
X002148Y016987D01*
X002148Y016869D02*
X001588Y016869D01*
X001588Y016750D02*
X002148Y016750D01*
X002148Y016632D02*
X001588Y016632D01*
X001588Y016513D02*
X002148Y016513D01*
X002148Y016395D02*
X001588Y016395D01*
X001588Y016276D02*
X002148Y016276D01*
X002148Y016158D02*
X001588Y016158D01*
X001675Y016039D02*
X002061Y016039D01*
X001951Y015921D02*
X001785Y015921D01*
X001834Y015802D02*
X001902Y015802D01*
X001883Y015684D02*
X001853Y015684D01*
X001853Y015565D02*
X001883Y015565D01*
X001931Y015447D02*
X001804Y015447D01*
X001722Y015328D02*
X002014Y015328D01*
X002188Y015210D02*
X001548Y015210D01*
X001595Y015091D02*
X002141Y015091D01*
X001994Y014973D02*
X001741Y014973D01*
X001812Y014854D02*
X001923Y014854D01*
X001883Y014736D02*
X001853Y014736D01*
X001853Y014617D02*
X001883Y014617D01*
X001910Y014499D02*
X001826Y014499D01*
X001774Y014380D02*
X001962Y014380D01*
X002080Y014262D02*
X001655Y014262D01*
X001493Y014143D02*
X002824Y014143D01*
X002942Y014025D02*
X001493Y014025D01*
X002655Y014262D02*
X002705Y014262D01*
X002648Y015091D02*
X002595Y015091D01*
X002548Y015210D02*
X002648Y015210D01*
X002368Y015660D02*
X002368Y018535D01*
X003368Y019535D01*
X003368Y020410D01*
X004088Y019950D02*
X004212Y019950D01*
X004088Y019831D02*
X007148Y019831D01*
X007148Y019950D02*
X006524Y019950D01*
X006712Y020068D02*
X007024Y020068D01*
X006935Y020187D02*
X006800Y020187D01*
X006849Y020305D02*
X006886Y020305D01*
X006883Y020424D02*
X006853Y020424D01*
X006838Y020542D02*
X006898Y020542D01*
X006947Y020661D02*
X006789Y020661D01*
X006685Y020779D02*
X007051Y020779D01*
X007182Y020961D02*
X007254Y020937D01*
X007328Y020925D01*
X007328Y021370D01*
X006883Y021370D01*
X006895Y021296D01*
X006918Y021224D01*
X006953Y021156D01*
X006998Y021094D01*
X007052Y021040D01*
X007114Y020995D01*
X007182Y020961D01*
X007085Y021016D02*
X006660Y021016D01*
X006778Y021135D02*
X006968Y021135D01*
X006909Y021253D02*
X006828Y021253D01*
X006853Y021372D02*
X007328Y021372D01*
X007408Y021372D02*
X007883Y021372D01*
X007853Y021370D02*
X007408Y021370D01*
X007408Y020925D01*
X007481Y020937D01*
X007554Y020961D01*
X007622Y020995D01*
X007684Y021040D01*
X007738Y021094D01*
X007783Y021156D01*
X007817Y021224D01*
X007841Y021296D01*
X007853Y021370D01*
X007827Y021253D02*
X007908Y021253D01*
X007957Y021135D02*
X007767Y021135D01*
X007651Y021016D02*
X008076Y021016D01*
X008051Y020779D02*
X007685Y020779D01*
X007789Y020661D02*
X007947Y020661D01*
X007898Y020542D02*
X007838Y020542D01*
X007853Y020424D02*
X007883Y020424D01*
X007886Y020305D02*
X007849Y020305D01*
X007800Y020187D02*
X007935Y020187D01*
X008024Y020068D02*
X007712Y020068D01*
X007588Y019950D02*
X008148Y019950D01*
X008103Y019831D02*
X007588Y019831D01*
X007588Y019713D02*
X007984Y019713D01*
X007741Y019594D02*
X007588Y019594D01*
X007622Y019476D02*
X007495Y019476D01*
X007459Y019440D02*
X007459Y019440D01*
X007504Y019357D02*
X007376Y019357D01*
X007385Y019239D02*
X007258Y019239D01*
X007267Y019120D02*
X007139Y019120D01*
X007148Y019002D02*
X007020Y019002D01*
X007030Y018883D02*
X006902Y018883D01*
X006911Y018765D02*
X006783Y018765D01*
X006793Y018646D02*
X006665Y018646D01*
X006674Y018528D02*
X006546Y018528D01*
X006556Y018409D02*
X006428Y018409D01*
X006437Y018291D02*
X006309Y018291D01*
X006319Y018172D02*
X006191Y018172D01*
X006200Y018054D02*
X006072Y018054D01*
X006082Y017935D02*
X005954Y017935D01*
X005963Y017817D02*
X005835Y017817D01*
X005845Y017698D02*
X005717Y017698D01*
X005726Y017580D02*
X005598Y017580D01*
X005608Y017461D02*
X005480Y017461D01*
X005489Y017343D02*
X005361Y017343D01*
X005371Y017224D02*
X005243Y017224D01*
X005252Y017106D02*
X005124Y017106D01*
X005134Y016987D02*
X005006Y016987D01*
X005015Y016869D02*
X004887Y016869D01*
X004897Y016750D02*
X004769Y016750D01*
X004778Y016632D02*
X004650Y016632D01*
X004660Y016513D02*
X004532Y016513D01*
X004648Y016395D02*
X004413Y016395D01*
X004295Y016276D02*
X004648Y016276D01*
X004648Y016158D02*
X004176Y016158D01*
X003868Y016160D02*
X007368Y019660D01*
X007368Y020410D01*
X007328Y021016D02*
X007408Y021016D01*
X007408Y021135D02*
X007328Y021135D01*
X007328Y021253D02*
X007408Y021253D01*
X007846Y021490D02*
X007883Y021490D01*
X007925Y021609D02*
X007811Y021609D01*
X006925Y021609D02*
X006811Y021609D01*
X006853Y021490D02*
X006889Y021490D01*
X008368Y020410D02*
X008368Y019785D01*
X007993Y019410D01*
X007868Y019410D01*
X004868Y016410D01*
X004868Y015160D01*
X005368Y014660D01*
X004368Y014660D02*
X004243Y014660D01*
X003868Y015035D01*
X003868Y016160D01*
X003648Y016158D02*
X003088Y016158D01*
X003088Y016276D02*
X003673Y016276D01*
X003791Y016395D02*
X003088Y016395D01*
X003088Y016513D02*
X003910Y016513D01*
X004028Y016632D02*
X003088Y016632D01*
X003088Y016750D02*
X004147Y016750D01*
X004265Y016869D02*
X003088Y016869D01*
X003088Y016987D02*
X004384Y016987D01*
X004502Y017106D02*
X003088Y017106D01*
X003088Y017224D02*
X004621Y017224D01*
X004739Y017343D02*
X003088Y017343D01*
X003088Y017461D02*
X004858Y017461D01*
X004976Y017580D02*
X003088Y017580D01*
X003088Y017698D02*
X005095Y017698D01*
X005213Y017817D02*
X003088Y017817D01*
X003088Y017935D02*
X005332Y017935D01*
X005450Y018054D02*
X003088Y018054D01*
X003088Y018172D02*
X005569Y018172D01*
X005687Y018291D02*
X003088Y018291D01*
X003178Y018409D02*
X005806Y018409D01*
X005924Y018528D02*
X003296Y018528D01*
X003415Y018646D02*
X006043Y018646D01*
X006161Y018765D02*
X003534Y018765D01*
X003652Y018883D02*
X006280Y018883D01*
X006398Y019002D02*
X003771Y019002D01*
X003889Y019120D02*
X006517Y019120D01*
X006635Y019239D02*
X004008Y019239D01*
X004088Y019357D02*
X006754Y019357D01*
X006872Y019476D02*
X004088Y019476D01*
X004088Y019594D02*
X006991Y019594D01*
X007109Y019713D02*
X004088Y019713D01*
X004524Y019950D02*
X005215Y019950D01*
X005328Y019950D02*
X005408Y019950D01*
X005520Y019950D02*
X006212Y019950D01*
X006024Y020068D02*
X005712Y020068D01*
X005798Y020187D02*
X005935Y020187D01*
X005886Y020305D02*
X005842Y020305D01*
X005408Y020187D02*
X005328Y020187D01*
X005328Y020068D02*
X005408Y020068D01*
X005024Y020068D02*
X004712Y020068D01*
X004800Y020187D02*
X004937Y020187D01*
X004893Y020305D02*
X004849Y020305D01*
X005328Y020542D02*
X005408Y020542D01*
X005408Y020661D02*
X005328Y020661D01*
X005328Y020779D02*
X005408Y020779D01*
X002368Y020410D02*
X002368Y019535D01*
X001368Y018535D01*
X001368Y015660D01*
X005868Y016285D02*
X008868Y019535D01*
X009216Y019594D02*
X009520Y019594D01*
X009520Y019713D02*
X009216Y019713D01*
X009216Y019476D02*
X009514Y019476D01*
X009404Y019357D02*
X009216Y019357D01*
X009174Y019239D02*
X009295Y019239D01*
X009185Y019120D02*
X008784Y019120D01*
X008675Y019002D02*
X009076Y019002D01*
X008967Y018883D02*
X008565Y018883D01*
X008456Y018765D02*
X008857Y018765D01*
X008748Y018646D02*
X008347Y018646D01*
X008237Y018528D02*
X008638Y018528D01*
X008529Y018409D02*
X008128Y018409D01*
X008018Y018291D02*
X008420Y018291D01*
X008310Y018172D02*
X007909Y018172D01*
X007800Y018054D02*
X008201Y018054D01*
X008092Y017935D02*
X007690Y017935D01*
X007581Y017817D02*
X007982Y017817D01*
X007873Y017698D02*
X007472Y017698D01*
X007362Y017580D02*
X007763Y017580D01*
X007654Y017461D02*
X007253Y017461D01*
X007143Y017343D02*
X007545Y017343D01*
X007435Y017224D02*
X007034Y017224D01*
X006925Y017106D02*
X007326Y017106D01*
X007216Y016987D02*
X006815Y016987D01*
X006706Y016869D02*
X007107Y016869D01*
X006998Y016750D02*
X006596Y016750D01*
X006612Y016632D02*
X006487Y016632D01*
X006520Y016513D02*
X006378Y016513D01*
X006268Y016395D02*
X006520Y016395D01*
X006520Y016276D02*
X006216Y016276D01*
X006216Y016158D02*
X006520Y016158D01*
X007675Y016039D02*
X008061Y016039D01*
X007951Y015921D02*
X007785Y015921D01*
X007834Y015802D02*
X007902Y015802D01*
X007883Y015684D02*
X007853Y015684D01*
X007853Y015565D02*
X007883Y015565D01*
X007931Y015447D02*
X007804Y015447D01*
X007812Y014854D02*
X007923Y014854D01*
X007883Y014736D02*
X007853Y014736D01*
X007853Y014617D02*
X007883Y014617D01*
X007910Y014499D02*
X007826Y014499D01*
X007774Y014380D02*
X007962Y014380D01*
X008080Y014262D02*
X007655Y014262D01*
X007080Y014262D02*
X007030Y014262D01*
X008868Y015160D02*
X009368Y015660D01*
X008883Y015684D02*
X008853Y015684D01*
X008853Y015565D02*
X008883Y015565D01*
X008843Y015447D02*
X008804Y015447D01*
X008834Y015802D02*
X008902Y015802D01*
X008951Y015921D02*
X008785Y015921D01*
X008675Y016039D02*
X009061Y016039D01*
X010722Y015328D02*
X011014Y015328D01*
X010931Y015447D02*
X010804Y015447D01*
X010853Y015565D02*
X010883Y015565D01*
X011722Y015328D02*
X012014Y015328D01*
X011931Y015447D02*
X011804Y015447D01*
X011853Y015565D02*
X011883Y015565D01*
X011883Y015684D02*
X011853Y015684D01*
X011834Y015802D02*
X011902Y015802D01*
X011951Y015921D02*
X011785Y015921D01*
X011675Y016039D02*
X012061Y016039D01*
X012675Y016039D02*
X013064Y016039D01*
X012958Y015921D02*
X012785Y015921D01*
X012834Y015802D02*
X012904Y015802D01*
X010080Y014262D02*
X010030Y014262D01*
X001879Y019357D02*
X001493Y019357D01*
X001493Y019239D02*
X001760Y019239D01*
X001642Y019120D02*
X001493Y019120D01*
X001493Y019002D02*
X001523Y019002D01*
X001493Y019476D02*
X001997Y019476D01*
X002116Y019594D02*
X001493Y019594D01*
X001493Y019713D02*
X002148Y019713D01*
X002148Y019831D02*
X001493Y019831D01*
X001524Y019950D02*
X002148Y019950D01*
X002024Y020068D02*
X001712Y020068D01*
X001800Y020187D02*
X001935Y020187D01*
X001886Y020305D02*
X001849Y020305D01*
X001853Y020424D02*
X001883Y020424D01*
X001898Y020542D02*
X001838Y020542D01*
X001789Y020661D02*
X001947Y020661D01*
X002051Y020779D02*
X001685Y020779D01*
D16*
X001743Y001285D03*
X017118Y001285D03*
X032743Y001285D03*
X032743Y021035D03*
X017118Y021035D03*
M02*
