G75*
G70*
%OFA0B0*%
%FSLAX24Y24*%
%IPPOS*%
%LPD*%
%AMOC8*
5,1,8,0,0,1.08239X$1,22.5*
%
%ADD10C,0.0730*%
%ADD11C,0.0820*%
%ADD12C,0.0820*%
%ADD13R,0.0456X0.0456*%
%ADD14C,0.1740*%
D10*
X001368Y014660D03*
X002368Y014660D03*
X003368Y014660D03*
X004368Y014660D03*
X005368Y014660D03*
X006368Y014660D03*
X007368Y014660D03*
X008368Y014660D03*
X009368Y014660D03*
X010368Y014660D03*
X011368Y014660D03*
X012368Y014660D03*
X013368Y014660D03*
X013368Y015660D03*
X012368Y015660D03*
X011368Y015660D03*
X010368Y015660D03*
X009368Y015660D03*
X008368Y015660D03*
X007368Y015660D03*
X006368Y015660D03*
X005368Y015660D03*
X004368Y015660D03*
X003368Y015660D03*
X002368Y015660D03*
X001368Y015660D03*
X001368Y020410D03*
X002368Y020410D03*
X003368Y020410D03*
X004368Y020410D03*
X005368Y020410D03*
X006368Y020410D03*
X007368Y020410D03*
X008368Y020410D03*
X009368Y020410D03*
X010368Y020410D03*
X011368Y020410D03*
X012368Y020410D03*
X013368Y020410D03*
X013368Y021410D03*
X012368Y021410D03*
X011368Y021410D03*
X010368Y021410D03*
X009368Y021410D03*
X008368Y021410D03*
X007368Y021410D03*
X006368Y021410D03*
X005368Y021410D03*
X004368Y021410D03*
X003368Y021410D03*
X002368Y021410D03*
X001368Y021410D03*
D11*
X016993Y010910D03*
X015993Y009660D03*
X014993Y008410D03*
X015993Y007160D03*
X016993Y005910D03*
X017993Y004660D03*
X018993Y003410D03*
X019993Y002160D03*
X021493Y002160D03*
X022993Y002160D03*
X024493Y002160D03*
X025993Y002160D03*
X027493Y002160D03*
X028493Y003410D03*
X029493Y004660D03*
X030493Y005910D03*
X031493Y007160D03*
X032493Y008410D03*
X031493Y009660D03*
X030493Y010910D03*
X029493Y012160D03*
X028493Y013410D03*
X027493Y014660D03*
X025993Y014660D03*
X024493Y014660D03*
X022993Y014660D03*
X021493Y014660D03*
X019993Y014660D03*
X020493Y016160D03*
X020493Y017660D03*
X020993Y018910D03*
X022243Y019910D03*
X023868Y020035D03*
X025493Y019910D03*
X026743Y018910D03*
X026993Y017660D03*
X026993Y016160D03*
X018993Y013410D03*
X017993Y012160D03*
X021743Y009410D03*
X019743Y008910D03*
X023743Y008160D03*
X025743Y007160D03*
X027743Y007660D03*
D12*
X029743Y008040D02*
X029743Y008780D01*
X017743Y008780D02*
X017743Y008040D01*
D13*
X010493Y008160D03*
X009118Y008160D03*
X009243Y006535D03*
X008868Y005285D03*
X008618Y003535D03*
X006743Y003535D03*
X011493Y002660D03*
X010493Y013285D03*
X009493Y013285D03*
X008868Y013285D03*
X006868Y016285D03*
X005868Y016285D03*
X008868Y019535D03*
X009868Y019535D03*
D14*
X001743Y001285D03*
X017118Y001285D03*
X032743Y001285D03*
X032743Y021035D03*
X017118Y021035D03*
M02*
