%
M48
M72
T01C0.0236
T02C0.0354
T03C0.0400
T04C0.0440
T05C0.1260
%
T01
X6743Y3535
X8618Y3535
X8868Y5285
X9243Y6535
X9118Y8160
X10493Y8160
X10493Y13285
X9493Y13285
X8868Y13285
X6868Y16285
X5868Y16285
X8868Y19535
X9868Y19535
X11493Y2660
T02
X2463Y3934
X2463Y5666
T03
X14993Y8410
X15993Y7160
X16993Y5910
X17993Y4660
X18993Y3410
X19993Y2160
X21493Y2160
X22993Y2160
X24493Y2160
X25993Y2160
X27493Y2160
X28493Y3410
X29493Y4660
X30493Y5910
X31493Y7160
X32493Y8410
X31493Y9660
X30493Y10910
X29493Y12160
X28493Y13410
X27493Y14660
X25993Y14660
X24493Y14660
X22993Y14660
X21493Y14660
X19993Y14660
X20493Y16160
X20493Y17660
X20993Y18910
X22243Y19910
X23868Y20035
X25493Y19910
X26743Y18910
X26993Y17660
X26993Y16160
X18993Y13410
X17993Y12160
X16993Y10910
X15993Y9660
X19743Y8910
X21743Y9410
X23743Y8160
X25743Y7160
X27743Y7660
X13368Y14660
X12368Y14660
X11368Y14660
X10368Y14660
X9368Y14660
X8368Y14660
X7368Y14660
X6368Y14660
X5368Y14660
X4368Y14660
X3368Y14660
X2368Y14660
X1368Y14660
X1368Y15660
X2368Y15660
X3368Y15660
X4368Y15660
X5368Y15660
X6368Y15660
X7368Y15660
X8368Y15660
X9368Y15660
X10368Y15660
X11368Y15660
X12368Y15660
X13368Y15660
X13368Y20410
X12368Y20410
X11368Y20410
X10368Y20410
X9368Y20410
X8368Y20410
X7368Y20410
X6368Y20410
X5368Y20410
X4368Y20410
X3368Y20410
X2368Y20410
X1368Y20410
X1368Y21410
X2368Y21410
X3368Y21410
X4368Y21410
X5368Y21410
X6368Y21410
X7368Y21410
X8368Y21410
X9368Y21410
X10368Y21410
X11368Y21410
X12368Y21410
X13368Y21410
T04
X17743Y8410
X29743Y8410
T05
X1743Y1285
X17118Y1285
X32743Y1285
X32743Y21035
X17118Y21035
M30
