G75*
G70*
%OFA0B0*%
%FSLAX24Y24*%
%IPPOS*%
%LPD*%
%AMOC8*
5,1,8,0,0,1.08239X$1,22.5*
%
%ADD10C,0.0040*%
%ADD11C,0.0050*%
%ADD12C,0.0120*%
%ADD13C,0.0030*%
%ADD14C,0.0070*%
%ADD15R,0.0070X0.0010*%
%ADD16R,0.0110X0.0010*%
%ADD17R,0.0160X0.0010*%
%ADD18R,0.0190X0.0010*%
%ADD19R,0.0220X0.0010*%
%ADD20R,0.0240X0.0010*%
%ADD21R,0.0260X0.0010*%
%ADD22R,0.0290X0.0010*%
%ADD23R,0.0310X0.0010*%
%ADD24R,0.0320X0.0010*%
%ADD25R,0.0340X0.0010*%
%ADD26R,0.0350X0.0010*%
%ADD27R,0.0370X0.0010*%
%ADD28R,0.0380X0.0010*%
%ADD29R,0.0360X0.0010*%
%ADD30R,0.0330X0.0010*%
%ADD31R,0.0300X0.0010*%
%ADD32R,0.0270X0.0010*%
%ADD33R,0.0230X0.0010*%
%ADD34R,0.0200X0.0010*%
%ADD35R,0.0180X0.0010*%
%ADD36R,0.0170X0.0010*%
%ADD37R,0.0150X0.0010*%
%ADD38R,0.0140X0.0010*%
%ADD39R,0.0130X0.0010*%
%ADD40R,0.0120X0.0010*%
%ADD41R,0.0100X0.0010*%
%ADD42R,0.0250X0.0010*%
%ADD43R,0.0390X0.0010*%
%ADD44R,0.0400X0.0010*%
%ADD45R,0.0410X0.0010*%
%ADD46R,0.0420X0.0010*%
%ADD47R,0.0430X0.0010*%
%ADD48R,0.0440X0.0010*%
%ADD49R,0.0450X0.0010*%
%ADD50R,0.0280X0.0010*%
%ADD51C,0.0060*%
%ADD52R,0.0128X0.0368*%
%ADD53C,0.0080*%
%ADD54R,0.0200X0.0200*%
%ADD55R,0.0669X0.0295*%
D10*
X005218Y001980D02*
X005218Y002740D01*
X005838Y002740D02*
X005838Y001980D01*
X011933Y002020D02*
X011933Y002780D01*
X012553Y002780D02*
X012553Y002020D01*
X012178Y005585D02*
X012178Y006345D01*
X011558Y006345D02*
X011558Y005585D01*
X007598Y009305D02*
X007598Y010065D01*
X006978Y010065D02*
X006978Y009305D01*
X007214Y011321D02*
X007521Y011321D01*
X007598Y011398D01*
X007598Y011551D01*
X007521Y011628D01*
X007368Y011628D01*
X007368Y011475D01*
X007214Y011628D02*
X007137Y011551D01*
X007137Y011398D01*
X007214Y011321D01*
X006598Y011398D02*
X006598Y011551D01*
X006521Y011628D01*
X006368Y011628D01*
X006368Y011475D01*
X006214Y011628D02*
X006137Y011551D01*
X006137Y011398D01*
X006214Y011321D01*
X006521Y011321D01*
X006598Y011398D01*
X006598Y011781D02*
X006137Y011781D01*
X006137Y012012D01*
X006214Y012088D01*
X006368Y012088D01*
X006444Y012012D01*
X006444Y011781D01*
X006598Y012242D02*
X006598Y012395D01*
X006598Y012319D02*
X006137Y012319D01*
X006137Y012395D02*
X006137Y012242D01*
X006214Y012549D02*
X006521Y012549D01*
X006598Y012626D01*
X006598Y012779D01*
X006521Y012856D01*
X006214Y012856D01*
X006137Y012779D01*
X006137Y012626D01*
X006214Y012549D01*
X006214Y013009D02*
X006137Y013086D01*
X006137Y013239D01*
X006214Y013316D01*
X006291Y013316D01*
X006598Y013009D01*
X006598Y013316D01*
X006521Y013470D02*
X006598Y013546D01*
X006598Y013700D01*
X006521Y013777D01*
X006444Y013777D01*
X006368Y013700D01*
X006368Y013623D01*
X006368Y013700D02*
X006291Y013777D01*
X006214Y013777D01*
X006137Y013700D01*
X006137Y013546D01*
X006214Y013470D01*
X005598Y013470D02*
X005598Y013777D01*
X005291Y013777D02*
X005214Y013777D01*
X005137Y013700D01*
X005137Y013546D01*
X005214Y013470D01*
X005214Y013316D02*
X005137Y013239D01*
X005137Y013086D01*
X005214Y013009D01*
X005214Y012856D02*
X005137Y012779D01*
X005137Y012626D01*
X005214Y012549D01*
X005521Y012549D01*
X005598Y012626D01*
X005598Y012779D01*
X005521Y012856D01*
X005214Y012856D01*
X005598Y013009D02*
X005291Y013316D01*
X005214Y013316D01*
X005598Y013316D02*
X005598Y013009D01*
X005598Y013470D02*
X005291Y013777D01*
X004598Y013777D02*
X004598Y013470D01*
X004598Y013623D02*
X004137Y013623D01*
X004291Y013470D01*
X004291Y013316D02*
X004214Y013316D01*
X004137Y013239D01*
X004137Y013086D01*
X004214Y013009D01*
X004214Y012856D02*
X004137Y012779D01*
X004137Y012626D01*
X004214Y012549D01*
X004521Y012549D01*
X004598Y012626D01*
X004598Y012779D01*
X004521Y012856D01*
X004214Y012856D01*
X004598Y013009D02*
X004291Y013316D01*
X004598Y013316D02*
X004598Y013009D01*
X004598Y012395D02*
X004598Y012242D01*
X004598Y012319D02*
X004137Y012319D01*
X004137Y012395D02*
X004137Y012242D01*
X004214Y012088D02*
X004368Y012088D01*
X004444Y012012D01*
X004444Y011781D01*
X004598Y011781D02*
X004137Y011781D01*
X004137Y012012D01*
X004214Y012088D01*
X004214Y011628D02*
X004137Y011551D01*
X004137Y011398D01*
X004214Y011321D01*
X004521Y011321D01*
X004598Y011398D01*
X004598Y011551D01*
X004521Y011628D01*
X004368Y011628D01*
X004368Y011475D01*
X005137Y011551D02*
X005137Y011398D01*
X005214Y011321D01*
X005521Y011321D01*
X005598Y011398D01*
X005598Y011551D01*
X005521Y011628D01*
X005368Y011628D01*
X005368Y011475D01*
X005214Y011628D02*
X005137Y011551D01*
X005137Y011781D02*
X005137Y012012D01*
X005214Y012088D01*
X005368Y012088D01*
X005444Y012012D01*
X005444Y011781D01*
X005598Y011781D02*
X005137Y011781D01*
X005137Y012242D02*
X005137Y012395D01*
X005137Y012319D02*
X005598Y012319D01*
X005598Y012395D02*
X005598Y012242D01*
X007137Y012242D02*
X007137Y012395D01*
X007137Y012319D02*
X007598Y012319D01*
X007598Y012395D02*
X007598Y012242D01*
X007444Y012012D02*
X007444Y011781D01*
X007598Y011781D02*
X007137Y011781D01*
X007137Y012012D01*
X007214Y012088D01*
X007368Y012088D01*
X007444Y012012D01*
X007521Y012549D02*
X007214Y012549D01*
X007137Y012626D01*
X007137Y012779D01*
X007214Y012856D01*
X007521Y012856D01*
X007598Y012779D01*
X007598Y012626D01*
X007521Y012549D01*
X007598Y013009D02*
X007291Y013316D01*
X007214Y013316D01*
X007137Y013239D01*
X007137Y013086D01*
X007214Y013009D01*
X007598Y013009D02*
X007598Y013316D01*
X007368Y013470D02*
X007368Y013777D01*
X007598Y013700D02*
X007137Y013700D01*
X007368Y013470D01*
X008137Y013470D02*
X008137Y013777D01*
X008291Y013700D02*
X008368Y013777D01*
X008521Y013777D01*
X008598Y013700D01*
X008598Y013546D01*
X008521Y013470D01*
X008368Y013470D02*
X008291Y013623D01*
X008291Y013700D01*
X008368Y013470D02*
X008137Y013470D01*
X008214Y013316D02*
X008137Y013239D01*
X008137Y013086D01*
X008214Y013009D01*
X008214Y012856D02*
X008137Y012779D01*
X008137Y012626D01*
X008214Y012549D01*
X008521Y012549D01*
X008598Y012626D01*
X008598Y012779D01*
X008521Y012856D01*
X008214Y012856D01*
X008598Y013009D02*
X008291Y013316D01*
X008214Y013316D01*
X008598Y013316D02*
X008598Y013009D01*
X008598Y012395D02*
X008598Y012242D01*
X008598Y012319D02*
X008137Y012319D01*
X008137Y012395D02*
X008137Y012242D01*
X008214Y012088D02*
X008368Y012088D01*
X008444Y012012D01*
X008444Y011781D01*
X008598Y011781D02*
X008137Y011781D01*
X008137Y012012D01*
X008214Y012088D01*
X008214Y011628D02*
X008137Y011551D01*
X008137Y011398D01*
X008214Y011321D01*
X008521Y011321D01*
X008598Y011398D01*
X008598Y011551D01*
X008521Y011628D01*
X008368Y011628D01*
X008368Y011475D01*
X011137Y012899D02*
X011137Y013246D01*
X011137Y013414D02*
X011484Y013414D01*
X011658Y013588D01*
X011484Y013761D01*
X011137Y013761D01*
X011398Y013246D02*
X011571Y013246D01*
X011658Y013159D01*
X011658Y012985D01*
X011571Y012899D01*
X011398Y012899D02*
X011311Y013072D01*
X011311Y013159D01*
X011398Y013246D01*
X011398Y012899D02*
X011137Y012899D01*
X013137Y012774D02*
X013658Y013121D01*
X013137Y013121D01*
X013137Y013289D02*
X013137Y013550D01*
X013224Y013636D01*
X013571Y013636D01*
X013658Y013550D01*
X013658Y013289D01*
X013137Y013289D01*
X013137Y012774D02*
X013658Y012774D01*
X013571Y012605D02*
X013398Y012605D01*
X013398Y012432D01*
X013571Y012605D02*
X013658Y012518D01*
X013658Y012345D01*
X013571Y012258D01*
X013224Y012258D01*
X013137Y012345D01*
X013137Y012518D01*
X013224Y012605D01*
X014526Y013173D02*
X014612Y013173D01*
X014786Y013173D02*
X015133Y013173D01*
X015133Y013086D02*
X015133Y013260D01*
X015133Y013430D02*
X014786Y013430D01*
X014786Y013690D01*
X014873Y013777D01*
X015133Y013777D01*
X015046Y013946D02*
X015133Y014032D01*
X015133Y014293D01*
X015220Y014293D02*
X014786Y014293D01*
X014786Y014032D01*
X014873Y013946D01*
X015046Y013946D01*
X015306Y014119D02*
X015306Y014206D01*
X015220Y014293D01*
X015626Y014377D02*
X015626Y014464D01*
X015626Y014377D02*
X015799Y014204D01*
X015626Y014204D02*
X015973Y014204D01*
X015626Y014034D02*
X015626Y013947D01*
X015799Y013774D01*
X015799Y013605D02*
X015799Y013258D01*
X015713Y013258D02*
X015626Y013345D01*
X015626Y013518D01*
X015713Y013605D01*
X015799Y013605D01*
X015973Y013518D02*
X015973Y013345D01*
X015886Y013258D01*
X015713Y013258D01*
X015713Y013090D02*
X015626Y013003D01*
X015626Y012743D01*
X015452Y012743D02*
X015973Y012743D01*
X015973Y013003D01*
X015886Y013090D01*
X015713Y013090D01*
X015133Y012657D02*
X014786Y012657D01*
X014786Y012487D02*
X014786Y012400D01*
X014959Y012227D01*
X014959Y012058D02*
X014959Y011798D01*
X015046Y011711D01*
X015133Y011798D01*
X015133Y012058D01*
X014873Y012058D01*
X014786Y011972D01*
X014786Y011798D01*
X014873Y011543D02*
X014786Y011456D01*
X014786Y011196D01*
X015306Y011196D01*
X015133Y011196D02*
X015133Y011456D01*
X015046Y011543D01*
X014873Y011543D01*
X014959Y011027D02*
X015046Y011027D01*
X015133Y010940D01*
X015133Y010767D01*
X015046Y010680D01*
X014873Y010767D02*
X014873Y010940D01*
X014959Y011027D01*
X014699Y011027D02*
X014612Y010940D01*
X014612Y010767D01*
X014699Y010680D01*
X014786Y010680D01*
X014873Y010767D01*
X015452Y010680D02*
X015452Y010940D01*
X015539Y011027D01*
X015713Y011027D01*
X015799Y010940D01*
X015799Y010680D01*
X015799Y010853D02*
X015973Y011027D01*
X015886Y011196D02*
X015799Y011282D01*
X015799Y011543D01*
X015713Y011543D02*
X015973Y011543D01*
X015973Y011282D01*
X015886Y011196D01*
X015626Y011282D02*
X015626Y011456D01*
X015713Y011543D01*
X015713Y011711D02*
X015626Y011798D01*
X015626Y012058D01*
X015626Y012227D02*
X015626Y012487D01*
X015713Y012574D01*
X015886Y012574D01*
X015973Y012487D01*
X015973Y012227D01*
X016146Y012227D02*
X015626Y012227D01*
X015799Y011972D02*
X015799Y011798D01*
X015713Y011711D01*
X015973Y011711D02*
X015973Y011972D01*
X015886Y012058D01*
X015799Y011972D01*
X015133Y012227D02*
X014786Y012227D01*
X014959Y012657D02*
X014786Y012830D01*
X014786Y012917D01*
X014786Y013086D02*
X014786Y013173D01*
X015626Y013774D02*
X015973Y013774D01*
X015886Y014633D02*
X015973Y014720D01*
X015973Y014980D01*
X016060Y014980D02*
X016146Y014893D01*
X016146Y014807D01*
X016060Y014980D02*
X015626Y014980D01*
X015626Y014633D02*
X015886Y014633D01*
X015133Y014977D02*
X015133Y015237D01*
X015046Y015324D01*
X014959Y015324D01*
X014873Y015237D01*
X014873Y014977D01*
X015133Y014977D02*
X014612Y014977D01*
X014612Y015237D01*
X014699Y015324D01*
X014786Y015324D01*
X014873Y015237D01*
X014873Y015493D02*
X015046Y015493D01*
X015133Y015579D01*
X015133Y015753D01*
X015046Y015840D01*
X014873Y015840D01*
X014786Y015753D01*
X014786Y015579D01*
X014873Y015493D01*
X015452Y015665D02*
X015452Y015925D01*
X015539Y016011D01*
X015713Y016011D01*
X015799Y015925D01*
X015799Y015665D01*
X015973Y015665D02*
X015452Y015665D01*
X015046Y016008D02*
X014959Y016095D01*
X014959Y016355D01*
X014873Y016355D02*
X015133Y016355D01*
X015133Y016095D01*
X015046Y016008D01*
X014786Y016095D02*
X014786Y016268D01*
X014873Y016355D01*
X014959Y016524D02*
X014786Y016697D01*
X014786Y016784D01*
X014873Y016954D02*
X014786Y017040D01*
X014786Y017301D01*
X014612Y017301D02*
X015133Y017301D01*
X015133Y017040D01*
X015046Y016954D01*
X014873Y016954D01*
X015452Y017040D02*
X015452Y017387D01*
X015626Y017642D02*
X015713Y017555D01*
X015886Y017555D01*
X015973Y017642D01*
X015973Y017902D01*
X015452Y017902D01*
X015626Y017902D02*
X015626Y017642D01*
X015626Y018071D02*
X015626Y018158D01*
X015973Y018158D01*
X015973Y018244D02*
X015973Y018071D01*
X015886Y018501D02*
X015539Y018501D01*
X015626Y018415D02*
X015626Y018588D01*
X015626Y018758D02*
X015626Y018845D01*
X015973Y018845D01*
X015973Y018758D02*
X015973Y018932D01*
X015886Y019102D02*
X015973Y019189D01*
X015973Y019362D01*
X015886Y019449D01*
X015713Y019449D01*
X015626Y019362D01*
X015626Y019189D01*
X015713Y019102D01*
X015886Y019102D01*
X015452Y018845D02*
X015366Y018845D01*
X015133Y018847D02*
X015133Y018501D01*
X015133Y018674D02*
X014612Y018674D01*
X014786Y018501D01*
X014786Y018332D02*
X015133Y018158D01*
X014786Y017985D01*
X015366Y018158D02*
X015452Y018158D01*
X015886Y018501D02*
X015973Y018588D01*
X015133Y019016D02*
X015133Y019103D01*
X015046Y019103D01*
X015046Y019016D01*
X015133Y019016D01*
X015133Y019274D02*
X014786Y019621D01*
X014699Y019621D01*
X014612Y019534D01*
X014612Y019361D01*
X014699Y019274D01*
X015133Y019274D02*
X015133Y019621D01*
X015626Y019618D02*
X015626Y019878D01*
X015713Y019965D01*
X015973Y019965D01*
X015973Y019618D02*
X015626Y019618D01*
X013555Y019397D02*
X013478Y019397D01*
X013325Y019243D01*
X013325Y019090D02*
X013325Y019397D01*
X013172Y019320D02*
X013095Y019397D01*
X012941Y019397D01*
X012865Y019320D01*
X012865Y019167D01*
X012941Y019090D01*
X013095Y019090D01*
X013172Y019167D01*
X013172Y019320D01*
X012711Y019397D02*
X012558Y019397D01*
X012634Y019474D02*
X012634Y019167D01*
X012711Y019090D01*
X012404Y019090D02*
X012174Y019090D01*
X012097Y019167D01*
X012097Y019320D01*
X012174Y019397D01*
X012404Y019397D01*
X011944Y019320D02*
X011944Y019243D01*
X011637Y019243D01*
X011637Y019167D02*
X011637Y019320D01*
X011714Y019397D01*
X011867Y019397D01*
X011944Y019320D01*
X011867Y019090D02*
X011714Y019090D01*
X011637Y019167D01*
X011483Y019090D02*
X011483Y019320D01*
X011407Y019397D01*
X011176Y019397D01*
X011176Y019090D01*
X011023Y019090D02*
X011023Y019320D01*
X010946Y019397D01*
X010716Y019397D01*
X010716Y019090D01*
X010563Y019167D02*
X010563Y019320D01*
X010486Y019397D01*
X010332Y019397D01*
X010256Y019320D01*
X010256Y019167D01*
X010332Y019090D01*
X010486Y019090D01*
X010563Y019167D01*
X010102Y019167D02*
X010025Y019090D01*
X009872Y019090D01*
X009795Y019167D01*
X009795Y019474D01*
X009872Y019550D01*
X010025Y019550D01*
X010102Y019474D01*
X009181Y019090D02*
X009028Y019090D01*
X009105Y019090D02*
X009105Y019397D01*
X009028Y019397D01*
X009105Y019550D02*
X009105Y019627D01*
X008875Y019474D02*
X008875Y019320D01*
X008798Y019243D01*
X008568Y019243D01*
X008568Y019090D02*
X008568Y019550D01*
X008798Y019550D01*
X008875Y019474D01*
X007954Y019397D02*
X007954Y019013D01*
X007877Y018937D01*
X007800Y018937D01*
X007724Y019090D02*
X007954Y019090D01*
X007724Y019090D02*
X007647Y019167D01*
X007647Y019397D01*
X007493Y019397D02*
X007417Y019397D01*
X007263Y019243D01*
X007263Y019090D02*
X007263Y019397D01*
X007110Y019397D02*
X007033Y019397D01*
X006879Y019243D01*
X006726Y019243D02*
X006419Y019243D01*
X006419Y019167D02*
X006419Y019320D01*
X006496Y019397D01*
X006649Y019397D01*
X006726Y019320D01*
X006726Y019243D01*
X006649Y019090D02*
X006496Y019090D01*
X006419Y019167D01*
X006266Y019167D02*
X006266Y019320D01*
X006189Y019397D01*
X005959Y019397D01*
X005959Y019550D02*
X005959Y019090D01*
X006189Y019090D01*
X006266Y019167D01*
X005805Y019167D02*
X005805Y019320D01*
X005728Y019397D01*
X005498Y019397D01*
X005498Y018937D01*
X005498Y019090D02*
X005728Y019090D01*
X005805Y019167D01*
X005345Y019167D02*
X005268Y019243D01*
X005115Y019243D01*
X005038Y019320D01*
X005115Y019397D01*
X005345Y019397D01*
X005345Y019167D02*
X005268Y019090D01*
X005038Y019090D01*
X004884Y019090D02*
X004654Y019090D01*
X004578Y019167D01*
X004654Y019243D01*
X004884Y019243D01*
X004884Y019320D02*
X004884Y019090D01*
X004884Y019320D02*
X004808Y019397D01*
X004654Y019397D01*
X004424Y019474D02*
X004424Y019320D01*
X004347Y019243D01*
X004117Y019243D01*
X004117Y019090D02*
X004117Y019550D01*
X004347Y019550D01*
X004424Y019474D01*
X004271Y019243D02*
X004424Y019090D01*
X003503Y019090D02*
X003503Y019320D01*
X003427Y019397D01*
X003196Y019397D01*
X003196Y019090D01*
X003043Y019090D02*
X002889Y019090D01*
X002966Y019090D02*
X002966Y019397D01*
X002889Y019397D01*
X002736Y019474D02*
X002736Y019320D01*
X002659Y019243D01*
X002429Y019243D01*
X002429Y019090D02*
X002429Y019550D01*
X002659Y019550D01*
X002736Y019474D01*
X002966Y019550D02*
X002966Y019627D01*
X001815Y019550D02*
X001662Y019474D01*
X001508Y019320D01*
X001738Y019320D01*
X001815Y019243D01*
X001815Y019167D01*
X001738Y019090D01*
X001585Y019090D01*
X001508Y019167D01*
X001508Y019320D01*
X001355Y019397D02*
X001355Y019474D01*
X001278Y019550D01*
X001125Y019550D01*
X001048Y019474D01*
X001355Y019397D02*
X001048Y019090D01*
X001355Y019090D01*
X003077Y018150D02*
X003077Y017977D01*
X003077Y018064D02*
X003598Y018064D01*
X003598Y018150D02*
X003598Y017977D01*
X003511Y017808D02*
X003598Y017722D01*
X003598Y017548D01*
X003511Y017461D01*
X003511Y017293D02*
X003164Y017293D01*
X003077Y017206D01*
X003077Y017032D01*
X003164Y016946D01*
X003511Y016946D01*
X003598Y017032D01*
X003598Y017206D01*
X003511Y017293D01*
X003338Y017548D02*
X003251Y017461D01*
X003164Y017461D01*
X003077Y017548D01*
X003077Y017722D01*
X003164Y017808D01*
X003338Y017722D02*
X003338Y017548D01*
X003338Y017722D02*
X003424Y017808D01*
X003511Y017808D01*
X004077Y017892D02*
X004164Y017805D01*
X004511Y017805D01*
X004598Y017892D01*
X004598Y018065D01*
X004511Y018152D01*
X004164Y018152D01*
X004077Y018065D01*
X004077Y017892D01*
X004164Y017636D02*
X004077Y017550D01*
X004077Y017376D01*
X004164Y017289D01*
X004251Y017289D01*
X004338Y017376D01*
X004338Y017550D01*
X004424Y017636D01*
X004511Y017636D01*
X004598Y017550D01*
X004598Y017376D01*
X004511Y017289D01*
X004598Y017119D02*
X004598Y016946D01*
X004598Y017032D02*
X004077Y017032D01*
X004077Y016946D02*
X004077Y017119D01*
X004077Y016777D02*
X004598Y016777D01*
X004251Y016603D02*
X004077Y016777D01*
X004251Y016603D02*
X004077Y016430D01*
X004598Y016430D01*
X005077Y016517D02*
X005164Y016430D01*
X005251Y016430D01*
X005338Y016517D01*
X005338Y016690D01*
X005424Y016777D01*
X005511Y016777D01*
X005598Y016690D01*
X005598Y016517D01*
X005511Y016430D01*
X005077Y016517D02*
X005077Y016690D01*
X005164Y016777D01*
X005164Y016946D02*
X005511Y016946D01*
X005598Y017032D01*
X005598Y017206D01*
X005511Y017293D01*
X005424Y017461D02*
X005077Y017808D01*
X005077Y017977D02*
X005598Y017977D01*
X005598Y018324D01*
X005598Y017808D02*
X005338Y017548D01*
X005598Y017461D02*
X005077Y017461D01*
X005164Y017293D02*
X005077Y017206D01*
X005077Y017032D01*
X005164Y016946D01*
X006077Y016946D02*
X006598Y016946D01*
X006598Y017293D01*
X006511Y017461D02*
X006164Y017808D01*
X006511Y017808D01*
X006598Y017722D01*
X006598Y017548D01*
X006511Y017461D01*
X006164Y017461D01*
X006077Y017548D01*
X006077Y017722D01*
X006164Y017808D01*
X006077Y017293D02*
X006077Y016946D01*
X006164Y016777D02*
X006077Y016690D01*
X006077Y016517D01*
X006164Y016430D01*
X006511Y016430D01*
X006598Y016517D01*
X006598Y016690D01*
X006511Y016777D01*
X006338Y016946D02*
X006338Y017119D01*
X007077Y016946D02*
X007598Y016946D01*
X007598Y017293D01*
X007598Y017461D02*
X007598Y017808D01*
X007598Y017635D02*
X007077Y017635D01*
X007251Y017461D01*
X007077Y017293D02*
X007077Y016946D01*
X007164Y016777D02*
X007077Y016690D01*
X007077Y016517D01*
X007164Y016430D01*
X007511Y016430D01*
X007598Y016517D01*
X007598Y016690D01*
X007511Y016777D01*
X007338Y016946D02*
X007338Y017119D01*
X008077Y017119D02*
X008598Y017119D01*
X008598Y016777D02*
X008424Y016603D01*
X008424Y016690D02*
X008424Y016430D01*
X008598Y016430D02*
X008077Y016430D01*
X008077Y016690D01*
X008164Y016777D01*
X008338Y016777D01*
X008424Y016690D01*
X008077Y016946D02*
X008077Y017293D01*
X008164Y017461D02*
X008251Y017461D01*
X008338Y017548D01*
X008338Y017722D01*
X008424Y017808D01*
X008511Y017808D01*
X008598Y017722D01*
X008598Y017548D01*
X008511Y017461D01*
X008164Y017461D02*
X008077Y017548D01*
X008077Y017722D01*
X008164Y017808D01*
X009077Y017722D02*
X009077Y017461D01*
X009598Y017461D01*
X009598Y017722D01*
X009511Y017808D01*
X009164Y017808D01*
X009077Y017722D01*
X009077Y017293D02*
X009598Y016946D01*
X009598Y016777D02*
X009424Y016603D01*
X009424Y016690D02*
X009424Y016430D01*
X009598Y016430D02*
X009077Y016430D01*
X009077Y016690D01*
X009164Y016777D01*
X009338Y016777D01*
X009424Y016690D01*
X010077Y016603D02*
X010598Y016603D01*
X011077Y016517D02*
X011164Y016430D01*
X011077Y016517D02*
X011077Y016690D01*
X011164Y016777D01*
X011251Y016777D01*
X011338Y016690D01*
X011424Y016777D01*
X011511Y016777D01*
X011598Y016690D01*
X011598Y016517D01*
X011511Y016430D01*
X011338Y016603D02*
X011338Y016690D01*
X011511Y016946D02*
X011511Y017032D01*
X011598Y017032D01*
X011598Y016946D01*
X011511Y016946D01*
X011511Y017203D02*
X011598Y017290D01*
X011598Y017464D01*
X011511Y017550D01*
X011424Y017550D01*
X011338Y017464D01*
X011338Y017377D01*
X011338Y017464D02*
X011251Y017550D01*
X011164Y017550D01*
X011077Y017464D01*
X011077Y017290D01*
X011164Y017203D01*
X010598Y017293D02*
X010077Y016946D01*
X010077Y016777D02*
X010077Y016430D01*
X010598Y016946D02*
X010077Y017293D01*
X010077Y017461D02*
X010077Y017722D01*
X010164Y017808D01*
X010511Y017808D01*
X010598Y017722D01*
X010598Y017461D01*
X010077Y017461D01*
X009598Y017293D02*
X009077Y016946D01*
X011077Y017719D02*
X011424Y017719D01*
X011598Y017893D01*
X011424Y018066D01*
X011077Y018066D01*
X012077Y017722D02*
X012077Y017548D01*
X012164Y017461D01*
X012251Y017461D01*
X012338Y017548D01*
X012338Y017722D01*
X012424Y017808D01*
X012511Y017808D01*
X012598Y017722D01*
X012598Y017548D01*
X012511Y017461D01*
X012077Y017293D02*
X012077Y016946D01*
X012077Y017119D02*
X012598Y017119D01*
X012511Y016777D02*
X012598Y016690D01*
X012598Y016517D01*
X012511Y016430D01*
X012164Y016430D01*
X012077Y016517D01*
X012077Y016690D01*
X012164Y016777D01*
X013202Y016690D02*
X013202Y016517D01*
X013289Y016430D01*
X013636Y016430D01*
X013723Y016517D01*
X013723Y016690D01*
X013636Y016777D01*
X013463Y016777D01*
X013463Y016603D01*
X013289Y016777D02*
X013202Y016690D01*
X013202Y016946D02*
X013723Y017293D01*
X013202Y017293D01*
X013202Y017461D02*
X013202Y017722D01*
X013289Y017808D01*
X013636Y017808D01*
X013723Y017722D01*
X013723Y017461D01*
X013202Y017461D01*
X013202Y016946D02*
X013723Y016946D01*
X014786Y016524D02*
X015133Y016524D01*
X015366Y016267D02*
X015452Y016267D01*
X015626Y016267D02*
X015626Y016180D01*
X015626Y016267D02*
X015973Y016267D01*
X015973Y016180D02*
X015973Y016354D01*
X015973Y017040D02*
X015452Y017040D01*
X015713Y017040D02*
X015713Y017213D01*
X015973Y017040D02*
X015973Y017387D01*
X012164Y017808D02*
X012077Y017722D01*
X006879Y019090D02*
X006879Y019397D01*
X003598Y016777D02*
X003077Y016777D01*
X003251Y016603D01*
X003077Y016430D01*
X003598Y016430D01*
X002598Y016517D02*
X002511Y016430D01*
X002598Y016517D02*
X002598Y016690D01*
X002511Y016777D01*
X002424Y016777D01*
X002338Y016690D01*
X002338Y016517D01*
X002251Y016430D01*
X002164Y016430D01*
X002077Y016517D01*
X002077Y016690D01*
X002164Y016777D01*
X002164Y016946D02*
X002511Y016946D01*
X002598Y017032D01*
X002598Y017206D01*
X002511Y017293D01*
X002598Y017461D02*
X002077Y017461D01*
X002164Y017293D02*
X002077Y017206D01*
X002077Y017032D01*
X002164Y016946D01*
X001598Y016946D02*
X001598Y017206D01*
X001511Y017293D01*
X001164Y017293D01*
X001077Y017206D01*
X001077Y016946D01*
X001598Y016946D01*
X001511Y016777D02*
X001424Y016777D01*
X001338Y016690D01*
X001338Y016517D01*
X001251Y016430D01*
X001164Y016430D01*
X001077Y016517D01*
X001077Y016690D01*
X001164Y016777D01*
X001511Y016777D02*
X001598Y016690D01*
X001598Y016517D01*
X001511Y016430D01*
X001598Y017461D02*
X001251Y017461D01*
X001077Y017635D01*
X001251Y017808D01*
X001598Y017808D01*
X001338Y017808D02*
X001338Y017461D01*
X002598Y017461D02*
X002598Y017808D01*
X002214Y013777D02*
X002137Y013777D01*
X002137Y013470D01*
X002137Y013163D02*
X002598Y013163D01*
X002598Y013316D02*
X002598Y013009D01*
X002521Y012856D02*
X002598Y012779D01*
X002598Y012626D01*
X002521Y012549D01*
X002214Y012549D01*
X002137Y012626D01*
X002137Y012779D01*
X002214Y012856D01*
X002521Y012856D01*
X002291Y013009D02*
X002137Y013163D01*
X002521Y013470D02*
X002598Y013470D01*
X002521Y013470D02*
X002214Y013777D01*
X001598Y013700D02*
X001137Y013700D01*
X001368Y013470D01*
X001368Y013777D01*
X001521Y013316D02*
X001214Y013316D01*
X001137Y013239D01*
X001137Y013086D01*
X001214Y013009D01*
X001521Y013009D01*
X001598Y013086D01*
X001598Y013239D01*
X001521Y013316D01*
X001598Y012856D02*
X001598Y012702D01*
X001598Y012779D02*
X001137Y012779D01*
X001137Y012702D02*
X001137Y012856D01*
X001214Y012549D02*
X001368Y012549D01*
X001444Y012472D01*
X001444Y012242D01*
X001598Y012242D02*
X001137Y012242D01*
X001137Y012472D01*
X001214Y012549D01*
X001214Y012088D02*
X001137Y012012D01*
X001137Y011858D01*
X001214Y011781D01*
X001521Y011781D01*
X001598Y011858D01*
X001598Y012012D01*
X001521Y012088D01*
X001368Y012088D01*
X001368Y011935D01*
X002137Y012012D02*
X002137Y011781D01*
X002598Y011781D01*
X002444Y011781D02*
X002444Y012012D01*
X002368Y012088D01*
X002214Y012088D01*
X002137Y012012D01*
X002137Y012242D02*
X002137Y012395D01*
X002137Y012319D02*
X002598Y012319D01*
X002598Y012395D02*
X002598Y012242D01*
X003137Y012242D02*
X003137Y012395D01*
X003137Y012319D02*
X003598Y012319D01*
X003598Y012395D02*
X003598Y012242D01*
X003444Y012012D02*
X003444Y011781D01*
X003598Y011781D02*
X003137Y011781D01*
X003137Y012012D01*
X003214Y012088D01*
X003368Y012088D01*
X003444Y012012D01*
X003368Y011628D02*
X003368Y011475D01*
X003368Y011628D02*
X003521Y011628D01*
X003598Y011551D01*
X003598Y011398D01*
X003521Y011321D01*
X003214Y011321D01*
X003137Y011398D01*
X003137Y011551D01*
X003214Y011628D01*
X002598Y011551D02*
X002598Y011398D01*
X002521Y011321D01*
X002214Y011321D01*
X002137Y011398D01*
X002137Y011551D01*
X002214Y011628D01*
X002368Y011628D02*
X002368Y011475D01*
X002368Y011628D02*
X002521Y011628D01*
X002598Y011551D01*
X003214Y012549D02*
X003521Y012549D01*
X003598Y012626D01*
X003598Y012779D01*
X003521Y012856D01*
X003214Y012856D01*
X003137Y012779D01*
X003137Y012626D01*
X003214Y012549D01*
X003291Y013009D02*
X003137Y013163D01*
X003598Y013163D01*
X003598Y013316D02*
X003598Y013009D01*
X003521Y013470D02*
X003444Y013470D01*
X003368Y013546D01*
X003368Y013700D01*
X003444Y013777D01*
X003521Y013777D01*
X003598Y013700D01*
X003598Y013546D01*
X003521Y013470D01*
X003368Y013546D02*
X003291Y013470D01*
X003214Y013470D01*
X003137Y013546D01*
X003137Y013700D01*
X003214Y013777D01*
X003291Y013777D01*
X003368Y013700D01*
X002703Y010090D02*
X002703Y009330D01*
X002083Y009330D02*
X002083Y010090D01*
X015452Y010680D02*
X015973Y010680D01*
X018388Y001200D02*
X018388Y000680D01*
X018735Y000680D02*
X018735Y000940D01*
X018648Y001027D01*
X018475Y001027D01*
X018388Y000940D01*
X018903Y001027D02*
X019077Y001027D01*
X018990Y001114D02*
X018990Y000767D01*
X019077Y000680D01*
X019334Y000767D02*
X019421Y000680D01*
X019334Y000767D02*
X019334Y001114D01*
X019247Y001027D02*
X019421Y001027D01*
X019591Y001027D02*
X019851Y001027D01*
X019938Y000940D01*
X019938Y000767D01*
X019851Y000680D01*
X019591Y000680D01*
X019591Y000507D02*
X019591Y001027D01*
X020107Y001027D02*
X020107Y000940D01*
X020193Y000940D01*
X020193Y001027D01*
X020107Y001027D01*
X020107Y000767D02*
X020107Y000680D01*
X020193Y000680D01*
X020193Y000767D01*
X020107Y000767D01*
X020364Y000680D02*
X020711Y001200D01*
X021227Y001200D02*
X020880Y000680D01*
X021396Y000680D02*
X021569Y000680D01*
X021482Y000680D02*
X021482Y001200D01*
X021396Y001200D01*
X021826Y001027D02*
X022000Y001027D01*
X022086Y000940D01*
X022086Y000680D01*
X021826Y000680D01*
X021739Y000767D01*
X021826Y000853D01*
X022086Y000853D01*
X022255Y000680D02*
X022515Y000680D01*
X022602Y000767D01*
X022602Y000940D01*
X022515Y001027D01*
X022255Y001027D01*
X022255Y001200D02*
X022255Y000680D01*
X022771Y000680D02*
X023031Y000680D01*
X023118Y000767D01*
X023031Y000853D01*
X022858Y000853D01*
X022771Y000940D01*
X022858Y001027D01*
X023118Y001027D01*
X023286Y000767D02*
X023373Y000767D01*
X023373Y000680D01*
X023286Y000680D01*
X023286Y000767D01*
X023544Y000680D02*
X023718Y000680D01*
X023631Y000680D02*
X023631Y001027D01*
X023544Y001027D01*
X023631Y001200D02*
X023631Y001287D01*
X023888Y001027D02*
X024148Y001027D01*
X024235Y000940D01*
X024235Y000680D01*
X024404Y000767D02*
X024490Y000680D01*
X024751Y000680D01*
X024751Y000593D02*
X024751Y001027D01*
X024490Y001027D01*
X024404Y000940D01*
X024404Y000767D01*
X024577Y000507D02*
X024664Y000507D01*
X024751Y000593D01*
X024919Y000767D02*
X025006Y000680D01*
X025266Y000680D01*
X025266Y001027D01*
X025522Y001027D02*
X025695Y001027D01*
X025782Y000940D01*
X025782Y000680D01*
X025522Y000680D01*
X025435Y000767D01*
X025522Y000853D01*
X025782Y000853D01*
X025951Y000853D02*
X026124Y001027D01*
X026211Y001027D01*
X026380Y000940D02*
X026467Y001027D01*
X026727Y001027D01*
X026896Y001027D02*
X026983Y001027D01*
X026983Y000680D01*
X027069Y000680D02*
X026896Y000680D01*
X026727Y000680D02*
X026467Y000680D01*
X026380Y000767D01*
X026380Y000940D01*
X026727Y001200D02*
X026727Y000680D01*
X027240Y000767D02*
X027326Y000680D01*
X027587Y000680D01*
X027587Y000940D01*
X027500Y001027D01*
X027326Y001027D01*
X027326Y000853D02*
X027587Y000853D01*
X027755Y000680D02*
X027755Y001027D01*
X028016Y001027D01*
X028102Y000940D01*
X028102Y000680D01*
X028271Y000680D02*
X028531Y000680D01*
X028618Y000767D01*
X028531Y000853D01*
X028358Y000853D01*
X028271Y000940D01*
X028358Y001027D01*
X028618Y001027D01*
X028787Y000767D02*
X028873Y000767D01*
X028873Y000680D01*
X028787Y000680D01*
X028787Y000767D01*
X029044Y000767D02*
X029131Y000680D01*
X029391Y000680D01*
X029560Y000767D02*
X029647Y000680D01*
X029820Y000680D01*
X029907Y000767D01*
X029907Y000940D01*
X029820Y001027D01*
X029647Y001027D01*
X029560Y000940D01*
X029560Y000767D01*
X029391Y001027D02*
X029131Y001027D01*
X029044Y000940D01*
X029044Y000767D01*
X030076Y000680D02*
X030076Y001027D01*
X030162Y001027D01*
X030249Y000940D01*
X030336Y001027D01*
X030423Y000940D01*
X030423Y000680D01*
X030249Y000680D02*
X030249Y000940D01*
X027326Y000853D02*
X027240Y000767D01*
X026983Y001200D02*
X026983Y001287D01*
X025951Y001027D02*
X025951Y000680D01*
X024919Y000767D02*
X024919Y001027D01*
X023888Y001027D02*
X023888Y000680D01*
X033126Y009142D02*
X033126Y009402D01*
X033213Y009571D02*
X033126Y009657D01*
X033126Y009831D01*
X033213Y009918D01*
X033299Y009918D01*
X033299Y009571D01*
X033213Y009571D02*
X033386Y009571D01*
X033473Y009657D01*
X033473Y009831D01*
X033386Y009402D02*
X033299Y009315D01*
X033299Y009142D01*
X033213Y009055D01*
X033126Y009142D01*
X033473Y009055D02*
X033473Y009315D01*
X033386Y009402D01*
X033386Y010086D02*
X033213Y010086D01*
X033126Y010173D01*
X033126Y010433D01*
X033126Y010602D02*
X033386Y010602D01*
X033473Y010689D01*
X033473Y010949D01*
X033126Y010949D01*
X033126Y011118D02*
X033473Y011118D01*
X033299Y011118D02*
X033126Y011291D01*
X033126Y011378D01*
X033126Y011547D02*
X033126Y011634D01*
X033473Y011634D01*
X033473Y011547D02*
X033473Y011721D01*
X033386Y011978D02*
X033039Y011978D01*
X033126Y012064D02*
X033126Y011891D01*
X033386Y011978D02*
X033473Y012064D01*
X033386Y012235D02*
X033126Y012235D01*
X033386Y012235D02*
X033473Y012322D01*
X033473Y012582D01*
X033560Y012582D02*
X033646Y012495D01*
X033646Y012408D01*
X033560Y012582D02*
X033126Y012582D01*
X033039Y012750D02*
X032952Y012837D01*
X032952Y013011D01*
X033039Y013097D01*
X033213Y013097D01*
X033299Y013011D01*
X033126Y013011D01*
X033126Y012837D01*
X033299Y012837D01*
X033299Y013011D01*
X033386Y013097D02*
X033473Y013011D01*
X033473Y012837D01*
X033386Y012750D01*
X033039Y012750D01*
X033126Y013266D02*
X033126Y013353D01*
X033473Y013353D01*
X033473Y013266D02*
X033473Y013440D01*
X033473Y013610D02*
X033126Y013610D01*
X033126Y013870D01*
X033213Y013957D01*
X033473Y013957D01*
X033386Y014125D02*
X033213Y014125D01*
X033126Y014212D01*
X033126Y014472D01*
X033560Y014472D01*
X033646Y014386D01*
X033646Y014299D01*
X033473Y014212D02*
X033473Y014472D01*
X033386Y014641D02*
X033473Y014728D01*
X033473Y014988D01*
X033126Y014988D01*
X033126Y015243D02*
X033126Y015417D01*
X033213Y015504D01*
X033473Y015504D01*
X033473Y015243D01*
X033386Y015157D01*
X033299Y015243D01*
X033299Y015504D01*
X033299Y015672D02*
X033126Y015846D01*
X033126Y015933D01*
X033213Y016102D02*
X033126Y016189D01*
X033126Y016449D01*
X033126Y016618D02*
X033126Y016704D01*
X033473Y016704D01*
X033473Y016618D02*
X033473Y016791D01*
X033386Y016961D02*
X033299Y017048D01*
X033299Y017308D01*
X033213Y017308D02*
X033473Y017308D01*
X033473Y017048D01*
X033386Y016961D01*
X033126Y017048D02*
X033126Y017222D01*
X033213Y017308D01*
X033126Y017477D02*
X033126Y017737D01*
X033213Y017824D01*
X033473Y017824D01*
X033473Y017993D02*
X033473Y018253D01*
X033386Y018340D01*
X033299Y018253D01*
X033299Y018079D01*
X033213Y017993D01*
X033126Y018079D01*
X033126Y018340D01*
X033386Y018508D02*
X033386Y018595D01*
X033473Y018595D01*
X033473Y018508D01*
X033386Y018508D01*
X033386Y018766D02*
X033213Y018766D01*
X033126Y018853D01*
X033126Y019113D01*
X033213Y019282D02*
X033386Y019282D01*
X033473Y019369D01*
X033473Y019542D01*
X033386Y019629D01*
X033213Y019629D01*
X033126Y019542D01*
X033126Y019369D01*
X033213Y019282D01*
X033473Y019113D02*
X033473Y018853D01*
X033386Y018766D01*
X033473Y019797D02*
X033126Y019797D01*
X033126Y019884D01*
X033213Y019971D01*
X033126Y020058D01*
X033213Y020144D01*
X033473Y020144D01*
X033473Y019971D02*
X033213Y019971D01*
X033126Y017477D02*
X033473Y017477D01*
X032952Y016704D02*
X032866Y016704D01*
X032952Y016449D02*
X033473Y016449D01*
X033473Y016189D01*
X033386Y016102D01*
X033213Y016102D01*
X033126Y015672D02*
X033473Y015672D01*
X033386Y014641D02*
X033126Y014641D01*
X033473Y014212D02*
X033386Y014125D01*
X032952Y013353D02*
X032866Y013353D01*
X032866Y011634D02*
X032952Y011634D01*
X033473Y010433D02*
X033473Y010173D01*
X033386Y010086D01*
D11*
X027657Y011879D02*
X027250Y011879D01*
X027250Y011980D02*
X027250Y011777D01*
X027352Y011675D01*
X027555Y011675D01*
X027657Y011879D02*
X027657Y011980D01*
X027555Y012082D01*
X027352Y012082D01*
X027250Y011980D01*
X027049Y011980D02*
X026845Y011980D01*
X026643Y011980D02*
X026440Y011980D01*
X026542Y012184D02*
X026643Y012286D01*
X026542Y012184D02*
X026542Y011675D01*
X026238Y011675D02*
X026035Y011675D01*
X026136Y011675D02*
X026136Y012082D01*
X026035Y012082D01*
X026136Y012286D02*
X026136Y012387D01*
X025731Y012286D02*
X025731Y011675D01*
X025630Y011675D02*
X025833Y011675D01*
X025429Y011675D02*
X025124Y011675D01*
X025022Y011777D01*
X025022Y011980D01*
X025124Y012082D01*
X025429Y012082D01*
X025630Y012286D02*
X025731Y012286D01*
X024821Y012286D02*
X024821Y011675D01*
X024516Y011675D01*
X024414Y011777D01*
X024414Y011980D01*
X024516Y012082D01*
X024821Y012082D01*
X024213Y011980D02*
X024213Y011675D01*
X023908Y011675D01*
X023806Y011777D01*
X023908Y011879D01*
X024213Y011879D01*
X024213Y011980D02*
X024112Y012082D01*
X023908Y012082D01*
X023606Y012184D02*
X023606Y011980D01*
X023504Y011879D01*
X023199Y011879D01*
X023402Y011879D02*
X023606Y011675D01*
X023199Y011675D02*
X023199Y012286D01*
X023504Y012286D01*
X023606Y012184D01*
X023302Y011296D02*
X023302Y010685D01*
X022997Y010685D01*
X022895Y010787D01*
X022895Y010990D01*
X022997Y011092D01*
X023302Y011092D01*
X023503Y010990D02*
X023503Y010787D01*
X023604Y010685D01*
X023910Y010685D01*
X024110Y010685D02*
X024314Y010685D01*
X024212Y010685D02*
X024212Y011296D01*
X024110Y011296D01*
X023910Y011092D02*
X023604Y011092D01*
X023503Y010990D01*
X022694Y010990D02*
X022694Y010685D01*
X022389Y010685D01*
X022287Y010787D01*
X022389Y010889D01*
X022694Y010889D01*
X022694Y010990D02*
X022592Y011092D01*
X022389Y011092D01*
X022086Y011092D02*
X021984Y011092D01*
X021781Y010889D01*
X021781Y011092D02*
X021781Y010685D01*
X021579Y010583D02*
X021477Y010481D01*
X021376Y010481D01*
X021579Y010583D02*
X021579Y011092D01*
X021579Y011296D02*
X021579Y011397D01*
X021477Y011675D02*
X021376Y011777D01*
X021477Y011879D01*
X021783Y011879D01*
X021783Y011980D02*
X021681Y012082D01*
X021477Y012082D01*
X021783Y011980D02*
X021783Y011675D01*
X021477Y011675D01*
X021073Y011777D02*
X021073Y012286D01*
X020971Y012286D02*
X021175Y012286D01*
X021073Y011777D02*
X020971Y011675D01*
X020870Y011675D01*
X020768Y011777D01*
X020870Y011296D02*
X021073Y011296D01*
X021175Y011194D01*
X021175Y010990D01*
X021073Y010889D01*
X021073Y011092D01*
X020870Y011092D01*
X020870Y010889D01*
X021073Y010889D01*
X021175Y010787D02*
X021073Y010685D01*
X020870Y010685D01*
X020768Y010787D01*
X020768Y011194D01*
X020870Y011296D01*
X021983Y011777D02*
X021983Y012082D01*
X021983Y011777D02*
X022085Y011675D01*
X022390Y011675D01*
X022390Y011573D02*
X022289Y011471D01*
X022187Y011471D01*
X022390Y011573D02*
X022390Y012082D01*
X024515Y011092D02*
X024617Y011092D01*
X024617Y010685D01*
X024515Y010685D02*
X024719Y010685D01*
X025022Y010685D02*
X025022Y011194D01*
X025124Y011296D01*
X025427Y011194D02*
X025529Y011296D01*
X025427Y011194D02*
X025427Y010685D01*
X025731Y010787D02*
X025731Y010990D01*
X025833Y011092D01*
X026036Y011092D01*
X026138Y010990D01*
X026138Y010889D01*
X025731Y010889D01*
X025731Y010787D02*
X025833Y010685D01*
X026036Y010685D01*
X026339Y010787D02*
X026746Y011194D01*
X026746Y010787D01*
X026644Y010685D01*
X026440Y010685D01*
X026339Y010787D01*
X026339Y011194D01*
X026440Y011296D01*
X026644Y011296D01*
X026746Y011194D01*
X026946Y011194D02*
X027048Y011296D01*
X027252Y011296D01*
X027353Y011194D01*
X027353Y011092D01*
X026946Y010685D01*
X027353Y010685D01*
X026947Y011675D02*
X026947Y012184D01*
X027049Y012286D01*
X025529Y010990D02*
X025326Y010990D01*
X025124Y010990D02*
X024921Y010990D01*
X024617Y011296D02*
X024617Y011397D01*
X024718Y006036D02*
X024718Y005425D01*
X024922Y005629D01*
X025125Y005425D01*
X025125Y006036D01*
X025427Y005832D02*
X025326Y005730D01*
X025326Y005527D01*
X025427Y005425D01*
X025631Y005425D01*
X025733Y005629D02*
X025326Y005629D01*
X025427Y005832D02*
X025631Y005832D01*
X025733Y005730D01*
X025733Y005629D01*
X025933Y005832D02*
X026239Y005832D01*
X026340Y005730D01*
X026340Y005527D01*
X026239Y005425D01*
X025933Y005425D01*
X025933Y006036D01*
X026541Y005730D02*
X026541Y005527D01*
X026643Y005425D01*
X026846Y005425D01*
X026948Y005629D02*
X026541Y005629D01*
X026541Y005730D02*
X026643Y005832D01*
X026846Y005832D01*
X026948Y005730D01*
X026948Y005629D01*
X027149Y005629D02*
X027352Y005832D01*
X027454Y005832D01*
X027149Y005832D02*
X027149Y005425D01*
X025226Y004842D02*
X025226Y004333D01*
X025125Y004231D01*
X025023Y004231D01*
X024921Y004435D02*
X025226Y004435D01*
X024921Y004435D02*
X024819Y004537D01*
X024819Y004842D01*
X024619Y004740D02*
X024619Y004435D01*
X024313Y004435D01*
X024212Y004537D01*
X024313Y004639D01*
X024619Y004639D01*
X024619Y004740D02*
X024517Y004842D01*
X024313Y004842D01*
X024011Y004842D02*
X024011Y004537D01*
X023909Y004435D01*
X023807Y004537D01*
X023706Y004435D01*
X023604Y004537D01*
X023604Y004842D01*
X023403Y004740D02*
X023403Y004435D01*
X023098Y004435D01*
X022996Y004537D01*
X023098Y004639D01*
X023403Y004639D01*
X023403Y004740D02*
X023301Y004842D01*
X023098Y004842D01*
X022794Y004842D02*
X022591Y004842D01*
X022693Y004944D02*
X022693Y004537D01*
X022794Y004435D01*
X022390Y004435D02*
X022390Y004842D01*
X021983Y004842D02*
X021983Y004537D01*
X022085Y004435D01*
X022390Y004435D01*
X021783Y004435D02*
X021477Y004435D01*
X021376Y004537D01*
X021376Y004740D01*
X021477Y004842D01*
X021783Y004842D01*
X021681Y005425D02*
X021783Y005527D01*
X021783Y005730D01*
X021681Y005832D01*
X021477Y005832D01*
X021376Y005730D01*
X021376Y005527D01*
X021477Y005425D01*
X021681Y005425D01*
X021983Y005425D02*
X021983Y005832D01*
X022289Y005832D01*
X022390Y005730D01*
X022390Y005425D01*
X023199Y005527D02*
X023300Y005425D01*
X023504Y005425D01*
X023606Y005527D01*
X023806Y005527D02*
X023908Y005527D01*
X023908Y005425D01*
X023806Y005425D01*
X023806Y005527D01*
X023606Y005934D02*
X023504Y006036D01*
X023300Y006036D01*
X023199Y005934D01*
X023199Y005527D01*
X021175Y005527D02*
X021073Y005425D01*
X020768Y005425D01*
X020768Y006036D01*
X021073Y006036D01*
X021175Y005934D01*
X021175Y005527D01*
X021073Y005046D02*
X020870Y005046D01*
X020768Y004944D01*
X020768Y004537D01*
X020870Y004435D01*
X021073Y004435D01*
X021175Y004537D01*
X021073Y004639D02*
X020870Y004639D01*
X020870Y004842D01*
X021073Y004842D01*
X021073Y004639D01*
X021175Y004740D01*
X021175Y004944D01*
X021073Y005046D01*
X009633Y009520D02*
X008833Y009520D01*
X005480Y009100D02*
X004456Y009100D01*
X004456Y010360D01*
X005480Y010360D01*
X005480Y009100D01*
D12*
X006653Y003360D02*
X006903Y003110D01*
X006653Y003110D01*
X006653Y002610D01*
X006653Y003110D02*
X006403Y003110D01*
X006653Y003360D01*
X010868Y003150D02*
X011118Y003150D01*
X011118Y002650D01*
X011118Y003150D02*
X011368Y003150D01*
X011118Y003400D01*
X010868Y003150D01*
D13*
X011044Y002399D02*
X010983Y002337D01*
X010983Y002152D01*
X011353Y002152D01*
X011353Y002337D01*
X011291Y002399D01*
X011044Y002399D01*
X010983Y002030D02*
X010983Y001783D01*
X011353Y001783D01*
X011353Y002030D01*
X011168Y001907D02*
X011168Y001783D01*
X011353Y001662D02*
X011353Y001415D01*
X010983Y001415D01*
X010373Y001035D02*
X010126Y000665D01*
X009881Y000665D02*
X009881Y001035D01*
X009758Y001035D02*
X010005Y001035D01*
X010126Y001035D02*
X010373Y000665D01*
X011758Y000727D02*
X011820Y000665D01*
X011943Y000665D01*
X012005Y000727D01*
X012005Y000788D01*
X011943Y000850D01*
X011881Y000850D01*
X011943Y000850D02*
X012005Y000912D01*
X012005Y000974D01*
X011943Y001035D01*
X011820Y001035D01*
X011758Y000974D01*
X012126Y000974D02*
X012188Y001035D01*
X012311Y001035D01*
X012373Y000974D01*
X012373Y000912D01*
X012311Y000850D01*
X012373Y000788D01*
X012373Y000727D01*
X012311Y000665D01*
X012188Y000665D01*
X012126Y000727D01*
X012250Y000850D02*
X012311Y000850D01*
X012494Y000727D02*
X012741Y000974D01*
X012741Y000727D01*
X012680Y000665D01*
X012556Y000665D01*
X012494Y000727D01*
X012494Y000974D01*
X012556Y001035D01*
X012680Y001035D01*
X012741Y000974D01*
X016458Y002395D02*
X016705Y002642D01*
X016705Y002704D01*
X016643Y002765D01*
X016520Y002765D01*
X016458Y002704D01*
X016458Y002395D02*
X016705Y002395D01*
X016826Y002457D02*
X017073Y002704D01*
X017073Y002457D01*
X017011Y002395D01*
X016888Y002395D01*
X016826Y002457D01*
X016826Y002704D01*
X016888Y002765D01*
X017011Y002765D01*
X017073Y002704D01*
X017194Y002642D02*
X017318Y002765D01*
X017318Y002395D01*
X017441Y002395D02*
X017194Y002395D01*
X017563Y002457D02*
X017624Y002395D01*
X017748Y002395D01*
X017810Y002457D01*
X017810Y002518D01*
X017748Y002580D01*
X017686Y002580D01*
X017748Y002580D02*
X017810Y002642D01*
X017810Y002704D01*
X017748Y002765D01*
X017624Y002765D01*
X017563Y002704D01*
X012898Y005207D02*
X012836Y005145D01*
X012589Y005392D01*
X012836Y005392D01*
X012898Y005330D01*
X012898Y005207D01*
X012836Y005145D02*
X012589Y005145D01*
X012528Y005207D01*
X012528Y005330D01*
X012589Y005392D01*
X012836Y005513D02*
X012836Y005575D01*
X012898Y005575D01*
X012898Y005513D01*
X012836Y005513D01*
X012898Y005697D02*
X012898Y005944D01*
X012898Y005821D02*
X012528Y005821D01*
X012651Y005697D01*
X012651Y006066D02*
X012836Y006066D01*
X012898Y006128D01*
X012898Y006313D01*
X012651Y006313D01*
X012713Y006434D02*
X012713Y006558D01*
X012898Y006434D02*
X012528Y006434D01*
X012528Y006681D01*
X011023Y005705D02*
X010777Y005705D01*
X010777Y006075D01*
X010655Y006014D02*
X010655Y005890D01*
X010593Y005828D01*
X010408Y005828D01*
X010408Y005705D02*
X010408Y006075D01*
X010593Y006075D01*
X010655Y006014D01*
X010532Y005828D02*
X010655Y005705D01*
X010287Y005705D02*
X010040Y005705D01*
X010287Y005952D01*
X010287Y006014D01*
X010225Y006075D01*
X010102Y006075D01*
X010040Y006014D01*
X009918Y006014D02*
X009918Y005952D01*
X009857Y005890D01*
X009918Y005828D01*
X009918Y005767D01*
X009857Y005705D01*
X009733Y005705D01*
X009672Y005767D01*
X009550Y005705D02*
X009303Y005705D01*
X009550Y005952D01*
X009550Y006014D01*
X009488Y006075D01*
X009365Y006075D01*
X009303Y006014D01*
X009182Y006014D02*
X009120Y006075D01*
X008997Y006075D01*
X008935Y006014D01*
X008935Y005952D01*
X008997Y005890D01*
X009120Y005890D01*
X009182Y005828D01*
X009182Y005767D01*
X009120Y005705D01*
X008997Y005705D01*
X008935Y005767D01*
X008814Y005705D02*
X008690Y005828D01*
X008752Y005828D02*
X008567Y005828D01*
X008567Y005705D02*
X008567Y006075D01*
X008752Y006075D01*
X008814Y006014D01*
X008814Y005890D01*
X008752Y005828D01*
X008076Y005705D02*
X007953Y005705D01*
X008014Y005705D02*
X008014Y006075D01*
X007953Y006075D02*
X008076Y006075D01*
X007831Y006014D02*
X007831Y005767D01*
X007770Y005705D01*
X007584Y005705D01*
X007584Y006075D01*
X007770Y006075D01*
X007831Y006014D01*
X007463Y006075D02*
X007216Y006075D01*
X007095Y006075D02*
X006848Y006075D01*
X006848Y005705D01*
X006848Y005890D02*
X006971Y005890D01*
X007340Y005705D02*
X007340Y006075D01*
X009672Y006014D02*
X009733Y006075D01*
X009857Y006075D01*
X009918Y006014D01*
X009857Y005890D02*
X009795Y005890D01*
X008488Y009060D02*
X008488Y009307D01*
X008488Y009183D02*
X008118Y009183D01*
X008241Y009060D01*
X008179Y009428D02*
X008118Y009490D01*
X008118Y009613D01*
X008179Y009675D01*
X008426Y009428D01*
X008488Y009490D01*
X008488Y009613D01*
X008426Y009675D01*
X008179Y009675D01*
X008241Y009797D02*
X008426Y009797D01*
X008488Y009858D01*
X008488Y010044D01*
X008241Y010044D01*
X008303Y010165D02*
X008303Y010288D01*
X008488Y010165D02*
X008118Y010165D01*
X008118Y010412D01*
X008179Y009428D02*
X008426Y009428D01*
X006523Y009450D02*
X006523Y009388D01*
X006461Y009388D01*
X006461Y009450D01*
X006523Y009450D01*
X006523Y009572D02*
X006523Y009819D01*
X006523Y009696D02*
X006153Y009696D01*
X006276Y009572D01*
X006214Y009267D02*
X006461Y009020D01*
X006523Y009082D01*
X006523Y009205D01*
X006461Y009267D01*
X006214Y009267D01*
X006153Y009205D01*
X006153Y009082D01*
X006214Y009020D01*
X006461Y009020D01*
X006461Y009941D02*
X006523Y010003D01*
X006523Y010188D01*
X006276Y010188D01*
X006338Y010309D02*
X006338Y010433D01*
X006523Y010309D02*
X006153Y010309D01*
X006153Y010556D01*
X006276Y009941D02*
X006461Y009941D01*
X004118Y009978D02*
X004118Y010102D01*
X004118Y010040D02*
X003748Y010040D01*
X003748Y009978D02*
X003748Y010102D01*
X003748Y010224D02*
X003748Y010471D01*
X003748Y010592D02*
X004118Y010592D01*
X004118Y010839D01*
X003933Y010716D02*
X003933Y010592D01*
X003748Y010592D02*
X003748Y010839D01*
X003748Y010347D02*
X004118Y010347D01*
X004118Y009857D02*
X003994Y009733D01*
X003994Y009795D02*
X003994Y009610D01*
X004118Y009610D02*
X003748Y009610D01*
X003748Y009795D01*
X003809Y009857D01*
X003933Y009857D01*
X003994Y009795D01*
X003933Y009489D02*
X003994Y009427D01*
X003994Y009242D01*
X003994Y009365D02*
X004118Y009489D01*
X003933Y009489D02*
X003809Y009489D01*
X003748Y009427D01*
X003748Y009242D01*
X004118Y009242D01*
X004118Y009120D02*
X004118Y008873D01*
X003748Y008873D01*
X003748Y009120D01*
X003933Y008997D02*
X003933Y008873D01*
X003748Y008752D02*
X003748Y008505D01*
X004118Y008505D01*
X003933Y008505D02*
X003933Y008628D01*
X001638Y008962D02*
X001576Y008900D01*
X001329Y009147D01*
X001576Y009147D01*
X001638Y009085D01*
X001638Y008962D01*
X001576Y008900D02*
X001329Y008900D01*
X001268Y008962D01*
X001268Y009085D01*
X001329Y009147D01*
X001576Y009268D02*
X001576Y009330D01*
X001638Y009330D01*
X001638Y009268D01*
X001576Y009268D01*
X001576Y009452D02*
X001329Y009452D01*
X001268Y009514D01*
X001268Y009638D01*
X001329Y009699D01*
X001576Y009452D01*
X001638Y009514D01*
X001638Y009638D01*
X001576Y009699D01*
X001329Y009699D01*
X001391Y009821D02*
X001268Y009944D01*
X001638Y009944D01*
X001638Y009821D02*
X001638Y010068D01*
X001576Y010189D02*
X001391Y010189D01*
X001576Y010189D02*
X001638Y010251D01*
X001638Y010436D01*
X001391Y010436D01*
X001453Y010557D02*
X001453Y010681D01*
X001638Y010557D02*
X001268Y010557D01*
X001268Y010804D01*
X004131Y005846D02*
X004193Y005846D01*
X004316Y005846D02*
X004563Y005846D01*
X004563Y005784D02*
X004563Y005908D01*
X004563Y005663D02*
X004378Y005663D01*
X004316Y005601D01*
X004316Y005416D01*
X004563Y005416D01*
X004563Y005294D02*
X004563Y005171D01*
X004563Y005232D02*
X004316Y005232D01*
X004316Y005171D01*
X004193Y005232D02*
X004131Y005232D01*
X004193Y005049D02*
X004563Y005049D01*
X004316Y004926D02*
X004193Y005049D01*
X004316Y004926D02*
X004193Y004802D01*
X004563Y004802D01*
X004501Y004313D02*
X004563Y004251D01*
X004563Y004066D01*
X004193Y004066D01*
X004193Y004251D01*
X004254Y004313D01*
X004316Y004313D01*
X004378Y004251D01*
X004378Y004066D01*
X004439Y003944D02*
X004501Y003944D01*
X004563Y003882D01*
X004563Y003759D01*
X004501Y003697D01*
X004501Y003576D02*
X004193Y003576D01*
X004254Y003697D02*
X004316Y003697D01*
X004378Y003759D01*
X004378Y003882D01*
X004439Y003944D01*
X004254Y003944D02*
X004193Y003882D01*
X004193Y003759D01*
X004254Y003697D01*
X004501Y003576D02*
X004563Y003514D01*
X004563Y003391D01*
X004501Y003329D01*
X004193Y003329D01*
X004378Y004251D02*
X004439Y004313D01*
X004501Y004313D01*
X004316Y005784D02*
X004316Y005846D01*
X006579Y002359D02*
X006518Y002297D01*
X006518Y002112D01*
X006888Y002112D01*
X006888Y002297D01*
X006826Y002359D01*
X006579Y002359D01*
X006518Y001990D02*
X006518Y001743D01*
X006888Y001743D01*
X006888Y001990D01*
X006703Y001867D02*
X006703Y001743D01*
X006888Y001622D02*
X006888Y001375D01*
X006518Y001375D01*
X006090Y000995D02*
X006151Y000934D01*
X005904Y000687D01*
X005966Y000625D01*
X006090Y000625D01*
X006151Y000687D01*
X006151Y000934D01*
X006090Y000995D02*
X005966Y000995D01*
X005904Y000934D01*
X005904Y000687D01*
X005783Y000687D02*
X005721Y000625D01*
X005598Y000625D01*
X005536Y000687D01*
X005415Y000687D02*
X005353Y000625D01*
X005230Y000625D01*
X005168Y000687D01*
X005291Y000810D02*
X005353Y000810D01*
X005415Y000748D01*
X005415Y000687D01*
X005353Y000810D02*
X005415Y000872D01*
X005415Y000934D01*
X005353Y000995D01*
X005230Y000995D01*
X005168Y000934D01*
X005536Y000934D02*
X005598Y000995D01*
X005721Y000995D01*
X005783Y000934D01*
X005783Y000872D01*
X005721Y000810D01*
X005783Y000748D01*
X005783Y000687D01*
X005721Y000810D02*
X005660Y000810D01*
X007293Y000748D02*
X007478Y000748D01*
X007540Y000810D01*
X007540Y000934D01*
X007478Y000995D01*
X007293Y000995D01*
X007293Y000625D01*
X007416Y000748D02*
X007540Y000625D01*
X007661Y000625D02*
X007908Y000995D01*
X007661Y000995D02*
X007908Y000625D01*
X027958Y020207D02*
X028020Y020145D01*
X028143Y020145D01*
X028205Y020207D01*
X028205Y020268D01*
X028143Y020330D01*
X028020Y020330D01*
X027958Y020392D01*
X027958Y020454D01*
X028020Y020515D01*
X028143Y020515D01*
X028205Y020454D01*
X028326Y020392D02*
X028388Y020392D01*
X028388Y020145D01*
X028326Y020145D02*
X028450Y020145D01*
X028572Y020145D02*
X028572Y020392D01*
X028757Y020392D01*
X028819Y020330D01*
X028819Y020145D01*
X028940Y020207D02*
X029002Y020145D01*
X029187Y020145D01*
X029308Y020207D02*
X029308Y020330D01*
X029370Y020392D01*
X029493Y020392D01*
X029555Y020330D01*
X029555Y020268D01*
X029308Y020268D01*
X029308Y020207D02*
X029370Y020145D01*
X029493Y020145D01*
X029187Y020392D02*
X029002Y020392D01*
X028940Y020330D01*
X028940Y020207D01*
X028388Y020515D02*
X028388Y020577D01*
X030045Y020454D02*
X030107Y020515D01*
X030230Y020515D01*
X030292Y020454D01*
X030292Y020392D01*
X030045Y020145D01*
X030292Y020145D01*
X030413Y020207D02*
X030660Y020454D01*
X030660Y020207D01*
X030598Y020145D01*
X030475Y020145D01*
X030413Y020207D01*
X030413Y020454D01*
X030475Y020515D01*
X030598Y020515D01*
X030660Y020454D01*
X030782Y020454D02*
X030782Y020207D01*
X031028Y020454D01*
X031028Y020207D01*
X030967Y020145D01*
X030843Y020145D01*
X030782Y020207D01*
X030782Y020454D02*
X030843Y020515D01*
X030967Y020515D01*
X031028Y020454D01*
X031150Y020454D02*
X031212Y020515D01*
X031335Y020515D01*
X031397Y020454D01*
X031397Y020392D01*
X031335Y020330D01*
X031397Y020268D01*
X031397Y020207D01*
X031335Y020145D01*
X031212Y020145D01*
X031150Y020207D01*
X031273Y020330D02*
X031335Y020330D01*
D14*
X030642Y020945D02*
X030510Y020945D01*
X030510Y021077D01*
X030642Y021077D01*
X030642Y020945D01*
X030245Y020945D02*
X029850Y020945D01*
X029718Y021077D01*
X029718Y021340D01*
X029850Y021472D01*
X030245Y021472D01*
X029453Y021340D02*
X029453Y020945D01*
X029453Y021340D02*
X029322Y021472D01*
X028926Y021472D01*
X028926Y020945D01*
X028662Y020945D02*
X028398Y020945D01*
X028530Y020945D02*
X028530Y021736D01*
X028398Y021736D02*
X028662Y021736D01*
X027342Y021077D02*
X027342Y020945D01*
X027210Y020945D01*
X027210Y021077D01*
X027342Y021077D01*
X027342Y020945D02*
X027079Y020681D01*
X026682Y020945D02*
X026814Y021077D01*
X026682Y021209D01*
X026418Y021209D01*
X026287Y021340D01*
X026418Y021472D01*
X026814Y021472D01*
X026682Y020945D02*
X026287Y020945D01*
X026022Y020945D02*
X026022Y021340D01*
X025890Y021472D01*
X025495Y021472D01*
X025495Y020945D01*
X025230Y020945D02*
X024835Y020945D01*
X024703Y021077D01*
X024835Y021209D01*
X025230Y021209D01*
X025230Y021340D02*
X025230Y020945D01*
X025230Y021340D02*
X025098Y021472D01*
X024835Y021472D01*
X024307Y021472D02*
X024307Y020945D01*
X024175Y020945D02*
X024439Y020945D01*
X023910Y020945D02*
X023515Y020945D01*
X023383Y021077D01*
X023383Y021340D01*
X023515Y021472D01*
X023910Y021472D01*
X023910Y021736D02*
X023910Y020945D01*
X024175Y021472D02*
X024307Y021472D01*
X024307Y021736D02*
X024307Y021867D01*
X023119Y021472D02*
X022987Y021472D01*
X022723Y021209D01*
X022723Y021472D02*
X022723Y020945D01*
X022458Y020945D02*
X022063Y020945D01*
X021931Y021077D01*
X022063Y021209D01*
X022458Y021209D01*
X022458Y021340D02*
X022327Y021472D01*
X022063Y021472D01*
X021667Y021472D02*
X021667Y020945D01*
X021271Y020945D01*
X021140Y021077D01*
X021140Y021472D01*
X020875Y021340D02*
X020875Y021077D01*
X020743Y020945D01*
X020479Y020945D01*
X020348Y021077D01*
X020348Y021604D01*
X020479Y021736D01*
X020743Y021736D01*
X020875Y021604D01*
X020875Y021340D02*
X020611Y021340D01*
X020083Y021340D02*
X020083Y020945D01*
X019556Y020945D02*
X019556Y021472D01*
X019951Y021472D01*
X020083Y021340D01*
X019291Y020945D02*
X019028Y020945D01*
X019160Y020945D02*
X019160Y021736D01*
X019291Y021736D02*
X019028Y021736D01*
X022458Y021340D02*
X022458Y020945D01*
D15*
X019443Y005620D03*
D16*
X019453Y005610D03*
X020073Y005220D03*
X020083Y005210D03*
X020093Y005200D03*
X020353Y004640D03*
D17*
X019978Y005300D03*
X019458Y005600D03*
D18*
X019463Y005590D03*
X019893Y005360D03*
X019913Y005350D03*
X020343Y004660D03*
D19*
X020338Y004670D03*
X020168Y005170D03*
X019858Y005380D03*
X019478Y005580D03*
D20*
X019488Y005570D03*
X019818Y005400D03*
X020198Y005150D03*
X020338Y004680D03*
D21*
X019788Y005410D03*
X019498Y005560D03*
D22*
X019513Y005550D03*
X019743Y005430D03*
X020223Y005120D03*
X020323Y004710D03*
D23*
X020323Y004720D03*
X020223Y005110D03*
X019523Y005540D03*
D24*
X019538Y005530D03*
X020218Y005100D03*
X020318Y004730D03*
D25*
X019548Y005520D03*
D26*
X019563Y005510D03*
X019663Y005460D03*
X020223Y005080D03*
X020313Y004750D03*
D27*
X020303Y004770D03*
X019613Y005480D03*
X019573Y005500D03*
D28*
X019588Y005490D03*
X020228Y005060D03*
X020298Y004790D03*
X020298Y004780D03*
D29*
X020308Y004760D03*
X020228Y005070D03*
X019638Y005470D03*
D30*
X019693Y005450D03*
X020223Y005090D03*
X020313Y004740D03*
D31*
X019718Y005440D03*
D32*
X019773Y005420D03*
X020213Y005130D03*
D33*
X020183Y005160D03*
X019833Y005390D03*
D34*
X019878Y005370D03*
X020148Y005180D03*
D35*
X019938Y005330D03*
X019928Y005340D03*
D36*
X019953Y005320D03*
X019963Y005310D03*
D37*
X019993Y005290D03*
X020003Y005280D03*
X020353Y004650D03*
D38*
X020028Y005260D03*
X020018Y005270D03*
D39*
X020043Y005250D03*
X020053Y005240D03*
D40*
X020068Y005230D03*
D41*
X020098Y005190D03*
D42*
X020203Y005140D03*
X020333Y004690D03*
D43*
X020293Y004800D03*
X020233Y005040D03*
X020233Y005050D03*
D44*
X020238Y005030D03*
X020288Y004820D03*
X020288Y004810D03*
D45*
X020283Y004830D03*
X020233Y005020D03*
D46*
X020238Y005010D03*
X020238Y005000D03*
X020278Y004850D03*
X020278Y004840D03*
D47*
X020273Y004860D03*
X020273Y004870D03*
X020253Y004950D03*
X020253Y004960D03*
X020253Y004970D03*
X020243Y004980D03*
X020243Y004990D03*
D48*
X020258Y004940D03*
X020258Y004930D03*
X020258Y004920D03*
X020268Y004900D03*
X020268Y004890D03*
X020268Y004880D03*
D49*
X020263Y004910D03*
D50*
X020328Y004700D03*
D51*
X010895Y004763D02*
X010895Y007067D01*
X006801Y007067D01*
X006801Y004763D01*
X010895Y004763D01*
X010330Y006683D02*
X010332Y006709D01*
X010338Y006735D01*
X010347Y006760D01*
X010360Y006783D01*
X010376Y006804D01*
X010395Y006822D01*
X010417Y006838D01*
X010440Y006850D01*
X010465Y006858D01*
X010491Y006863D01*
X010518Y006864D01*
X010544Y006861D01*
X010569Y006854D01*
X010594Y006844D01*
X010616Y006830D01*
X010637Y006813D01*
X010654Y006794D01*
X010669Y006772D01*
X010680Y006748D01*
X010688Y006722D01*
X010692Y006696D01*
X010692Y006670D01*
X010688Y006644D01*
X010680Y006618D01*
X010669Y006594D01*
X010654Y006572D01*
X010637Y006553D01*
X010616Y006536D01*
X010594Y006522D01*
X010569Y006512D01*
X010544Y006505D01*
X010518Y006502D01*
X010491Y006503D01*
X010465Y006508D01*
X010440Y006516D01*
X010417Y006528D01*
X010395Y006544D01*
X010376Y006562D01*
X010360Y006583D01*
X010347Y006606D01*
X010338Y006631D01*
X010332Y006657D01*
X010330Y006683D01*
D52*
X010255Y007266D03*
X009999Y007266D03*
X009744Y007266D03*
X009488Y007266D03*
X009232Y007266D03*
X008976Y007266D03*
X008720Y007266D03*
X008464Y007266D03*
X008208Y007266D03*
X007952Y007266D03*
X007696Y007266D03*
X007440Y007266D03*
X007184Y007266D03*
X010511Y007266D03*
X010511Y004564D03*
X010255Y004564D03*
X009999Y004564D03*
X009744Y004564D03*
X009488Y004564D03*
X009232Y004564D03*
X008976Y004564D03*
X008720Y004564D03*
X008464Y004564D03*
X008208Y004564D03*
X007952Y004564D03*
X007696Y004564D03*
X007440Y004564D03*
X007184Y004564D03*
D53*
X000691Y003304D02*
X000140Y003304D01*
X000140Y006296D01*
X000691Y006296D01*
X001951Y006296D02*
X002778Y006296D01*
X003762Y006020D02*
X003762Y005666D01*
X003762Y003934D02*
X003762Y003580D01*
X002778Y003304D02*
X001951Y003304D01*
X007259Y003305D02*
X007259Y002754D01*
X007377Y002478D02*
X007653Y002478D01*
X007889Y002242D01*
X007417Y002242D01*
X007653Y002478D01*
X007928Y002478D01*
X008047Y002754D02*
X008047Y003305D01*
X007259Y003305D01*
X007259Y001966D02*
X007259Y001415D01*
X008047Y001415D01*
X008047Y001966D01*
X009724Y002006D02*
X009724Y001455D01*
X010512Y001455D01*
X010512Y002006D01*
X010354Y002282D02*
X010118Y002518D01*
X009882Y002282D01*
X010354Y002282D01*
X010393Y002518D02*
X010118Y002518D01*
X009842Y002518D01*
X009724Y002794D02*
X009724Y003345D01*
X010512Y003345D01*
X010512Y002794D01*
X016493Y005660D02*
X016743Y005410D01*
X017243Y005410D01*
X017493Y005660D01*
X017493Y006160D01*
X017243Y006410D01*
X016743Y006410D01*
X016493Y006160D01*
X016493Y005660D01*
X017493Y004910D02*
X017493Y004410D01*
X017743Y004160D01*
X018243Y004160D01*
X018493Y004410D01*
X018493Y004910D01*
X018243Y005160D01*
X017743Y005160D01*
X017493Y004910D01*
X018743Y003910D02*
X018493Y003660D01*
X018493Y003160D01*
X018743Y002910D01*
X019243Y002910D01*
X019493Y003160D01*
X019493Y003660D01*
X019243Y003910D01*
X018743Y003910D01*
X019743Y002660D02*
X019493Y002410D01*
X019493Y001910D01*
X019743Y001660D01*
X020243Y001660D01*
X020493Y001910D01*
X020493Y002410D01*
X020243Y002660D01*
X019743Y002660D01*
X020993Y002410D02*
X020993Y001910D01*
X021243Y001660D01*
X021743Y001660D01*
X021993Y001910D01*
X021993Y002410D01*
X021743Y002660D01*
X021243Y002660D01*
X020993Y002410D01*
X022493Y002410D02*
X022493Y001910D01*
X022743Y001660D01*
X023243Y001660D01*
X023493Y001910D01*
X023493Y002410D01*
X023243Y002660D01*
X022743Y002660D01*
X022493Y002410D01*
X023993Y002410D02*
X023993Y001910D01*
X024243Y001660D01*
X024743Y001660D01*
X024993Y001910D01*
X024993Y002410D01*
X024743Y002660D01*
X024243Y002660D01*
X023993Y002410D01*
X025493Y002410D02*
X025493Y001910D01*
X025743Y001660D01*
X026243Y001660D01*
X026493Y001910D01*
X026493Y002410D01*
X026243Y002660D01*
X025743Y002660D01*
X025493Y002410D01*
X026993Y002410D02*
X026993Y001910D01*
X027243Y001660D01*
X027743Y001660D01*
X027993Y001910D01*
X027993Y002410D01*
X027743Y002660D01*
X027243Y002660D01*
X026993Y002410D01*
X027993Y003160D02*
X028243Y002910D01*
X028743Y002910D01*
X028993Y003160D01*
X028993Y003660D01*
X028743Y003910D01*
X028243Y003910D01*
X027993Y003660D01*
X027993Y003160D01*
X029243Y004160D02*
X029743Y004160D01*
X029993Y004410D01*
X029993Y004910D01*
X029743Y005160D01*
X029243Y005160D01*
X028993Y004910D01*
X028993Y004410D01*
X029243Y004160D01*
X030243Y005410D02*
X030743Y005410D01*
X030993Y005660D01*
X030993Y006160D01*
X030743Y006410D01*
X030243Y006410D01*
X029993Y006160D01*
X029993Y005660D01*
X030243Y005410D01*
X031243Y006660D02*
X031743Y006660D01*
X031993Y006910D01*
X031993Y007410D01*
X031743Y007660D01*
X031243Y007660D01*
X030993Y007410D01*
X030993Y006910D01*
X031243Y006660D01*
X032243Y007910D02*
X032743Y007910D01*
X032993Y008160D01*
X032993Y008660D01*
X032743Y008910D01*
X032243Y008910D01*
X031993Y008660D01*
X031993Y008160D01*
X032243Y007910D01*
X031743Y009160D02*
X031243Y009160D01*
X030993Y009410D01*
X030993Y009910D01*
X031243Y010160D01*
X031743Y010160D01*
X031993Y009910D01*
X031993Y009410D01*
X031743Y009160D01*
X030243Y008660D02*
X030243Y008160D01*
X029243Y008160D02*
X029243Y008660D01*
X028243Y007910D02*
X028243Y007410D01*
X027993Y007160D01*
X027493Y007160D01*
X027243Y007410D01*
X027243Y007910D01*
X027493Y008160D01*
X027993Y008160D01*
X028243Y007910D01*
X026243Y007410D02*
X026243Y006910D01*
X025993Y006660D01*
X025493Y006660D01*
X025243Y006910D01*
X025243Y007410D01*
X025493Y007660D01*
X025993Y007660D01*
X026243Y007410D01*
X024243Y007910D02*
X024243Y008410D01*
X023993Y008660D01*
X023493Y008660D01*
X023243Y008410D01*
X023243Y007910D01*
X023493Y007660D01*
X023993Y007660D01*
X024243Y007910D01*
X022243Y009160D02*
X022243Y009660D01*
X021993Y009910D01*
X021493Y009910D01*
X021243Y009660D01*
X021243Y009160D01*
X021493Y008910D01*
X021993Y008910D01*
X022243Y009160D01*
X020243Y009160D02*
X020243Y008660D01*
X019993Y008410D01*
X019493Y008410D01*
X019243Y008660D01*
X019243Y009160D01*
X019493Y009410D01*
X019993Y009410D01*
X020243Y009160D01*
X018243Y008660D02*
X018243Y008160D01*
X017243Y008160D02*
X017243Y008660D01*
X016493Y009410D02*
X016243Y009160D01*
X015743Y009160D01*
X015493Y009410D01*
X015493Y009910D01*
X015743Y010160D01*
X016243Y010160D01*
X016493Y009910D01*
X016493Y009410D01*
X015493Y008660D02*
X015243Y008910D01*
X014743Y008910D01*
X014493Y008660D01*
X014493Y008160D01*
X014743Y007910D01*
X015243Y007910D01*
X015493Y008160D01*
X015493Y008660D01*
X015743Y007660D02*
X015493Y007410D01*
X015493Y006910D01*
X015743Y006660D01*
X016243Y006660D01*
X016493Y006910D01*
X016493Y007410D01*
X016243Y007660D01*
X015743Y007660D01*
X016743Y010410D02*
X017243Y010410D01*
X017493Y010660D01*
X017493Y011160D01*
X017243Y011410D01*
X016743Y011410D01*
X016493Y011160D01*
X016493Y010660D01*
X016743Y010410D01*
X017743Y011660D02*
X018243Y011660D01*
X018493Y011910D01*
X018493Y012410D01*
X018243Y012660D01*
X017743Y012660D01*
X017493Y012410D01*
X017493Y011910D01*
X017743Y011660D01*
X018743Y012910D02*
X019243Y012910D01*
X019493Y013160D01*
X019493Y013660D01*
X019243Y013910D01*
X018743Y013910D01*
X018493Y013660D01*
X018493Y013160D01*
X018743Y012910D01*
X019743Y014160D02*
X020243Y014160D01*
X020493Y014410D01*
X020493Y014910D01*
X020243Y015160D01*
X019743Y015160D01*
X019493Y014910D01*
X019493Y014410D01*
X019743Y014160D01*
X020993Y014410D02*
X020993Y014910D01*
X021243Y015160D01*
X021743Y015160D01*
X021993Y014910D01*
X021993Y014410D01*
X021743Y014160D01*
X021243Y014160D01*
X020993Y014410D01*
X022493Y014410D02*
X022743Y014160D01*
X023243Y014160D01*
X023493Y014410D01*
X023493Y014910D01*
X023243Y015160D01*
X022743Y015160D01*
X022493Y014910D01*
X022493Y014410D01*
X023993Y014410D02*
X024243Y014160D01*
X024743Y014160D01*
X024993Y014410D01*
X024993Y014910D01*
X024743Y015160D01*
X024243Y015160D01*
X023993Y014910D01*
X023993Y014410D01*
X025493Y014410D02*
X025743Y014160D01*
X026243Y014160D01*
X026493Y014410D01*
X026493Y014910D01*
X026243Y015160D01*
X025743Y015160D01*
X025493Y014910D01*
X025493Y014410D01*
X026993Y014410D02*
X027243Y014160D01*
X027743Y014160D01*
X027993Y014410D01*
X027993Y014910D01*
X027743Y015160D01*
X027243Y015160D01*
X026993Y014910D01*
X026993Y014410D01*
X027993Y013660D02*
X027993Y013160D01*
X028243Y012910D01*
X028743Y012910D01*
X028993Y013160D01*
X028993Y013660D01*
X028743Y013910D01*
X028243Y013910D01*
X027993Y013660D01*
X029243Y012660D02*
X028993Y012410D01*
X028993Y011910D01*
X029243Y011660D01*
X029743Y011660D01*
X029993Y011910D01*
X029993Y012410D01*
X029743Y012660D01*
X029243Y012660D01*
X030243Y011410D02*
X029993Y011160D01*
X029993Y010660D01*
X030243Y010410D01*
X030743Y010410D01*
X030993Y010660D01*
X030993Y011160D01*
X030743Y011410D01*
X030243Y011410D01*
X027243Y015660D02*
X026743Y015660D01*
X026493Y015910D01*
X026493Y016410D01*
X026743Y016660D01*
X027243Y016660D01*
X027493Y016410D01*
X027493Y015910D01*
X027243Y015660D01*
X027243Y017160D02*
X026743Y017160D01*
X026493Y017410D01*
X026493Y017910D01*
X026743Y018160D01*
X027243Y018160D01*
X027493Y017910D01*
X027493Y017410D01*
X027243Y017160D01*
X026993Y018410D02*
X026493Y018410D01*
X026243Y018660D01*
X026243Y019160D01*
X026493Y019410D01*
X026993Y019410D01*
X027243Y019160D01*
X027243Y018660D01*
X026993Y018410D01*
X025743Y019410D02*
X025993Y019660D01*
X025993Y020160D01*
X025743Y020410D01*
X025243Y020410D01*
X024993Y020160D01*
X024993Y019660D01*
X025243Y019410D01*
X025743Y019410D01*
X024368Y019785D02*
X024368Y020285D01*
X024118Y020535D01*
X023618Y020535D01*
X023368Y020285D01*
X023368Y019785D01*
X023618Y019535D01*
X024118Y019535D01*
X024368Y019785D01*
X022743Y019660D02*
X022493Y019410D01*
X021993Y019410D01*
X021743Y019660D01*
X021743Y020160D01*
X021993Y020410D01*
X022493Y020410D01*
X022743Y020160D01*
X022743Y019660D01*
X021493Y019160D02*
X021493Y018660D01*
X021243Y018410D01*
X020743Y018410D01*
X020493Y018660D01*
X020493Y019160D01*
X020743Y019410D01*
X021243Y019410D01*
X021493Y019160D01*
X020743Y018160D02*
X020243Y018160D01*
X019993Y017910D01*
X019993Y017410D01*
X020243Y017160D01*
X020743Y017160D01*
X020993Y017410D01*
X020993Y017910D01*
X020743Y018160D01*
X020743Y016660D02*
X020243Y016660D01*
X019993Y016410D01*
X019993Y015910D01*
X020243Y015660D01*
X020743Y015660D01*
X020993Y015910D01*
X020993Y016410D01*
X020743Y016660D01*
X013868Y015910D02*
X013868Y015410D01*
X013618Y015160D01*
X013868Y014910D01*
X013868Y014410D01*
X013618Y014160D01*
X013118Y014160D01*
X012868Y014410D01*
X012868Y015910D01*
X012618Y016160D01*
X012118Y016160D01*
X011868Y015910D01*
X011868Y014410D01*
X012118Y014160D01*
X012618Y014160D01*
X012868Y014410D01*
X011868Y014410D02*
X011618Y014160D01*
X011118Y014160D01*
X010868Y014410D01*
X010868Y015910D01*
X011118Y016160D01*
X011618Y016160D01*
X011868Y015910D01*
X010868Y015910D02*
X010618Y016160D01*
X010118Y016160D01*
X009868Y015910D01*
X009868Y014410D01*
X009618Y014160D01*
X009118Y014160D01*
X008868Y014410D01*
X008868Y015910D01*
X009118Y016160D01*
X009618Y016160D01*
X009868Y015910D01*
X008868Y015910D02*
X008618Y016160D01*
X008118Y016160D01*
X007868Y015910D01*
X007868Y014410D01*
X008118Y014160D01*
X008618Y014160D01*
X008868Y014410D01*
X009868Y014410D02*
X010118Y014160D01*
X010618Y014160D01*
X010868Y014410D01*
X012868Y015910D02*
X013118Y016160D01*
X013618Y016160D01*
X013868Y015910D01*
X013618Y019910D02*
X013118Y019910D01*
X012868Y020160D01*
X012868Y021660D01*
X012618Y021910D01*
X012118Y021910D01*
X011868Y021660D01*
X011868Y020160D01*
X012118Y019910D01*
X012618Y019910D01*
X012868Y020160D01*
X013618Y019910D02*
X013868Y020160D01*
X013868Y020660D01*
X013618Y020910D01*
X013868Y021160D01*
X013868Y021660D01*
X013618Y021910D01*
X013118Y021910D01*
X012868Y021660D01*
X011868Y021660D02*
X011618Y021910D01*
X011118Y021910D01*
X010868Y021660D01*
X010868Y020160D01*
X011118Y019910D01*
X011618Y019910D01*
X011868Y020160D01*
X010868Y020160D02*
X010618Y019910D01*
X010118Y019910D01*
X009868Y020160D01*
X009868Y021660D01*
X009618Y021910D01*
X009118Y021910D01*
X008868Y021660D01*
X008868Y020160D01*
X009118Y019910D01*
X009618Y019910D01*
X009868Y020160D01*
X008868Y020160D02*
X008618Y019910D01*
X008118Y019910D01*
X007868Y020160D01*
X007868Y021660D01*
X008118Y021910D01*
X008618Y021910D01*
X008868Y021660D01*
X009868Y021660D02*
X010118Y021910D01*
X010618Y021910D01*
X010868Y021660D01*
X007868Y021660D02*
X007618Y021910D01*
X007118Y021910D01*
X006868Y021660D01*
X006868Y020160D01*
X007118Y019910D01*
X007618Y019910D01*
X007868Y020160D01*
X006868Y020160D02*
X006618Y019910D01*
X006118Y019910D01*
X005868Y020160D01*
X005868Y021660D01*
X005618Y021910D01*
X005118Y021910D01*
X004868Y021660D01*
X004868Y020160D01*
X005118Y019910D01*
X005618Y019910D01*
X005868Y020160D01*
X004868Y020160D02*
X004618Y019910D01*
X004118Y019910D01*
X003868Y020160D01*
X003868Y021660D01*
X004118Y021910D01*
X004618Y021910D01*
X004868Y021660D01*
X005868Y021660D02*
X006118Y021910D01*
X006618Y021910D01*
X006868Y021660D01*
X003868Y021660D02*
X003618Y021910D01*
X003118Y021910D01*
X002868Y021660D01*
X002868Y020160D01*
X002618Y019910D01*
X002118Y019910D01*
X001868Y020160D01*
X001868Y021660D01*
X002118Y021910D01*
X002618Y021910D01*
X002868Y021660D01*
X001868Y021660D02*
X001618Y021910D01*
X001118Y021910D01*
X000868Y021660D01*
X000868Y021160D01*
X001118Y020910D01*
X000868Y020660D01*
X000868Y020160D01*
X001118Y019910D01*
X001618Y019910D01*
X001868Y020160D01*
X002868Y020160D02*
X003118Y019910D01*
X003618Y019910D01*
X003868Y020160D01*
X004118Y016160D02*
X003868Y015910D01*
X003868Y014410D01*
X004118Y014160D01*
X004618Y014160D01*
X004868Y014410D01*
X004868Y015910D01*
X005118Y016160D01*
X005618Y016160D01*
X005868Y015910D01*
X005868Y014410D01*
X005618Y014160D01*
X005118Y014160D01*
X004868Y014410D01*
X005868Y014410D02*
X006118Y014160D01*
X006618Y014160D01*
X006868Y014410D01*
X006868Y015910D01*
X007118Y016160D01*
X007618Y016160D01*
X007868Y015910D01*
X006868Y015910D02*
X006618Y016160D01*
X006118Y016160D01*
X005868Y015910D01*
X004868Y015910D02*
X004618Y016160D01*
X004118Y016160D01*
X003868Y015910D02*
X003618Y016160D01*
X003118Y016160D01*
X002868Y015910D01*
X002868Y014410D01*
X002618Y014160D01*
X002118Y014160D01*
X001868Y014410D01*
X001868Y015910D01*
X002118Y016160D01*
X002618Y016160D01*
X002868Y015910D01*
X001868Y015910D02*
X001618Y016160D01*
X001118Y016160D01*
X000868Y015910D01*
X000868Y015410D01*
X001118Y015160D01*
X000868Y014910D01*
X000868Y014410D01*
X001118Y014160D01*
X001618Y014160D01*
X001868Y014410D01*
X002868Y014410D02*
X003118Y014160D01*
X003618Y014160D01*
X003868Y014410D01*
X006868Y014410D02*
X007118Y014160D01*
X007618Y014160D01*
X007868Y014410D01*
X008760Y010654D02*
X009705Y010654D01*
X009705Y010064D01*
X008760Y010064D02*
X008760Y010654D01*
X008760Y009276D02*
X008760Y008843D01*
X008918Y008686D01*
X009548Y008686D01*
X009705Y008843D01*
X009705Y009276D01*
X005480Y009100D02*
X005480Y010360D01*
X004456Y010360D02*
X004456Y009100D01*
D54*
X004368Y014660D03*
X005368Y014660D03*
X006368Y014660D03*
X007368Y014660D03*
X008368Y014660D03*
X009368Y014660D03*
X010368Y014660D03*
X011368Y014660D03*
X012368Y014660D03*
X013368Y014660D03*
X013368Y015660D03*
X012368Y015660D03*
X011368Y015660D03*
X010368Y015660D03*
X009368Y015660D03*
X008368Y015660D03*
X007368Y015660D03*
X006368Y015660D03*
X005368Y015660D03*
X004368Y015660D03*
X003368Y015660D03*
X002368Y015660D03*
X001368Y015660D03*
X001368Y014660D03*
X002368Y014660D03*
X003368Y014660D03*
X003368Y020410D03*
X004368Y020410D03*
X005368Y020410D03*
X006368Y020410D03*
X007368Y020410D03*
X008368Y020410D03*
X009368Y020410D03*
X010368Y020410D03*
X011368Y020410D03*
X012368Y020410D03*
X013368Y020410D03*
X013368Y021410D03*
X012368Y021410D03*
X011368Y021410D03*
X010368Y021410D03*
X009368Y021410D03*
X008368Y021410D03*
X007368Y021410D03*
X006368Y021410D03*
X005368Y021410D03*
X004368Y021410D03*
X003368Y021410D03*
X002368Y021410D03*
X001368Y021410D03*
X001368Y020410D03*
X002368Y020410D03*
X016993Y010910D03*
X015993Y009660D03*
X014993Y008410D03*
X015993Y007160D03*
X017743Y008410D03*
X019743Y008910D03*
X021743Y009410D03*
X023743Y008160D03*
X025743Y007160D03*
X027743Y007660D03*
X029743Y008410D03*
X031493Y007160D03*
X032493Y008410D03*
X031493Y009660D03*
X030493Y010910D03*
X029493Y012160D03*
X028493Y013410D03*
X027493Y014660D03*
X025993Y014660D03*
X024493Y014660D03*
X022993Y014660D03*
X021493Y014660D03*
X019993Y014660D03*
X020493Y016160D03*
X020493Y017660D03*
X020993Y018910D03*
X022243Y019910D03*
X023868Y020035D03*
X025493Y019910D03*
X026743Y018910D03*
X026993Y017660D03*
X026993Y016160D03*
X018993Y013410D03*
X017993Y012160D03*
X016993Y005910D03*
X017993Y004660D03*
X018993Y003410D03*
X019993Y002160D03*
X021493Y002160D03*
X022993Y002160D03*
X024493Y002160D03*
X025993Y002160D03*
X027493Y002160D03*
X028493Y003410D03*
X029493Y004660D03*
X030493Y005910D03*
D55*
X012242Y002922D03*
X012243Y001878D03*
X011868Y005443D03*
X011867Y006487D03*
X007288Y009163D03*
X007287Y010207D03*
X002392Y010232D03*
X002393Y009188D03*
X005527Y002882D03*
X005528Y001838D03*
M02*
