G75*
G70*
%OFA0B0*%
%FSLAX24Y24*%
%IPPOS*%
%LPD*%
%AMOC8*
5,1,8,0,0,1.08239X$1,22.5*
%
%ADD10R,0.0217X0.0630*%
%ADD11R,0.0631X0.0552*%
%ADD12C,0.0730*%
%ADD13R,0.0789X0.0710*%
%ADD14C,0.0161*%
%ADD15R,0.1064X0.0277*%
%ADD16R,0.1064X0.0867*%
%ADD17C,0.0820*%
%ADD18C,0.0820*%
%ADD19R,0.0710X0.0631*%
%ADD20R,0.0867X0.0552*%
%ADD21R,0.0456X0.0456*%
%ADD22C,0.1740*%
D10*
X007184Y004476D03*
X007440Y004476D03*
X007696Y004476D03*
X007952Y004476D03*
X008208Y004476D03*
X008464Y004476D03*
X008720Y004476D03*
X008976Y004476D03*
X009232Y004476D03*
X009488Y004476D03*
X009744Y004476D03*
X009999Y004476D03*
X010255Y004476D03*
X010511Y004476D03*
X010511Y007354D03*
X010255Y007354D03*
X009999Y007354D03*
X009744Y007354D03*
X009488Y007354D03*
X009232Y007354D03*
X008976Y007354D03*
X008720Y007354D03*
X008464Y007354D03*
X008208Y007354D03*
X007952Y007354D03*
X007696Y007354D03*
X007440Y007354D03*
X007184Y007354D03*
D11*
X010118Y002991D03*
X010118Y001809D03*
X007653Y001769D03*
X007653Y002951D03*
D12*
X007368Y014660D03*
X008368Y014660D03*
X009368Y014660D03*
X010368Y014660D03*
X011368Y014660D03*
X012368Y014660D03*
X013368Y014660D03*
X013368Y015660D03*
X012368Y015660D03*
X011368Y015660D03*
X010368Y015660D03*
X009368Y015660D03*
X008368Y015660D03*
X007368Y015660D03*
X006368Y015660D03*
X005368Y015660D03*
X004368Y015660D03*
X003368Y015660D03*
X002368Y015660D03*
X001368Y015660D03*
X001368Y014660D03*
X002368Y014660D03*
X003368Y014660D03*
X004368Y014660D03*
X005368Y014660D03*
X006368Y014660D03*
X006368Y020410D03*
X007368Y020410D03*
X008368Y020410D03*
X009368Y020410D03*
X010368Y020410D03*
X011368Y020410D03*
X012368Y020410D03*
X013368Y020410D03*
X013368Y021410D03*
X012368Y021410D03*
X011368Y021410D03*
X010368Y021410D03*
X009368Y021410D03*
X008368Y021410D03*
X007368Y021410D03*
X006368Y021410D03*
X005368Y021410D03*
X004368Y021410D03*
X003368Y021410D03*
X002368Y021410D03*
X001368Y021410D03*
X001368Y020410D03*
X002368Y020410D03*
X003368Y020410D03*
X004368Y020410D03*
X005368Y020410D03*
D13*
X007288Y010236D03*
X007288Y009134D03*
X011868Y006516D03*
X011868Y005414D03*
X012243Y002951D03*
X012243Y001849D03*
X005528Y001809D03*
X005528Y002911D03*
X002393Y009159D03*
X002393Y010261D03*
D14*
X002325Y005666D02*
X002327Y005689D01*
X002333Y005712D01*
X002343Y005733D01*
X002356Y005753D01*
X002372Y005770D01*
X002391Y005784D01*
X002412Y005794D01*
X002434Y005801D01*
X002457Y005804D01*
X002481Y005803D01*
X002503Y005798D01*
X002525Y005789D01*
X002545Y005777D01*
X002563Y005761D01*
X002577Y005743D01*
X002589Y005723D01*
X002597Y005701D01*
X002601Y005678D01*
X002601Y005654D01*
X002597Y005631D01*
X002589Y005609D01*
X002577Y005589D01*
X002563Y005571D01*
X002545Y005555D01*
X002525Y005543D01*
X002503Y005534D01*
X002481Y005529D01*
X002457Y005528D01*
X002434Y005531D01*
X002412Y005538D01*
X002391Y005548D01*
X002372Y005562D01*
X002356Y005579D01*
X002343Y005599D01*
X002333Y005620D01*
X002327Y005643D01*
X002325Y005666D01*
X002325Y003934D02*
X002327Y003957D01*
X002333Y003980D01*
X002343Y004001D01*
X002356Y004021D01*
X002372Y004038D01*
X002391Y004052D01*
X002412Y004062D01*
X002434Y004069D01*
X002457Y004072D01*
X002481Y004071D01*
X002503Y004066D01*
X002525Y004057D01*
X002545Y004045D01*
X002563Y004029D01*
X002577Y004011D01*
X002589Y003991D01*
X002597Y003969D01*
X002601Y003946D01*
X002601Y003922D01*
X002597Y003899D01*
X002589Y003877D01*
X002577Y003857D01*
X002563Y003839D01*
X002545Y003823D01*
X002525Y003811D01*
X002503Y003802D01*
X002481Y003797D01*
X002457Y003796D01*
X002434Y003799D01*
X002412Y003806D01*
X002391Y003816D01*
X002372Y003830D01*
X002356Y003847D01*
X002343Y003867D01*
X002333Y003888D01*
X002327Y003911D01*
X002325Y003934D01*
D15*
X003447Y004170D03*
X003447Y004485D03*
X003447Y004800D03*
X003447Y005115D03*
X003447Y005430D03*
D16*
X003447Y006572D03*
X001282Y006572D03*
X001282Y003028D03*
X003447Y003028D03*
D17*
X014993Y008410D03*
X015993Y007160D03*
X016993Y005910D03*
X017993Y004660D03*
X018993Y003410D03*
X019993Y002160D03*
X021493Y002160D03*
X022993Y002160D03*
X024493Y002160D03*
X025993Y002160D03*
X027493Y002160D03*
X028493Y003410D03*
X029493Y004660D03*
X030493Y005910D03*
X031493Y007160D03*
X032493Y008410D03*
X031493Y009660D03*
X030493Y010910D03*
X029493Y012160D03*
X028493Y013410D03*
X027493Y014660D03*
X025993Y014660D03*
X024493Y014660D03*
X022993Y014660D03*
X021493Y014660D03*
X019993Y014660D03*
X020493Y016160D03*
X020493Y017660D03*
X020993Y018910D03*
X022243Y019910D03*
X023868Y020035D03*
X025493Y019910D03*
X026743Y018910D03*
X026993Y017660D03*
X026993Y016160D03*
X018993Y013410D03*
X017993Y012160D03*
X016993Y010910D03*
X015993Y009660D03*
X019743Y008910D03*
X021743Y009410D03*
X023743Y008160D03*
X025743Y007160D03*
X027743Y007660D03*
D18*
X029743Y008040D02*
X029743Y008780D01*
X017743Y008780D02*
X017743Y008040D01*
D19*
X009233Y009119D03*
X009233Y010221D03*
D20*
X004968Y010360D03*
X004968Y009100D03*
D21*
X009118Y008160D03*
X010493Y008160D03*
X009243Y006535D03*
X008868Y005285D03*
X008618Y003535D03*
X006743Y003535D03*
X011493Y002660D03*
X010493Y013285D03*
X009493Y013285D03*
X008868Y013285D03*
X006868Y016285D03*
X005868Y016285D03*
X008868Y019535D03*
X009868Y019535D03*
D22*
X001743Y001285D03*
X017118Y001285D03*
X032743Y001285D03*
X032743Y021035D03*
X017118Y021035D03*
M02*
